<svg id="bean" xmlns="http://www.w3.org/2000/svg" width="103.0521" height="126.4365" viewBox="0 0 103.0521 126.4365"><defs><style>.cls-1{fill:#6e402b;}.cls-2{fill:#3b2316;}</style></defs><title>bean2</title><path class="cls-1" d="M38.9527,97.3946c1.4329-3.6584,2.7609-7.5683,3.92-11.6534.559-2.049,1.1167-4.13,1.5883-6.2554.2647-1.056.4433-2.1376.6628-3.2139.242-1.0721.4074-2.1641.5979-3.2547.2043-1.0886.344-2.1911.4884-3.2957l.2214-1.6578.1777-1.6662.18-1.6694c.0529-.553.0768-1.0915.1177-1.6384.07-1.1.1675-2.1405.1864-3.3582l.07-1.7671L47.24,56.24c.0711-1.2677.1078-2.5326.2136-3.796.1408-1.2647.2925-2.5255.4661-3.7785q.3676-1.872.7326-3.7313.4938-1.8362.9833-3.6561c.4209-1.1891.833-2.3727,1.268-3.5378.5051-1.1421.9735-2.289,1.5076-3.3959q.4317-.8163.86-1.6263c.2918-.5359.5615-1.0795.8965-1.5858A46.7167,46.7167,0,0,1,62.9144,20.46a50.3124,50.3124,0,0,1,9.9-6.9877A56.6044,56.6044,0,0,1,88.6988,7.8137a30.5276,30.5276,0,0,0-4.3724-2.9323C71.831-2.0009,55.8921.5919,41.1937,10.2241,28.2243,42.5962,15.2386,88.1355,33.838,108.94q.33-.6661.6624-1.35C36.0114,104.474,37.5278,101.057,38.9527,97.3946Z"/><path class="cls-2" d="M41.1937,10.2241c-10.8609,7.1173-21.0443,18.0769-28.66,31.9033C-5.3874,74.6652-2.3013,110.7441,19.427,122.7118q1.0907.6006,2.2154,1.1053a3.7271,3.7271,0,0,0,4.6529-1.4263l.0192-.03A153.3466,153.3466,0,0,0,33.838,108.94C15.2387,88.1355,28.2243,42.5962,41.1937,10.2241Z"/><path class="cls-2" d="M37.6928,112.5413c-1.5774,2.0883-3.128,3.9623-4.5993,5.6145-1.9556,2.1934-3.7616,4.0043-5.3053,5.4313-.7166.671-1.3782,1.25-1.9719,1.7525,10.0454,2.8636,21.5733.6949,32.6535-5.493C49.6052,119.0713,42.7952,116.496,37.6928,112.5413Z"/><path class="cls-1" d="M58.47,119.8466c12.3716-6.9093,24.1848-18.8307,32.7494-34.38,13.997-25.4129,15.177-52.983,4.6714-69.541A9.1223,9.1223,0,0,0,83.6222,12.84l-.0778.0455a69.37,69.37,0,0,0-7.738,5.2053,53.9841,53.9841,0,0,0-7.793,7.3873,46.2246,46.2246,0,0,0-6.4428,9.6986c-.4636.888-.805,1.8468-1.2382,2.7626-.3851.94-.7091,1.9143-1.0747,2.8736q-.4333,1.4838-.8715,2.9845l-.6982,3.0706q-.2493,1.5687-.5,3.1485c-.097,1.0679-.1932,2.1388-.3137,3.2083-.0763,1.0773-.09,2.1676-.1421,3.2522l-.107,3.5761c-.0186,1.1412-.1477,2.4492-.241,3.7-.0533.6273-.0929,1.2652-.159,1.8822L56.0065,67.47,55.7873,69.3c-.0871.6076-.2008,1.21-.3,1.8144-.2025,1.207-.4019,2.41-.6669,3.596-.4657,2.3836-1.0544,4.7208-1.7191,7.0009-.6559,2.2828-1.3763,4.5137-2.1888,6.6677a94.9537,94.9537,0,0,1-5.4462,12.0439,96.2517,96.2517,0,0,1-6.2138,9.9943q-.7821,1.0965-1.5595,2.124C42.7952,116.496,49.6052,119.0713,58.47,119.8466Z"/></svg>