<svg id="bean" xmlns="http://www.w3.org/2000/svg" width="443.28" height="541.68" viewBox="0 0 443.28 541.68"><defs><style>.cls-1{fill:#6e402b;}.cls-2{fill:#3b2316;}</style></defs><title>bean</title><path class="cls-1" d="M314.3722,394.0236c-10.1249-13.5325-21.4073-27.2524-33.7115-40.7535-6.2229-6.6892-12.5645-13.445-19.2667-19.9889-3.26-3.3621-6.809-6.467-10.246-9.71-3.3706-3.3154-6.9874-6.3958-10.5423-9.5647-3.5163-3.215-7.23-6.2255-10.9406-9.2579l-5.5582-4.5681-5.6884-4.4274-5.6951-4.442c-1.9017-1.4472-3.8159-2.7555-5.7225-4.1447-3.8616-2.7482-7.4453-5.4656-11.8539-8.2955l-6.3012-4.2622-6.129-4.19c-4.473-3.1338-9.0138-6.1361-13.3926-9.3873-4.3038-3.3822-8.5691-6.7953-12.756-10.2708q-6.01-5.5884-11.9794-11.1382-5.5921-5.9681-11.1358-11.8837c-3.3925-4.2348-6.7852-8.4251-10.0579-12.6568-3.03-4.4358-6.1609-8.7485-8.9962-13.2108q-2.0049-3.4289-3.9953-6.8306c-1.2975-2.2819-2.6733-4.5-3.7647-6.873a200.9637,200.9637,0,0,1-19.1838-56.1719,216.44,216.44,0,0,1-3.0987-52.0331A243.4975,243.4975,0,0,1,99.6856,9.0643,131.3087,131.3087,0,0,0,79.0529,18.4C25.5631,48.4745-1.097,112.62.7894,188.1908c88.9356,120.8085,225.9685,271.53,344.1937,250.708q-1.686-2.7185-3.4334-5.4823C333.5831,420.8268,324.53,407.5362,314.3722,394.0236Z"/><path class="cls-2" d="M.7894,188.1908c1.3938,55.8406,18.3691,117.9161,51.6473,177.1039C130.75,504.5808,269.6386,575.1005,362.6524,522.8038q4.6686-2.625,9.0635-5.5925a16.0327,16.0327,0,0,0,5.3354-20.2435l-.0659-.1376a659.4951,659.4951,0,0,0-32.0023-57.9314C226.7579,459.7205,89.725,308.9993.7894,188.1908Z"/><path class="cls-2" d="M366.8866,432.9711c4.0576,10.5012,7.3925,20.4188,10.0966,29.5431,3.5843,12.122,6.1095,22.83,7.8262,31.7085.828,4.1411,1.446,7.8732,1.9357,11.1823,33.2442-30.23,51.453-77.2888,53.9542-131.8237C417.7665,404.2292,392.9121,423.2852,366.8866,432.9711Z"/><path class="cls-1" d="M440.6993,373.5813c2.7922-60.8914-14.0044-131.1053-51.43-197.67C328.1042,67.1248,229.9935.302,145.6443,1.1651c-21.0883.216-38.4927,16.7722-39.0952,37.8533-.0033.1291-.0072.2584-.01.3875a298.3745,298.3745,0,0,0,1.4843,40.0893,232.2211,232.2211,0,0,0,9.3364,45.2372,198.8494,198.8494,0,0,0,20.8468,45.5423c2.1952,3.7081,4.9261,7.13,7.2918,10.79,2.5638,3.5392,5.39,6.9325,8.0682,10.4439q4.4418,4.9484,8.9342,9.9524l9.642,9.5145q5.1695,4.4679,10.3756,8.9672c3.6841,2.7759,7.3809,5.5555,11.0172,8.421,3.7652,2.7212,7.72,5.2435,11.5669,7.8929l12.83,8.4992c4.13,2.6556,8.6187,6.0932,12.9783,9.2693,2.172,1.617,4.4144,3.2082,6.52,4.8488l6.2125,4.9588,6.1947,4.9519c2.0239,1.6957,3.9694,3.4783,5.9526,5.2106,3.9531,3.4768,7.9,6.934,11.6334,10.591,7.6577,7.107,14.8669,14.5581,21.6951,22.1575,6.858,7.5735,13.38,15.2652,19.4122,23.1193a408.4339,408.4339,0,0,1,31.68,47.2163,413.9583,413.9583,0,0,1,22.447,45.3751q2.2353,5.3453,4.2288,10.5168C392.9121,423.2852,417.7665,404.2292,440.6993,373.5813Z"/></svg>