<svg id="bean" xmlns="http://www.w3.org/2000/svg" width="103.0521" height="68.2704" viewBox="0 0 103.0521 68.2704"><defs><style>.cls-1{fill:#6e402b;}.cls-2{fill:#3b2316;}</style></defs><title>bean3</title><path class="cls-1" d="M24.3747,37.4618c2.9655-.345,6.0624-.85,9.2166-1.5309,1.5741-.3565,3.1688-.7253,4.7632-1.168.8028-.2,1.5921-.4659,2.3925-.7029.8055-.2205,1.597-.4994,2.3966-.761.8031-.2516,1.5926-.5516,2.3851-.8491l1.1911-.4433,1.1811-.4758,1.184-.4754c.39-.162.76-.3382,1.141-.5061.7625-.3458,1.4956-.6519,2.3192-1.074l1.21-.584,1.184-.5641c.8757-.4049,1.7373-.8319,2.6225-1.212.8986-.3571,1.7985-.7055,2.701-1.0364l2.7645-.8408,2.8035-.6458c.9479-.1422,1.889-.2884,2.8258-.4126.9464-.069,1.883-.1643,2.8162-.2012l1.3979-.0038c.4637.0044.9246-.0088,1.3839.0351a35.5,35.5,0,0,1,10.2818,2.0566,38.236,38.236,0,0,1,8.2218,4.1458,43.0132,43.0132,0,0,1,9.4672,8.6348,23.1983,23.1983,0,0,0,.4057-3.98c.1552-10.8389-7.2748-20.6048-18.9838-27.0252C57.3021,10.7,22.1187,18.2489,14.8038,38.1533q.5648-.0162,1.142-.0377C18.5758,38.0165,21.4093,37.8136,24.3747,37.4618Z"/><path class="cls-2" d="M83.6474,7.8418A68.36,68.36,0,0,0,52.0145.008C23.79-.3961.6907,14.5556.4209,33.4035Q.4073,34.35.47,35.2842a2.8323,2.8323,0,0,0,2.6181,2.6119l.0268.0021a116.5133,116.5133,0,0,0,11.6885.2551C22.1187,18.249,57.3021,10.7,83.6474,7.8418Z"/><path class="cls-2" d="M13.7647,42.0247c-1.964-.3125-3.7747-.6836-5.4083-1.0806-2.17-.5286-4.029-1.0935-5.5374-1.62-.7059-.2412-1.3308-.4781-1.88-.697C2.6051,46.3883,8.1758,53.3467,16.2826,58.57,13.6376,52.3468,12.9337,46.8593,13.7647,42.0247Z"/><path class="cls-1" d="M16.2826,58.57c9.0518,5.8318,21.2662,9.4995,34.7546,9.6926,22.0441.3157,40.959-8.7364,48.3149-21.6952a6.9319,6.9319,0,0,0-2.3107-9.3311L96.9831,37.2a52.6889,52.6889,0,0,0-6.2544-3.3321,41.0128,41.0128,0,0,0-7.7376-2.59,35.1228,35.1228,0,0,0-8.806-.859c-.7612.0061-1.5263.1194-2.2952.1558-.7682.0773-1.5373.2078-2.3113.3051l-2.3131.481-2.309.6279-2.2906.7886c-.751.3163-1.5036.6341-2.2641.9351-.75.3335-1.4861.7136-2.2322,1.0659l-2.437,1.205c-.7722.395-1.6957.7754-2.5677,1.1592-.44.1882-.8819.3894-1.3193.5654l-1.3089.5086-1.3062.5065c-.4386.1585-.8835.2974-1.3242.4465-.8819.2951-1.76.591-2.65.8366-1.7652.5386-3.5431.9782-5.31,1.3464-1.7654.3751-3.5191.6884-5.2541.9124a72.1335,72.1335,0,0,1-10.0234.6469,73.1177,73.1177,0,0,1-8.9225-.6q-1.0148-.1332-1.9816-.2878C12.9337,46.8593,13.6376,52.3468,16.2826,58.57Z"/></svg>