<?xml version="1.0" encoding="utf-8"?>
<!-- Generator: Adobe Illustrator 23.0.2, SVG Export Plug-In . SVG Version: 6.00 Build 0)  -->
<svg version="1.1" id="bean" xmlns="http://www.w3.org/2000/svg" xmlns:xlink="http://www.w3.org/1999/xlink" x="0px" y="0px"
	 viewBox="0 0 103.1 126.4" style="enable-background:new 0 0 103.1 126.4;" xml:space="preserve">
<style type="text/css">
	.st0{fill:#6E402B;}
	.st1{fill:#3B2316;}
</style>
<title>bean</title>
<path class="st0" d="M73.6,92.5c-2.4-3.1-5-6.3-7.8-9.5c-1.4-1.6-2.9-3.1-4.5-4.6c-0.8-0.8-1.6-1.5-2.4-2.3
	c-0.8-0.8-1.6-1.5-2.5-2.2c-0.8-0.7-1.7-1.4-2.5-2.2l-1.3-1.1l-1.3-1l-1.3-1c-0.4-0.3-0.9-0.6-1.3-1c-0.9-0.6-1.7-1.3-2.8-1.9
	l-1.5-1l-1.4-1c-1-0.7-2.1-1.4-3.1-2.2c-1-0.8-2-1.6-3-2.4c-0.9-0.9-1.9-1.7-2.8-2.6c-0.9-0.9-1.7-1.8-2.6-2.8c-0.8-1-1.6-2-2.3-2.9
	c-0.7-1-1.4-2-2.1-3.1c-0.3-0.5-0.6-1.1-0.9-1.6c-0.3-0.5-0.6-1-0.9-1.6c-2.1-4.1-3.6-8.5-4.5-13.1c-0.7-4-1-8-0.7-12.1
	c0.4-5.6,1.6-11.2,3.6-16.5c-1.7,0.6-3.3,1.3-4.8,2.2C6.5,12.2,0.3,27.1,0.7,44.6c20.7,28.1,52.5,63.1,80,58.3
	c-0.3-0.4-0.5-0.8-0.8-1.3C78.1,98.7,76,95.6,73.6,92.5z"/>
<path class="st1" d="M0.7,44.6C1,57.6,5,72,12.7,85.8c18.2,32.4,50.5,48.8,72.1,36.6c0.7-0.4,1.4-0.8,2.1-1.3c1.5-1,2-3,1.2-4.7l0,0
	c-2.3-4.6-4.7-9.1-7.4-13.5C53.2,107.8,21.4,72.7,0.7,44.6z"/>
<path class="st1" d="M85.8,101.5c0.9,2.4,1.7,4.7,2.3,6.9c0.8,2.8,1.4,5.3,1.8,7.4c0.2,1,0.3,1.8,0.4,2.6c7.7-7,12-18,12.5-30.6
	C97.7,94.9,91.9,99.3,85.8,101.5z"/>
<path class="st0" d="M103,87.7c0.6-14.2-3.3-30.5-12-46C76.8,16.5,54,1,34.4,1.2c-4.9,0.1-8.9,3.9-9.1,8.8c0,0,0,0.1,0,0.1
	c-0.1,3.1,0,6.2,0.3,9.3c0.4,3.6,1.1,7.1,2.2,10.5c1.2,3.7,2.8,7.3,4.8,10.6c0.5,0.9,1.1,1.7,1.7,2.5c0.6,0.8,1.3,1.6,1.9,2.4
	c0.7,0.8,1.4,1.5,2.1,2.3l2.2,2.2c0.8,0.7,1.6,1.4,2.4,2.1c0.9,0.6,1.7,1.3,2.6,2c0.9,0.6,1.8,1.2,2.7,1.8l3,2c1,0.6,2,1.4,3,2.2
	c0.5,0.4,1,0.7,1.5,1.1l1.4,1.2l1.4,1.2c0.5,0.4,0.9,0.8,1.4,1.2c0.9,0.8,1.8,1.6,2.7,2.5c1.8,1.7,3.5,3.4,5,5.2
	c1.6,1.8,3.1,3.5,4.5,5.4c2.7,3.5,5.2,7.2,7.4,11c2,3.4,3.7,6.9,5.2,10.5c0.3,0.8,0.7,1.6,1,2.4C91.9,99.3,97.7,94.9,103,87.7z"/>
</svg>
