<svg id="Layer_1" data-name="Layer 1" xmlns="http://www.w3.org/2000/svg" viewBox="0 0 123.08 13.35"><defs><style>.cls-1{fill:#e7ae22;}</style></defs><title>spoon</title><path class="cls-1" d="M122.38,6.13a5.42,5.42,0,0,0-1.53-3.58A8,8,0,0,0,117.44,1,18.33,18.33,0,0,0,106.82,2.1a34.57,34.57,0,0,0-5.94,2.79,5.5,5.5,0,0,1-1.44.79C97.31,6.23,95,6,92.83,6c-2.35,0-4.69.08-7,.15-4.6.15-9.3.38-13.85.52-4.78.14-36.2.43-41,.5s-9.41,0-14.11-.28A55.18,55.18,0,0,0,6.48,6.69c-1.33.16-3.42.51-4.37,1.56s-.12,2.37,1,2.85c3.16,1.36,6.86.08,10.05-.49A79.25,79.25,0,0,1,21.7,9.39c3.87-.26,7.84-.24,11.66-.34,4.67-.12,36-.5,40.66-.56s9.53-.15,14.29-.31c3.37-.11,6.8-.57,10.17-.18a40.42,40.42,0,0,1,8.63,2.23c4.28,1.5,8.93,2.73,13,.07A4.14,4.14,0,0,0,122.38,6.13ZM101.82,5.9c1.4-.66,2.81-1.3,4.2-2,.3-.15.4,0,.5.19s0,.3-.11.37a3.11,3.11,0,0,1-.81.5c-1.86.62-3.72,1.22-5.58,1.82a.74.74,0,0,1-.16,0ZM15.26,7.45l-.34.27-.25-.23-1-.17C14.19,7.33,14.68,7.4,15.26,7.45ZM4.25,11a2.56,2.56,0,0,1-1.54-.88c-.57-.67-.5-1.28.35-1.84a5.3,5.3,0,0,1,2.37-.76C6.61,7.38,7.78,7.28,9,7.16l0,.15-.66.11a7.46,7.46,0,0,0-2.94.94,3.53,3.53,0,0,0-.57.45.64.64,0,0,0,0,1,3.25,3.25,0,0,0,2.24,1c.46.05.93.06,1.39.09A13.57,13.57,0,0,1,4.25,11Zm5.08-.37a8.11,8.11,0,0,1-3.43-.36,2.74,2.74,0,0,1-.76-.51.56.56,0,0,1,.1-.93A8.3,8.3,0,0,1,9,7.59l10.37.3a2.69,2.69,0,0,1-1.51,1C15,9.56,12.25,10.5,9.33,10.63Zm9.44-1.89c.55-.35.86-1.13,1.7-1l.06.12-1.69.94Zm.68.12a3.84,3.84,0,0,1,3.36-1A3.5,3.5,0,0,1,19.45,8.86ZM22.1,8.8A4.14,4.14,0,0,1,25,7.58,2.9,2.9,0,0,1,22.1,8.8Zm2.25,0a2.87,2.87,0,0,1,3.19-1.33C26.46,8,25.64,8.94,24.35,8.81Zm1.77-.05a1.4,1.4,0,0,1,.24-.33,5.37,5.37,0,0,1,2.09-.95c.25,0,.5-.11.76-.16l0,.2c-.88.5-1.58,1.33-2.71,1.33A2.07,2.07,0,0,1,26.12,8.76Zm2-.09a3.2,3.2,0,0,1,3.13-1.08A3.75,3.75,0,0,1,28.1,8.67Zm2.3-.08a3.38,3.38,0,0,1,3.25-1A4.06,4.06,0,0,1,30.4,8.59Zm2.44.07.09-.07-.09,0a3.66,3.66,0,0,1,2.3-1.06,2.54,2.54,0,0,1,1.35,0,3.69,3.69,0,0,1-1.42.79A3.32,3.32,0,0,1,32.84,8.66Zm2.43,0a3.36,3.36,0,0,1,3.25-1A4.06,4.06,0,0,1,35.27,8.67Zm2.63-.15a3.42,3.42,0,0,1,3.26-.95A4.08,4.08,0,0,1,37.9,8.52Zm2.51,0a3.42,3.42,0,0,1,3.26-.95A4.08,4.08,0,0,1,40.41,8.54ZM43,8.43a3.36,3.36,0,0,1,3.25-.95A4.06,4.06,0,0,1,43,8.43Zm2.43,0a3.4,3.4,0,0,1,3.25-.95A4.06,4.06,0,0,1,45.42,8.45Zm2.47,0a3.39,3.39,0,0,1,3.25-.95A4.07,4.07,0,0,1,47.89,8.43Zm2.51,0a3.38,3.38,0,0,1,3.25-1A4.06,4.06,0,0,1,50.4,8.41Zm2.65-.07a3.36,3.36,0,0,1,3.25-1A4.07,4.07,0,0,1,53.05,8.34Zm2.51,0a3.36,3.36,0,0,1,3.25-1A4.06,4.06,0,0,1,55.56,8.3Zm2.38,0a3.42,3.42,0,0,1,3.26-1A4.08,4.08,0,0,1,57.94,8.34Zm4.66-1a2.9,2.9,0,0,1-2.5,1A3.41,3.41,0,0,1,62.6,7.35Zm-.83.85c.76-.45,1.38-1,2.34-.74A2.37,2.37,0,0,1,61.77,8.2Zm1.95,0a3,3,0,0,1,2.54-.91C65.14,8.19,64.61,8.67,63.72,8.23ZM68,7.2a2.91,2.91,0,0,1-2.5,1A3.37,3.37,0,0,1,68,7.2Zm-.72.93c1.43-1,1.8-1.18,2.58-1A2.42,2.42,0,0,1,67.31,8.13ZM69.41,8c.58-.33,1-1,1.79-.74C71.14,7.76,70.18,8.17,69.41,8ZM71,7.85a2.61,2.61,0,0,1,2.33-.76A1.84,1.84,0,0,1,71,7.85Zm2-.09A2.58,2.58,0,0,1,75.41,7,2,2,0,0,1,73.05,7.76Zm4.5-.83a3.48,3.48,0,0,1-2.73,1C75.55,7,76.56,7,77.55,6.93Zm-.68.91A2.83,2.83,0,0,1,79.56,7,2.41,2.41,0,0,1,76.87,7.84Zm2.28-.06a2.66,2.66,0,0,1,2.17-1C80.65,7.41,80.11,8,79.15,7.78Zm1.66.11,0-.14A2.68,2.68,0,0,1,83.4,6.68c-.6.4-1.14.81-1.72,1.13A2.46,2.46,0,0,1,80.81,7.89Zm1.74-.19a3.46,3.46,0,0,1,3-1.24C84.67,7.11,83.88,8,82.55,7.7Zm1.93,0c.71-1,2.83-1.64,3.72-1.18l-.34.23-1,.67A2.8,2.8,0,0,1,84.48,7.69Zm2.45,0c1-.74,2-1.61,3.39-1.2A4,4,0,0,1,86.93,7.73Zm2.38-.11c.76-.87,3.09-1.7,3.85-1.28A4.37,4.37,0,0,1,89.31,7.62Zm2.71,0c1.06-.82,2.07-1.65,3.51-1.31l.15,0A4.77,4.77,0,0,1,92,7.57Zm2.61-.09A4.45,4.45,0,0,1,98.45,6.4,7.16,7.16,0,0,1,94.63,7.48Zm26.24,1.2c-1.33,1.86-4.47,2.7-6.68,2.78a29.82,29.82,0,0,1-8.74-2.31,29.63,29.63,0,0,0-7.23-1.86,6.24,6.24,0,0,1,.69-.11,7.56,7.56,0,0,0,1.41-.24c2-.61,4.92-1,6.41-2.63a.49.49,0,0,0,.16-.31.36.36,0,0,0-.34-.31c-1.4-.12-3.51.94-4.94,1.88a24.32,24.32,0,0,1,7-3.43c-.42.19-.89.46-.91.91a.85.85,0,0,0,.74.76c1.6.26,3.45-.86,5.14-.81a5.6,5.6,0,0,1,4.56,2.16A4.58,4.58,0,0,0,119.6,6.8c.32.15.79.14,1-.17a.85.85,0,0,0,0-.5,5.3,5.3,0,0,0-2.4-3.39c-2.28-1.5-5.16-1.44-7.77-1.23a11,11,0,0,1,6.81.13,8.38,8.38,0,0,1,3.21,1.57A4,4,0,0,1,120.87,8.68ZM110.05,1.9a10.71,10.71,0,0,1,6.5.34,6.55,6.55,0,0,1,2.73,1.81A4.17,4.17,0,0,1,120,5.36a4,4,0,0,1-.1,1.39s0,0,0,0C118.16,4,115.05,2,111.71,2.87a7.83,7.83,0,0,1-2.86.65C107.09,3.25,109.43,2.08,110.05,1.9Z"/></svg>