<svg id="Layer_1" data-name="Layer 1" xmlns="http://www.w3.org/2000/svg" viewBox="0 0 78.07 36.07"><defs><style>.cls-1{fill:#fff;}</style></defs><title>bar</title><path class="cls-1" d="M77.53,36.07H63.12V23.74l.11-.29V19.71h0v-2c.1-2.75-2.13-4.47-7-5.42-3.07-.61-6.9-1-12.89-1.55-9-.8-18.25.52-25.45,3.63A4.66,4.66,0,0,0,15,19.1c.08.68.33,1,.53,1,2.85.52,4.89,3.73,4.37,6.87-.23,1.38-1.62,5.78-9.78,4.52C10,31.52,0,29.86,0,20.66A17.39,17.39,0,0,1,5.42,7.9C11.61,2,22.64-.59,38.21.13,50.65.7,55.83,2.5,60.56,5.4c3.24,2,4.19,3.18,4.43,3.54a8.09,8.09,0,0,1,6,3.14c3.57,4.7,2.34,12.94,2.07,14.49a5.7,5.7,0,0,1,3.41,1.78c2.7,2.95,1.17,7.38,1.1,7.57Zm-14-.45H77.2c.24-.79,1.2-4.51-1-7A5.29,5.29,0,0,0,72.8,27h-.26l0-.26c0-.09,1.8-9.44-2-14.36a7.64,7.64,0,0,0-5.8-3h-.13l0-.12S64,8.06,60.32,5.78C55.54,2.85,50.6,1.15,38.19.58,22.75-.14,11.83,2.44,5.73,8.23A16.86,16.86,0,0,0,.45,20.66c0,8.82,9.65,10.42,9.74,10.44,5.23.81,8.7-.74,9.27-4.15.47-2.86-1.44-5.89-4-6.35-.46-.09-.8-.63-.89-1.45A5.08,5.08,0,0,1,17.64,14c7.26-3.13,16.62-4.46,25.67-3.65,6,.53,9.84.94,12.93,1.54,5.16,1,7.51,2.88,7.4,5.87h0v5.8l-.11.29Z"/><path class="cls-1" d="M21.84,21.75a.08.08,0,0,0,0,0c0,.14-.06.21-.17.27a2.33,2.33,0,0,1-.71.22,5.46,5.46,0,0,1-1.34,0,.43.43,0,0,1-.36-.4c0-.13,0-.26,0-.39V20.39a.43.43,0,0,1,.43-.46l.29,0H20a.11.11,0,0,0,0,0v-.62s0-.06-.05-.07a1.25,1.25,0,0,1-.6-.51,2.63,2.63,0,0,1-.45-1.27,3.28,3.28,0,0,1,.2-1.61,2.4,2.4,0,0,1,.38-.61,1,1,0,0,1,1.58,0,2.3,2.3,0,0,1,.54,1.21,3.26,3.26,0,0,1-.2,1.9A1.85,1.85,0,0,1,21,19a1,1,0,0,1-.22.14.17.17,0,0,0-.12.2c0,.18,0,.35,0,.53s0,.09.09.09a2.7,2.7,0,0,1,.88.21h0c.2.11.2.11.22.33h1.52s0,0,0-.07v-.59c0-.14,0-.15.15-.16h0v-.07c0-.19,0-.37,0-.55a.15.15,0,0,0,0-.1.35.35,0,0,1-.13-.27c-.05-.7-.09-1.39-.13-2.09,0-.29,0-.59-.05-.88a.76.76,0,0,1,1.16-.7.75.75,0,0,1,.36.7c0,.37,0,.73-.07,1.1,0,.62-.07,1.24-.11,1.86a.4.4,0,0,1-.14.29.15.15,0,0,0,0,.08v.56c0,.05,0,.07.07.07s.13,0,.13.14v.69h.54a.55.55,0,0,1,.56.56,1.77,1.77,0,0,1,0,.23.54.54,0,0,1-.53.48h-.35c0,.14,0,.27.05.41s.06.41.1.62a.14.14,0,0,1-.08.15l-.66.33c-.09,0-.13,0-.18-.06-.24-.45-.47-.91-.7-1.36,0-.07-.07-.09-.14-.09H21.84Zm-2.41-.63h0v.72a.26.26,0,0,0,.25.27,5.31,5.31,0,0,0,1.26,0,2.07,2.07,0,0,0,.64-.2s.06-.05.06-.1V20.44a.1.1,0,0,0-.06-.1,2,2,0,0,0-.63-.2,5.9,5.9,0,0,0-1.26,0,.25.25,0,0,0-.26.29Zm5.05-4.65h0c0-.13,0-.27,0-.41l0-.41a.57.57,0,1,0-1.14.06c0,.56.07,1.13.1,1.7,0,.41.05.82.08,1.23,0,.13.07.18.2.18h.38c.13,0,.19-.05.2-.18C24.39,17.92,24.44,17.2,24.48,16.47Zm-1,5.09h1.6a.37.37,0,0,0,.36-.37v-.13a.37.37,0,0,0-.39-.39H21.91c-.07,0-.08,0-.08.08,0,.24,0,.48,0,.72,0,.07,0,.09.1.09Zm-2-4.57h0c0-.23-.06-.47-.1-.7a2.12,2.12,0,0,0-.48-1,.81.81,0,0,0-1.27,0,1.44,1.44,0,0,0-.33.52A3.09,3.09,0,0,0,19.27,18a1.84,1.84,0,0,0,.44.75.78.78,0,0,0,1.17,0,1.82,1.82,0,0,0,.29-.38A2.87,2.87,0,0,0,21.51,17Zm2.63,6.07c.19-.09.37-.18.54-.28s0-.05,0-.07c0-.3-.09-.59-.12-.88,0-.06,0-.08-.09-.08h-1Zm.22-2.58v-.64h-.77s0,0,0,0v.58Zm-.19-.83v-.6s0,0,0,0h-.39c0,.21,0,.4,0,.6,0,0,0,0,0,0Zm-3.76.25v-.69h-.17v.68Z"/><path class="cls-1" d="M19.25,17a2.85,2.85,0,0,1,.35-1.34,1.44,1.44,0,0,1,.22-.27.68.68,0,0,1,1.05.08,1.85,1.85,0,0,1,.4.85,3.14,3.14,0,0,1-.07,1.61,1.57,1.57,0,0,1-.4.68.68.68,0,0,1-1-.05,1.75,1.75,0,0,1-.43-.91C19.3,17.42,19.28,17.2,19.25,17Zm.21,0a2.5,2.5,0,0,0,.23,1.12,1.07,1.07,0,0,0,.35.44.45.45,0,0,0,.55,0,1,1,0,0,0,.33-.43,2.74,2.74,0,0,0,.07-2,1.21,1.21,0,0,0-.37-.57.44.44,0,0,0-.61,0,1.25,1.25,0,0,0-.26.3A2.38,2.38,0,0,0,19.46,17Z"/><path class="cls-1" d="M28.58,20.21s0,0,0,0-.05.21-.17.27a2.18,2.18,0,0,1-.71.22,5.38,5.38,0,0,1-1.33,0,.43.43,0,0,1-.37-.41c0-.12,0-.25,0-.38,0-.38,0-.75,0-1.12a.42.42,0,0,1,.42-.46l.29,0h.08v-.67a.07.07,0,0,0,0-.08,1.24,1.24,0,0,1-.61-.5,2.63,2.63,0,0,1-.45-1.27,3.29,3.29,0,0,1,.21-1.61,2.12,2.12,0,0,1,.37-.61,1,1,0,0,1,1.58,0,2.36,2.36,0,0,1,.55,1.21,3.26,3.26,0,0,1-.21,1.9,1.72,1.72,0,0,1-.49.68.83.83,0,0,1-.22.14.18.18,0,0,0-.12.2,4.68,4.68,0,0,1,0,.53c0,.07,0,.08.09.09a2.42,2.42,0,0,1,.88.21h0c.2.1.2.1.22.33H30.1v-.67c0-.13,0-.14.15-.15h0s0,0,0-.06v-.56a.16.16,0,0,0-.05-.09.39.39,0,0,1-.13-.27L30,15l-.06-.88a.76.76,0,0,1,.38-.72.73.73,0,0,1,.78,0,.72.72,0,0,1,.36.71l-.06,1.1-.12,1.86a.37.37,0,0,1-.14.29.11.11,0,0,0,0,.08c0,.19,0,.38,0,.56s0,.07.07.07.13,0,.13.13,0,.46,0,.69h.54a.55.55,0,0,1,.56.56,1.76,1.76,0,0,1,0,.23.54.54,0,0,1-.53.47h-.36l.06.4.09.62a.12.12,0,0,1-.08.15l-.66.34c-.09.05-.13,0-.18-.06L30,20.29a.14.14,0,0,0-.14-.09H28.58Zm-2.4-.63h0v.72a.24.24,0,0,0,.24.27,5.4,5.4,0,0,0,1.27,0,2.07,2.07,0,0,0,.64-.2.12.12,0,0,0,.05-.1V18.9a.1.1,0,0,0-.06-.1,2,2,0,0,0-.63-.2,5.23,5.23,0,0,0-1.25,0c-.18,0-.26.1-.26.29Zm5.05-4.65h0l0-.41c0-.14,0-.27,0-.41a.55.55,0,0,0-.4-.56.58.58,0,0,0-.74.62c0,.56.07,1.13.11,1.7,0,.41.05.82.07,1.23a.17.17,0,0,0,.2.18h.39a.17.17,0,0,0,.19-.18C31.14,16.38,31.18,15.65,31.23,14.93Zm-1,5.09h1.6a.34.34,0,0,0,.35-.36v-.13a.36.36,0,0,0-.38-.39H28.65c-.06,0-.08,0-.07.08,0,.24,0,.47,0,.71,0,.08,0,.1.1.1Zm-2-4.58h0c0-.23-.05-.47-.1-.71a2.17,2.17,0,0,0-.47-1,.81.81,0,0,0-1.28,0,1.77,1.77,0,0,0-.33.52A3.15,3.15,0,0,0,26,16.46a1.84,1.84,0,0,0,.44.75.79.79,0,0,0,1.17,0,1.79,1.79,0,0,0,.3-.38A2.87,2.87,0,0,0,28.25,15.44Zm2.64,6.08.54-.28a.1.1,0,0,0,0-.08l-.12-.88c0-.06,0-.08-.09-.07h-1Zm.21-2.59V18.3h-.77s0,0,0,.06v.57Zm-.19-.82V17.5a0,0,0,0,0,0,0h-.39v.59a.07.07,0,0,0,0,.05Zm-3.75.25v-.69H27v.69Z"/><path class="cls-1" d="M26,15.45a2.81,2.81,0,0,1,.34-1.34,1.56,1.56,0,0,1,.23-.28.69.69,0,0,1,1.05.09,1.84,1.84,0,0,1,.39.85A3.14,3.14,0,0,1,28,16.38a1.58,1.58,0,0,1-.4.67.68.68,0,0,1-1,0,1.83,1.83,0,0,1-.43-.91C26,15.88,26,15.66,26,15.45Zm.21,0a2.58,2.58,0,0,0,.22,1.12,1.06,1.06,0,0,0,.36.45.44.44,0,0,0,.54,0,1,1,0,0,0,.34-.43,2.72,2.72,0,0,0,.06-2,1.14,1.14,0,0,0-.37-.57.44.44,0,0,0-.61,0,1,1,0,0,0-.25.3A2.27,2.27,0,0,0,26.21,15.42Z"/><path class="cls-1" d="M35.32,19.32v0c0,.15-.06.22-.17.28a2.33,2.33,0,0,1-.71.22,6,6,0,0,1-1.34,0,.44.44,0,0,1-.37-.4V18a.44.44,0,0,1,.42-.47l.3,0h.07s0,0,0-.06v-.61a.07.07,0,0,0-.05-.08,1.36,1.36,0,0,1-.61-.5A2.72,2.72,0,0,1,32.43,15a3.28,3.28,0,0,1,.2-1.61,2,2,0,0,1,.38-.61,1,1,0,0,1,1.58,0A2.5,2.5,0,0,1,35.13,14a3.26,3.26,0,0,1-.21,1.9,1.69,1.69,0,0,1-.48.67.78.78,0,0,1-.22.15.16.16,0,0,0-.12.19v.53c0,.07,0,.09.09.1a2.45,2.45,0,0,1,.88.2l0,0c.2.1.2.1.22.33h1.52s0-.05,0-.08v-.59c0-.13,0-.15.15-.15h0V16.6a.15.15,0,0,0,0-.09.4.4,0,0,1-.14-.28l-.12-2.09c0-.29,0-.58-.05-.88a.76.76,0,0,1,1.16-.7.75.75,0,0,1,.36.7c0,.37-.05.74-.07,1.11,0,.62-.08,1.23-.11,1.85a.43.43,0,0,1-.14.3.12.12,0,0,0,0,.08v.56c0,.05,0,.07.07.07s.13,0,.13.13v.69h.54a.54.54,0,0,1,.56.55,1.93,1.93,0,0,1,0,.24.53.53,0,0,1-.53.47h-.35c0,.15,0,.28.05.41l.09.62a.11.11,0,0,1-.07.15l-.66.34c-.09,0-.14,0-.18-.06l-.71-1.37a.13.13,0,0,0-.14-.09H35.32Zm-2.4-.63h0v.73a.24.24,0,0,0,.24.26,4.9,4.9,0,0,0,1.27,0,1.65,1.65,0,0,0,.64-.2.09.09,0,0,0,.06-.09q0-.68,0-1.35a.1.1,0,0,0-.06-.1,1.84,1.84,0,0,0-.64-.2,5.22,5.22,0,0,0-1.25,0,.26.26,0,0,0-.26.29Zm5-4.64h0c0-.14,0-.28,0-.41s0-.28,0-.41a.57.57,0,1,0-1.13,0c0,.57.07,1.14.1,1.7,0,.41.05.82.08,1.23,0,.13.07.18.19.19h.39c.13,0,.19-.06.19-.18C37.88,15.49,37.93,14.77,38,14.05Zm-1,5.08h1c.2,0,.4,0,.6,0a.36.36,0,0,0,.36-.36v-.13a.37.37,0,0,0-.39-.39H35.39c-.06,0-.07,0-.07.07V19c0,.08,0,.09.1.09Zm-2-4.57h0c0-.24,0-.48-.1-.71a1.94,1.94,0,0,0-.47-1,.8.8,0,0,0-1.27,0,1.51,1.51,0,0,0-.34.52,3.14,3.14,0,0,0-.07,2.22,1.8,1.8,0,0,0,.44.74.78.78,0,0,0,1.17,0,2.19,2.19,0,0,0,.29-.39A2.84,2.84,0,0,0,35,14.56Zm2.63,6.08.54-.28s0-.05,0-.08c0-.29-.09-.59-.13-.88,0-.06,0-.08-.08-.08H37Zm.22-2.59v-.63h-.78s0,0,0,.06v.57Zm-.19-.82c0-.21,0-.41,0-.61a0,0,0,0,0,0,0h-.39c0,.2,0,.4,0,.59a0,0,0,0,0,0,0Zm-3.76.24v-.69h-.17v.68Z"/><path class="cls-1" d="M32.74,14.56a2.81,2.81,0,0,1,.35-1.33,1.51,1.51,0,0,1,.22-.28.69.69,0,0,1,1,.09,1.86,1.86,0,0,1,.4.85,3.14,3.14,0,0,1-.07,1.61,1.49,1.49,0,0,1-.4.67.69.69,0,0,1-1,0,1.85,1.85,0,0,1-.42-.92C32.79,15,32.77,14.78,32.74,14.56Zm.21,0a2.45,2.45,0,0,0,.23,1.12,1,1,0,0,0,.35.45.47.47,0,0,0,.55,0,1.09,1.09,0,0,0,.33-.44,2.74,2.74,0,0,0,.07-2,1.28,1.28,0,0,0-.37-.57.45.45,0,0,0-.61,0,1.48,1.48,0,0,0-.26.3A2.33,2.33,0,0,0,33,14.54Z"/><path class="cls-1" d="M59.5,29.69c-2.56,0-5.65,0-5.68,0l-.08,0V24.81l.06,0c.22-.09,9,0,9,0l.08,0v4.81l-.07,0C62.75,29.68,61.25,29.69,59.5,29.69ZM54,29.45c.87,0,7.81,0,8.72,0V25c-.9,0-7.82,0-8.72,0Z"/><path class="cls-1" d="M55.58,31.09c-.83,0-1.69,0-1.76,0l-.08,0V31c0-.36,0-.72,0-1.1v-.3H62.9V31l-.07,0a32.7,32.7,0,0,1-3.43,0l-.1,0,0-.11a.3.3,0,0,0,0-.1.53.53,0,0,1,.22-.36s.07-.08.06-.17a.16.16,0,0,0-.12-.13A3.71,3.71,0,0,0,58.15,30c-.31,0-.63.08-1,.14a.21.21,0,0,0-.16.12.21.21,0,0,0,.05.2.91.91,0,0,1,.18.47V31l-.08,0A12.36,12.36,0,0,1,55.58,31.09ZM54,30.85c.47,0,2.54,0,3,0a.57.57,0,0,0-.11-.25.42.42,0,0,1-.09-.41.44.44,0,0,1,.33-.27c.32-.06.62-.11.91-.14H54v.09C54,30.2,53.94,30.52,54,30.85Zm5.63,0c.51,0,2.63,0,3.09,0V29.77H58.84a5.27,5.27,0,0,1,.73.15.4.4,0,0,1,.28.32.36.36,0,0,1-.17.4C59.61,30.68,59.6,30.74,59.58,30.84Z"/><path class="cls-1" d="M56,33.94l-1.65-.82L55.12,32c.17-.29.35-.57.53-.86a.34.34,0,0,1,.29-.17h1.2l.21,0ZM54.71,33l1.22.61L57,31.15H55.94a.1.1,0,0,0-.1.06l-.53.86Z"/><path class="cls-1" d="M63.9,28.7h-.42l0-.07a20.32,20.32,0,0,1,0-2.59l0-.08h.89v2.73H63.9Zm-.24-.23a3.53,3.53,0,0,0,.46,0v-2.3h-.47C63.62,26.57,63.63,28.1,63.66,28.47Z"/><path class="cls-1" d="M59.42,31.16l-.67-.33.07-.52h-.09l-1.45.33a.33.33,0,0,1-.42-.23.32.32,0,0,1,0-.27.33.33,0,0,1,.23-.17,6,6,0,0,1,.61-.13A4.52,4.52,0,0,1,59.5,30a.34.34,0,0,1,.28.28.36.36,0,0,1-.18.39s0,0-.05.08a1.52,1.52,0,0,0-.06.2ZM59,30.7l.29.14a.66.66,0,0,1,.06-.2.35.35,0,0,1,.14-.2.14.14,0,0,0,.08-.16s0-.07-.12-.1l-.36-.08ZM58.36,30a4,4,0,0,0-.6,0,4.12,4.12,0,0,0-.59.12.11.11,0,0,0-.08.06.12.12,0,0,0,0,.1.12.12,0,0,0,.16.07l1.45-.32a.76.76,0,0,1,.16,0h0A4.58,4.58,0,0,0,58.36,30Z"/><path class="cls-1" d="M57.3,31.28h-.13L57,30.55l2-.46-.05.3c0,.12,0,.24-.07.35a.2.2,0,0,1-.17.14l-1.39.4Zm0-.56.08.33,1.34-.38h0c0-.09,0-.18,0-.28Z"/><path class="cls-1" d="M53.52,31.09H53.3a.26.26,0,0,1-.18-.06.24.24,0,0,1-.06-.16c0-.38,0-.76,0-1.14a.19.19,0,0,1,0-.08l0-.1h.72l0,.16s0,.08,0,.11v1c0,.23-.06.29-.29.3Zm-.23-1.32v1.1h.36a.17.17,0,0,0,0-.07v-1s0,0,0,0Z"/><path class="cls-1" d="M63.2,31.09H63a.21.21,0,0,1-.23-.21c0-.38,0-.77,0-1.16a.19.19,0,0,1,0-.08l0-.06.08,0h.65l0,.15s0,.08,0,.12v1c0,.22-.07.28-.29.29ZM63,30.86h.36V29.77H63Z"/><path class="cls-1" d="M55.64,34.21l-.2-.1-.36-.19L55,33.87l-.36-.18a.29.29,0,0,1-.2-.33v-.3h.12a8.65,8.65,0,0,1,1.44.7l.11.09Zm-1-.88v.05a.09.09,0,0,0,.07.11l.37.18.09,0,.36.19.07,0,.12-.09C55.47,33.71,54.91,33.44,54.65,33.33Z"/><path class="cls-1" d="M57.89,31.46a1,1,0,0,1-.32-.06l-.17,0-.08,0,0-.18.09-.06.77-.22.18-.05.32-.09a.41.41,0,0,1,.36,0l.18.09.31.16-.27.12-.09,0-.4.1-.71.16A.39.39,0,0,1,57.89,31.46Zm-.11-.24a.45.45,0,0,0,.2,0l.71-.17L59,31l0,0a.22.22,0,0,0-.18,0l-.33.1-.18.05Z"/><path class="cls-1" d="M53.86,29.68h-.77l0-.16c0-.05,0-.09,0-.13V17.66c0-.24.06-.3.31-.3H63.49l0,.06c.08.18,0,12.07,0,12.15l0,.08h-.75V29.5a.76.76,0,0,1,0-.15V25a.49.49,0,0,0,0-.12H53.89a.37.37,0,0,0,0,.11v4.32a.92.92,0,0,1,0,.16Zm-.57-.23h.36s0-.07,0-.11V25a.81.81,0,0,1,0-.16v-.18H63l0,.18v4.49s0,.07,0,.1h.35c0-1.06,0-10.82,0-11.86h-10V29.45Zm6.62-4.84H56.73v-.76a.22.22,0,0,1,.15-.18.34.34,0,0,1,.14,0h2.57c.26,0,.32.05.32.32Zm-3-.23h2.73v-.5H57v.5Z"/><path class="cls-1" d="M57.65,24.56H56.8v-.81h1.58v.81h-.73ZM57,24.33h1.13V24H57Z"/><path class="cls-1" d="M59.83,24.54H58.25v-.81h1.58Zm-1.35-.22H59.6V24H58.48Z"/><path class="cls-1" d="M33.07,24.8c0,.1,0,.22,0,.36s0,.31,0,.49,0,.39,0,.6,0,.44,0,.67a3.72,3.72,0,0,1,.4-.2l.49-.2a4.9,4.9,0,0,0,.52-.24,3.07,3.07,0,0,0,.47-.28,4.86,4.86,0,0,0,.79-.73,1,1,0,0,0,.26-.6.5.5,0,0,0-.13-.34,1.6,1.6,0,0,0-.39-.13,3.91,3.91,0,0,0-.65-.05,4.37,4.37,0,0,0-.72.06c-.24,0-.47.08-.69.13l-.63.19-.52.18-.36.15-.17.08-.06,0a.13.13,0,0,1-.08,0,.1.1,0,0,1-.1-.06.25.25,0,0,1,0-.12.16.16,0,0,1-.07-.07.37.37,0,0,1-.05-.11.36.36,0,0,1,0-.11.28.28,0,0,1,0-.08.3.3,0,0,1,.1-.21,1.13,1.13,0,0,1,.27-.16l.17-.08.35-.14.48-.18c.17-.06.36-.12.56-.17a6.19,6.19,0,0,1,.62-.13,3.35,3.35,0,0,1,.63-.05l.48,0a2.75,2.75,0,0,1,.5.09,1.91,1.91,0,0,1,.47.18,1.06,1.06,0,0,1,.36.31,1,1,0,0,1,.41.86,2.29,2.29,0,0,1,0,.39c0,.11,0,.19-.07.24a2.58,2.58,0,0,1-.38.65,3.12,3.12,0,0,1-.51.46,3.92,3.92,0,0,1-.54.33l-.49.22a4.26,4.26,0,0,1,.5,0,3,3,0,0,1,.51.08,2,2,0,0,1,.48.18,1.8,1.8,0,0,1,.43.29l.23.3a2.53,2.53,0,0,1,.16.33,1.1,1.1,0,0,1,.07.41,1.47,1.47,0,0,1,0,.32,4.14,4.14,0,0,1,0,.45,2.86,2.86,0,0,1-.14.51,2.63,2.63,0,0,1-.36.61,3.68,3.68,0,0,1-.63.61,3.9,3.9,0,0,1-1,.51,3.54,3.54,0,0,1-.66.21,2.78,2.78,0,0,1-.54.06,1.23,1.23,0,0,1-.26,0,1,1,0,0,1-.25-.07.63.63,0,0,1-.2-.1.18.18,0,0,1-.07-.15.08.08,0,0,0,0-.07l-.07-.05a.91.91,0,0,1-.06.16.36.36,0,0,1-.08.09.24.24,0,0,1-.09.06h0a.1.1,0,0,1-.06-.05.37.37,0,0,1-.06.1.1.1,0,0,1-.07.05h-.05s0,0-.06-.08a1.3,1.3,0,0,1-.06-.25,4.34,4.34,0,0,1-.06-.55c0-.25,0-.56,0-1s0-.88,0-1.46V27.11c0-.25,0-.49,0-.73s0-.44,0-.63a4.2,4.2,0,0,1,.07-.48.6.6,0,0,1,.1-.26.38.38,0,0,1,.17-.11l.23-.1.2-.07c.06,0,.09,0,.08,0a.1.1,0,0,1,0,0A.14.14,0,0,1,33.07,24.8Zm.2,3a.24.24,0,0,1-.12,0L33,27.63l0,1c0,.32,0,.63,0,.92s0,.56,0,.81,0,.45,0,.61a1.37,1.37,0,0,1,.15-.21l.16-.18.14-.12a.29.29,0,0,1,.1-.05h0l0,.05h0a.07.07,0,0,1,.07,0,.24.24,0,0,1,0,.15.15.15,0,0,1,0,.11.3.3,0,0,1-.08.08l-.08.08a.13.13,0,0,0-.06.07h.23l.21,0a2.06,2.06,0,0,0,.41-.09,3.46,3.46,0,0,0,.58-.23,4.62,4.62,0,0,0,.71-.44,2.89,2.89,0,0,0,.53-.51,2.09,2.09,0,0,0,.31-.49,1.6,1.6,0,0,0,.14-.4,1,1,0,0,0,0-.25.72.72,0,0,0-.19-.39,1.26,1.26,0,0,0-.42-.3,2.91,2.91,0,0,0-.61-.2,4.56,4.56,0,0,0-.76-.07,3.43,3.43,0,0,0-.48,0l-.37.07-.26.07A.72.72,0,0,1,33.27,27.78Z"/><path class="cls-1" d="M41.41,28.39a4.89,4.89,0,0,1,0,.49c0,.19-.06.4-.1.62l-.09.68a3.77,3.77,0,0,0,0,.65,2.38,2.38,0,0,0,0,.39.87.87,0,0,0,.1.31.43.43,0,0,1,0,.14.31.31,0,0,1,0,.1.64.64,0,0,1,0,.07.06.06,0,0,0,0,.06s0,0,0,.07l-.05.07-.08.05a.11.11,0,0,1-.08,0,.19.19,0,0,0-.1,0H40.9l0,0a0,0,0,0,1-.05,0l-.21-.12a.27.27,0,0,1-.15-.15.23.23,0,0,1,0-.11,1.06,1.06,0,0,1,0-.19,1.94,1.94,0,0,1,0-.24,2.29,2.29,0,0,1,0-.25,2.86,2.86,0,0,1-.41.6,2.36,2.36,0,0,1-.43.37,1.5,1.5,0,0,1-.43.2,1.42,1.42,0,0,1-.38.06,1,1,0,0,1-.32,0,1,1,0,0,1-.21-.11,4,4,0,0,1-.4-.46.48.48,0,0,1-.11-.29,1.9,1.9,0,0,1,.18-.68,2.76,2.76,0,0,1,.38-.58,3.71,3.71,0,0,1,.5-.47,6.27,6.27,0,0,1,.57-.38,4.26,4.26,0,0,1,.58-.27,4,4,0,0,1,.51-.18c0-.21,0-.39,0-.55a1.65,1.65,0,0,0,0-.34,1.05,1.05,0,0,0-.26-.54.59.59,0,0,0-.43-.17.56.56,0,0,0-.33.12,1.21,1.21,0,0,0-.3.33,1.78,1.78,0,0,0-.22.48,2.12,2.12,0,0,0-.08.57v.14a.77.77,0,0,0,0,.15.05.05,0,0,1,0,.05s0,0-.08,0h-.09l-.09,0,0,0h0l0,0L38.19,29l-.09-.06-.09,0-.06,0s0,0,0,0a1.87,1.87,0,0,1,.16-.74,2.75,2.75,0,0,1,.43-.69,2.38,2.38,0,0,1,.62-.52,1.57,1.57,0,0,1,.76-.2,1.4,1.4,0,0,1,.56.1,1.36,1.36,0,0,1,.4.25,1.31,1.31,0,0,1,.27.35,1.43,1.43,0,0,1,.17.38,2.83,2.83,0,0,1,.09.37A1.58,1.58,0,0,1,41.41,28.39Zm-1,1-.38.17a3.09,3.09,0,0,0-.42.25,5.29,5.29,0,0,0-.43.32,3.78,3.78,0,0,0-.39.41,2.06,2.06,0,0,0-.32.47.93.93,0,0,0-.12.34.39.39,0,0,0,0,.22.14.14,0,0,0,.08.1.52.52,0,0,0,.37,0,1.17,1.17,0,0,0,.39-.19,2.92,2.92,0,0,0,.37-.34c.13-.14.24-.27.35-.41s.2-.28.29-.42.15-.25.2-.35Z"/><path class="cls-1" d="M45.15,27.62l0,.33a2.81,2.81,0,0,1-.08.31.89.89,0,0,1-.11.26.58.58,0,0,1-.15.19.17.17,0,0,1-.11.06.09.09,0,0,1-.06,0l0,0s0,0,0,0a.06.06,0,0,0-.06,0,.11.11,0,0,1-.08,0,.13.13,0,0,1-.07,0,.34.34,0,0,1,0-.14.92.92,0,0,1,0-.28c0-.12,0-.23,0-.35a.9.9,0,0,0,0-.25.13.13,0,0,0-.12-.1.42.42,0,0,0-.14.06.88.88,0,0,0-.22.26,2.7,2.7,0,0,0-.24.57,5.51,5.51,0,0,0-.2,1c0,.53,0,1,0,1.28s0,.58,0,.76a2.83,2.83,0,0,1,0,.33c0,.06,0,.11,0,.12a.35.35,0,0,1-.12.05L43,32l-.18,0h-.11l-.06,0-.1-.08-.09-.09a.18.18,0,0,1,0-.09,1.43,1.43,0,0,1,0-.26V31c0-.19,0-.41,0-.63s0-.46,0-.69,0-.31,0-.49,0-.36,0-.54,0-.37,0-.55,0-.33,0-.47,0-.26,0-.36,0-.15,0-.17,0,0,0,0l.08,0,.08.05s0,0,.05,0,0,0,.08,0l.14.08.06.05.06.05a.36.36,0,0,1,.05.09.44.44,0,0,1,0,.13c0,.06,0,.14,0,.25s0,.23,0,.38a4.59,4.59,0,0,1,.15-.44,1.86,1.86,0,0,1,.22-.42A1.18,1.18,0,0,1,44,27a.69.69,0,0,1,.41-.12.65.65,0,0,1,.27.05.75.75,0,0,1,.24.15.74.74,0,0,1,.17.25A.81.81,0,0,1,45.15,27.62Z"/></svg>