<svg id="Layer_1" data-name="Layer 1" xmlns="http://www.w3.org/2000/svg" viewBox="0 0 45.06 34.81"><defs><style>.cls-1{fill:#fff;}.cls-2{fill:none;stroke:#fff;stroke-miterlimit:10;stroke-width:0.5px;}</style></defs><title>F1</title><path class="cls-1" d="M36.4,10.62h-.11v9h3.42c.84,0,1.91.05,2.62,0h.25a1.37,1.37,0,0,0,.79-.36,5.26,5.26,0,0,0,1.44-4.15c0-2.85-1.44-4.4-2-4.51H40C37.44,10.62,36.52,10.6,36.4,10.62Zm8.08,4.52a5,5,0,0,1-1.33,3.91,1,1,0,0,1-.6.28h-6V10.94h6.19C43.07,11,44.48,12.3,44.48,15.14Z"/><path class="cls-1" d="M36.4,1h-.11v9h6.29a1.31,1.31,0,0,0,.79-.36A5.26,5.26,0,0,0,44.8,5.55c0-2.86-1.44-4.4-2-4.52H40Zm8.08,4.53a5,5,0,0,1-1.33,3.9,1,1,0,0,1-.6.28h-6V1.32h6.19c.34.1,1.75,1.38,1.75,4.23Z"/><rect class="cls-2" x="16.61" y="1.89" width="17" height="17"/><path class="cls-2" d="M.26.31V29.19a5.08,5.08,0,0,0,5.07,5.07H31.16v-2.1H7a4.84,4.84,0,0,1-4.82-4.82V.31"/><polyline class="cls-2" points="31.16 32.16 31.16 22.54 13.1 22.54 13.1 0.31"/><line class="cls-2" x1="13.35" y1="0.31" x2="0.01" y2="0.31"/><path class="cls-1" d="M26.31,10.4l-.1.07a.19.19,0,0,0-.07.11v.14a.16.16,0,0,1-.1.11H23.66L23,11v3.19a1,1,0,0,1,0,.25.21.21,0,0,1-.14.16l-.15.06a.34.34,0,0,1-.14.05h-.33a.21.21,0,0,1-.06-.1.78.78,0,0,1-.05-.14.67.67,0,0,1,0-.2,2.23,2.23,0,0,1-.05-.36V12.53a5.88,5.88,0,0,1,.06-1l.09-1.07a7,7,0,0,1,.1-1c0-.29.05-.59.08-.83a2.77,2.77,0,0,0,0-.51V7.41H22a.48.48,0,0,1-.17,0l-.14-.07a.52.52,0,0,1-.11-.1.15.15,0,0,1-.06-.09V7h.08V6.9h.58l.27-.05h4.27l.22.06.13.07h.07V7l.07.07h0v.31a.17.17,0,0,0,0,.1v.11a.06.06,0,0,1,0,.08H23.33c0,.6-.08,1.13-.1,1.58a7.8,7.8,0,0,1-.06,1.08l.6-.1.48,0h1.88a.36.36,0,0,1,.25.23l.06.16C26.33,10.34,26.33,10.38,26.31,10.4Z"/><path class="cls-1" d="M28.85,14.23a.62.62,0,0,1,0,.33c0,.06-.06.09-.1.1h-.27a.28.28,0,0,1-.18,0l-.27-.1-.14-.06h-.06V6.9a.29.29,0,0,1,0-.13h.07a.14.14,0,0,0,.09,0h.31l.14.06a.33.33,0,0,1,.11.15.54.54,0,0,1,0,.18v6.71A2.6,2.6,0,0,0,28.85,14.23Z"/></svg>