<svg id="Layer_1" data-name="Layer 1" xmlns="http://www.w3.org/2000/svg" viewBox="0 0 45.06 21.46"><defs><style>.cls-1{fill:none;stroke:#fff;stroke-miterlimit:10;stroke-width:0.5px;}.cls-2{fill:#fff;}</style></defs><title>F2</title><line class="cls-1" x1="13.34" y1="0.31" y2="0.31"/><path class="cls-2" d="M36.4,11.09h-.11v0h0l0,.11c0,5.14,0,8.59,0,8.77l0,.11h0v0h.11c.13,0,2.08,0,3.3,0,.84,0,1.91.05,2.62,0h.25a1.38,1.38,0,0,0,.79-.36,5.29,5.29,0,0,0,1.44-4.15c0-2.86-1.44-4.4-2-4.52-.09,0-.62,0-2.82,0C37.44,11.08,36.52,11.07,36.4,11.09Zm8.08,4.52a5,5,0,0,1-1.33,3.91,1.13,1.13,0,0,1-.6.28h-6c0-.81,0-3.79,0-8.39h6.19C43.07,11.49,44.48,12.77,44.48,15.61Z"/><path class="cls-2" d="M36.4,1.49h-.11v0h0l0,.11c0,5.14,0,8.59,0,8.78l0,.11h.12c.13,0,2.08,0,3.3,0,.84,0,1.91.05,2.62,0h.25a1.38,1.38,0,0,0,.79-.36A5.29,5.29,0,0,0,44.8,6c0-2.86-1.44-4.4-2-4.52-.09,0-.62,0-2.82,0C37.44,1.48,36.52,1.47,36.4,1.49ZM44.48,6a5,5,0,0,1-1.33,3.91,1,1,0,0,1-.6.28h-.29v0H36.54c0-.8,0-3.79,0-8.39h6.19C43.07,1.89,44.48,3.17,44.48,6Z"/><rect class="cls-1" x="16.61" y="2.19" width="17" height="17"/><line class="cls-1" x1="2.17" y1="21.22" x2="2.17" y2="0.31"/><line class="cls-1" x1="0.26" y1="0.31" x2="0.26" y2="21.22"/><line class="cls-1" x1="13.1" y1="21.22" x2="13.1" y2="0.31"/><line class="cls-1" x1="13.1" y1="0.31" x2="2.17" y2="0.31"/><line class="cls-1" x1="13.35" y1="21.22" x2="0.01" y2="21.22"/><path class="cls-2" d="M24.19,10.37l-.1.07a.19.19,0,0,0-.07.11,1,1,0,0,1,0,.14.16.16,0,0,1-.1.11l-.21,0-.39,0-.47,0h-.43l-.37,0-.47,0a6.34,6.34,0,0,0-.65.07c0,.22,0,.45,0,.69s0,.48,0,.71v1.78a.55.55,0,0,1,0,.25.24.24,0,0,1-.15.16l-.15.06a.35.35,0,0,1-.13.05h-.22l-.11,0a.17.17,0,0,1-.07-.1c0-.05,0-.1,0-.14a.72.72,0,0,1-.05-.2c0-.09,0-.21-.05-.36s0-.36,0-.61,0-.46,0-.77,0-.64.06-1L20,10.42c0-.37.07-.71.1-1s.06-.59.08-.83,0-.41.05-.51l0-.24a2.15,2.15,0,0,1,0-.23,1.94,1.94,0,0,0,0-.24h-.35a.48.48,0,0,1-.17,0l-.15-.07a.52.52,0,0,1-.11-.1A.14.14,0,0,1,19.43,7a.06.06,0,0,1,0-.06.1.1,0,0,1,0,0s0,0,.07,0a.23.23,0,0,1,0-.14s0,0,0,0l.1,0a.31.31,0,0,0,.1,0l.05,0,.08,0a.2.2,0,0,1,.08,0l.05,0,.12,0,.27,0,.35-.05.37,0,.42,0,.67,0,.8,0h1.33l.33,0,.23.06.13.07s0,0,.06,0v0a0,0,0,0,1,0,0,.16.16,0,0,1,0,.06s.07,0,.07.07a.08.08,0,0,1,0,0s0,0,0,.07l0,.12s0,.08,0,.12v.1a.53.53,0,0,1,0,.12.09.09,0,0,1,0,.07h0a.23.23,0,0,1-.11,0s0,0,0,0h-.24l-.41,0-.57,0h-1l-.38,0-.59,0-.58,0c0,.61-.08,1.13-.1,1.58s0,.8,0,1.08c.21,0,.41-.08.6-.1L22,9.83l.43,0h.49l.43,0,.32,0,.2,0a.35.35,0,0,1,.16.09.38.38,0,0,1,.09.14.82.82,0,0,1,.06.16A.1.1,0,0,1,24.19,10.37Z"/><path class="cls-2" d="M30.74,14.52l-.84,0H28c-.39,0-.76,0-1.09,0s-.61,0-.85.07a4.78,4.78,0,0,0-.58.08.87.87,0,0,0-.25.08l-.08.07s0,0,0,0L25,14.69s0-.11.05-.19a1.67,1.67,0,0,1,.29-.31l.61-.57c.25-.22.52-.48.82-.78s.61-.62.92-1a12.84,12.84,0,0,0,.92-1.16,6.36,6.36,0,0,0,.59-1,3,3,0,0,0,.28-.82,1.84,1.84,0,0,0,0-.66,1,1,0,0,0-.22-.46,1.1,1.1,0,0,0-.39-.31,1.92,1.92,0,0,0-.51-.18,3.43,3.43,0,0,0-.56-.07,2.31,2.31,0,0,0-.84.12,2.61,2.61,0,0,0-.64.36,1.36,1.36,0,0,0-.38.46.55.55,0,0,0-.06.42.33.33,0,0,0,.19.21.73.73,0,0,0,.3.06l.27,0A1.07,1.07,0,0,0,27,8.74a1.15,1.15,0,0,0,.25-.12,1.08,1.08,0,0,0,.2-.16s.06-.05.08,0,0,0,0,.05a.25.25,0,0,1,0,.08.15.15,0,0,1,0,.09l-.06.07.08,0a.18.18,0,0,1,.09.1.21.21,0,0,1,0,.19.08.08,0,0,0,0,0l0,.05,0,.06a.14.14,0,0,1-.07.06,1.39,1.39,0,0,1-.85.31,1.11,1.11,0,0,1-.44-.08,1.34,1.34,0,0,1-.37-.22A1.54,1.54,0,0,1,25.46,9a1.07,1.07,0,0,1-.14-.36,1.15,1.15,0,0,1,0-.41,2.34,2.34,0,0,1,.18-.48,2.83,2.83,0,0,1,.34-.48,2.56,2.56,0,0,1,.49-.43,3,3,0,0,1,.65-.3,2.53,2.53,0,0,1,.8-.12,3.46,3.46,0,0,1,1.1.14,1.88,1.88,0,0,1,.73.39,1.82,1.82,0,0,1,.44.59,3.68,3.68,0,0,1,.24.73,1.42,1.42,0,0,1,0,.65,2.69,2.69,0,0,1-.22.68,5.09,5.09,0,0,1-.38.68c-.15.23-.3.45-.46.66l-.48.59-.41.5c-.16.2-.31.38-.45.53l-.4.4-.33.34a2.7,2.7,0,0,0-.28.31,7.28,7.28,0,0,1,.88-.11c.32,0,.63,0,.93,0l.57,0,.48,0,.37.05a.64.64,0,0,1,.21.05.3.3,0,0,1,.11.07l.06.06,0,.06.05,0a.36.36,0,0,1,.08.12s0,.08-.06.1-.07,0-.07.06,0,.08.11.15a2,2,0,0,1,.19.23C30.88,14.51,30.84,14.53,30.74,14.52Z"/></svg>