<svg id="Layer_1" data-name="Layer 1" xmlns="http://www.w3.org/2000/svg" viewBox="0 0 45.06 34.61"><defs><style>.cls-1{fill:#fff;}.cls-2{fill:none;stroke:#fff;stroke-miterlimit:10;stroke-width:0.5px;}</style></defs><title>F3</title><path class="cls-1" d="M36.39,24.4h-.11v0h0v.11c0,5.15-.06,8.6,0,8.78l0,.11h.13c.13,0,2.07,0,3.29,0,.84,0,1.91.05,2.62,0l.25,0a1.29,1.29,0,0,0,.79-.36c1-.83,1.44-2.22,1.44-4.15,0-2.85-1.44-4.4-2-4.51-.09,0-.62,0-2.82,0C37.43,24.4,36.51,24.38,36.39,24.4Zm8.08,4.52c0,1.83-.44,3.14-1.33,3.91a1,1,0,0,1-.6.28l-.25,0h0v0H36.54c0-.8,0-3.79,0-8.39h6.19C43.06,24.8,44.47,26.08,44.47,28.92Z"/><path class="cls-1" d="M36.39,14.81h-.13v.1c0,5.15-.06,8.6,0,8.78l0,.11h.13c.13,0,2.07,0,3.29,0,.84,0,1.91.05,2.62,0l.25,0a1.29,1.29,0,0,0,.79-.36c1-.83,1.44-2.22,1.44-4.14,0-2.86-1.44-4.4-2-4.52-.09,0-.62,0-2.82,0C37.43,14.8,36.51,14.79,36.39,14.81Zm8.08,4.52c0,1.82-.44,3.14-1.33,3.9a1,1,0,0,1-.6.28l-.25,0h0v0H36.54c0-.8,0-3.79,0-8.39h6.19C43.06,15.2,44.47,16.48,44.47,19.33Z"/><rect class="cls-2" x="16.6" y="15.63" width="17" height="17"/><path class="cls-2" d="M2.16,34.36V7.43A4.84,4.84,0,0,1,7,2.6H30.8V.47H5.32A5.08,5.08,0,0,0,.25,5.53V34.36"/><polyline class="cls-2" points="13.09 34.36 13.09 12.54 30.8 12.54 30.8 2.6"/><line class="cls-2" x1="13.34" y1="34.36" y2="34.36"/><path class="cls-1" d="M24.18,23.59l-.1.08a.23.23,0,0,0-.07.1l0,.15a.17.17,0,0,1-.11.11l-.21,0-.39,0-.47,0H22l-.46,0-.66.07c0,.22,0,.46,0,.7s0,.47,0,.71,0,.46,0,.67v1.11a.53.53,0,0,1,0,.24.25.25,0,0,1-.14.17l-.16.06a.28.28,0,0,1-.13,0h-.22a.22.22,0,0,1-.11-.05.15.15,0,0,1-.07-.1,1.21,1.21,0,0,0-.05-.14,1.24,1.24,0,0,1-.05-.19c0-.09,0-.21-.05-.36s0-.36,0-.61a6.83,6.83,0,0,1,0-.77q0-.47.06-1c0-.35.05-.71.08-1.08s.07-.7.1-1,.06-.59.08-.83,0-.41.06-.51a1.94,1.94,0,0,1,0-.24,1.64,1.64,0,0,0,0-.23l0-.24H19.9l-.17,0a.71.71,0,0,1-.15-.08l-.11-.09a.14.14,0,0,1,0-.09.16.16,0,0,1,0-.07l0-.05.08,0a.19.19,0,0,1,0-.14s0,0,0,0l.09,0a.3.3,0,0,0,.1,0l.05,0,.08,0,.08,0,.05,0,.12,0,.27-.05.36-.06.36,0,.42,0,.68,0,.79,0h1.33a1.21,1.21,0,0,1,.33,0l.23.06.13.06a.17.17,0,0,1,.06.06.08.08,0,0,1,0,0,0,0,0,0,1,0,0,.14.14,0,0,1,0,.06.23.23,0,0,1,.07.07v0a.31.31,0,0,1,0,.08l0,.11a.51.51,0,0,1,0,.13.22.22,0,0,0,0,.09.74.74,0,0,1,0,.12.11.11,0,0,1,0,.08h-.14s0,0,0,0h-.24l-.42,0-.56,0h-1l-.38,0-.59,0-.58,0c0,.6-.07,1.13-.1,1.57s0,.81-.05,1.09a5,5,0,0,1,.6-.1l.48-.06.43,0h.49l.43,0a1.55,1.55,0,0,1,.33,0l.19,0a.4.4,0,0,1,.16.08.56.56,0,0,1,.1.15,1.42,1.42,0,0,1,.05.16C24.21,23.54,24.21,23.57,24.18,23.59Z"/><path class="cls-1" d="M28.2,23a5.29,5.29,0,0,1,.61.11c.21.06.41.12.62.2a4.6,4.6,0,0,1,.59.29,2.68,2.68,0,0,1,.48.4,1.73,1.73,0,0,1,.34.52,1.67,1.67,0,0,1,.12.65,2.24,2.24,0,0,1-.38,1.21,3.36,3.36,0,0,1-1.14,1.06,2.81,2.81,0,0,1-.55.27,3.72,3.72,0,0,1-.59.2,4.21,4.21,0,0,1-.6.11,4.12,4.12,0,0,1-.6,0,3.56,3.56,0,0,1-.57,0,2.61,2.61,0,0,1-.5-.11,2.22,2.22,0,0,1-.41-.19,1.08,1.08,0,0,1-.3-.26,1.41,1.41,0,0,1-.21-.4A1,1,0,0,1,25,26.7a1.12,1.12,0,0,1,.09-.44,1.88,1.88,0,0,1,.6-.7,2.48,2.48,0,0,1,.4-.26,3,3,0,0,1,.41-.19,2.45,2.45,0,0,1,.37-.11.39.39,0,0,1,.17,0s0,0,0,0a.21.21,0,0,1,0,.06l-.07.05-.49.26a1.84,1.84,0,0,0-.66.54,1,1,0,0,0-.2.54.5.5,0,0,0,.11.34A.79.79,0,0,0,26,27a1.36,1.36,0,0,0,.36.1l.37,0a3.09,3.09,0,0,0,.78-.1,3.88,3.88,0,0,0,.79-.27,4.13,4.13,0,0,0,.72-.39,3.53,3.53,0,0,0,.58-.48,2,2,0,0,0,.36-.52.89.89,0,0,0,.05-.53,1.46,1.46,0,0,0-.34-.68,1.93,1.93,0,0,0-.57-.41,2.55,2.55,0,0,0-.68-.2,5.6,5.6,0,0,0-.69-.05,4.38,4.38,0,0,0-.67,0l-.37.05a.25.25,0,0,1-.18,0,.17.17,0,0,1-.07-.1.4.4,0,0,1,0-.15.81.81,0,0,0,0-.16c0-.05,0-.08,0-.09s0,0,0,0,0,0,0,0l.11-.09a1.47,1.47,0,0,1,.33-.13l.57-.18c.22-.07.44-.16.68-.26a3.31,3.31,0,0,0,.64-.36,3.7,3.7,0,0,0,.4-.34,2.05,2.05,0,0,0,.25-.29,1.26,1.26,0,0,0,.13-.26.59.59,0,0,0,0-.21.34.34,0,0,0,0-.18.57.57,0,0,0-.08-.13.28.28,0,0,0-.1-.09.2.2,0,0,0-.08,0,1.51,1.51,0,0,0-.39,0,3.08,3.08,0,0,0-.72.09,4.79,4.79,0,0,0-.73.24,4.51,4.51,0,0,0-.62.33,1.62,1.62,0,0,0-.4.37s0,.06,0,.06a.41.41,0,0,0,.16,0l.24-.05.27-.08.25-.07.17-.06h.06a.08.08,0,0,1,0,0l0,.07-.07.09a.22.22,0,0,0,0,.1s0,.05-.06.08l-.12.13-.07.12a.35.35,0,0,1-.06.09A.08.08,0,0,1,27,22l-.17.07-.21.07-.22.05-.22,0a.65.65,0,0,1-.31-.08.55.55,0,0,1-.24-.29.71.71,0,0,1,0-.48,1.34,1.34,0,0,1,.31-.53,3,3,0,0,1,.59-.5,4.6,4.6,0,0,1,.86-.44,4,4,0,0,1,.65-.2,4.13,4.13,0,0,1,.57-.05,2.81,2.81,0,0,1,.43,0,1.69,1.69,0,0,1,.34.09,1.18,1.18,0,0,1,.25.1.55.55,0,0,1,.16.12,1,1,0,0,1,.2.22,1.27,1.27,0,0,1,.13.22,2.29,2.29,0,0,1,.1.23c0,.07.07.14.11.2a.5.5,0,0,1,.07.39,1,1,0,0,1-.21.4,2.48,2.48,0,0,1-.4.39c-.16.13-.34.25-.52.37l-.56.32Z"/></svg>