<svg id="Layer_1" data-name="Layer 1" xmlns="http://www.w3.org/2000/svg" viewBox="0 0 21.43 21.65"><defs><style>.cls-1{fill:#fff;}.cls-2{fill:none;stroke:#fff;stroke-miterlimit:10;stroke-width:0.5px;}</style></defs><title>F4</title><path class="cls-1" d="M20.57,13.05v-.11h0v0h-.1c-5.15,0-8.6-.06-8.78,0l-.11,0h0v.11c0,.13,0,2.07,0,3.29,0,.84-.06,1.91,0,2.62l0,.25a1.24,1.24,0,0,0,.36.79c.82,1,2.22,1.44,4.14,1.44,2.86,0,4.4-1.44,4.52-2,0-.09,0-.61,0-2.82C20.58,14.09,20.59,13.17,20.57,13.05Zm-4.52,8.08c-1.82,0-3.14-.44-3.9-1.33a1,1,0,0,1-.28-.6l0-.25v0h0V13.2c.8,0,3.79,0,8.38,0v6.19C20.18,19.72,18.9,21.13,16.05,21.13Z"/><path class="cls-1" d="M8.61,9.86h.11v0h0l0-.11c0-5.15.05-8.6,0-8.78l0-.11H8.61c-.13,0-2.08,0-3.3,0-.84,0-1.9,0-2.62,0l-.25,0a1.32,1.32,0,0,0-.79.36A5.27,5.27,0,0,0,.21,5.33c0,2.86,1.44,4.41,2,4.52.09,0,.62,0,2.83,0C7.58,9.86,8.49,9.88,8.61,9.86ZM.53,5.33a5,5,0,0,1,1.33-3.9,1,1,0,0,1,.6-.28l.25,0h0v0H8.47c0,.8,0,3.79,0,8.39H2.27C1.94,9.46.53,8.18.53,5.33Z"/><rect class="cls-2" x="10.91" y="0.2" width="10.27" height="10.27"/><path class="cls-1" d="M15.49,5l-.06,0a.16.16,0,0,0,0,.07.64.64,0,0,0,0,.09.09.09,0,0,1-.07.06l-.12,0-.24,0h-.77l-.28,0-.39,0c0,.14,0,.28,0,.42v.43c0,.15,0,.28,0,.41v.67a.26.26,0,0,1,0,.15.14.14,0,0,1-.08.1l-.1,0-.08,0h-.13a.11.11,0,0,1-.07,0,.09.09,0,0,1,0-.06l0-.08,0-.12c0-.06,0-.13,0-.22s0-.22,0-.37,0-.28,0-.46l0-.6L12.94,5c0-.22,0-.43.05-.62s0-.36,0-.5,0-.25,0-.31a.76.76,0,0,1,0-.15s0-.08,0-.13,0-.1,0-.15H12.9l-.1,0-.09,0L12.64,3s0,0,0,0,0,0,0,0,0,0,0,0a.05.05,0,0,1,0,0,.14.14,0,0,1,0-.09s0,0,0,0h.06l.06,0s0,0,0,0l0,0,0,0h0l.07,0,.16,0,.21,0,.23,0h.25l.41,0,.48,0h.8l.2,0,.14,0a.2.2,0,0,1,.08,0l0,0v0l0,0s0,0,0,0v0a.08.08,0,0,1,0,0s0,0,0,.07,0,.05,0,.08a.07.07,0,0,0,0,0s0,.06,0,.08a.06.06,0,0,1,0,0h-.09s0,0,0,0h-.15l-.25,0h-1.2l-.35,0-.35,0c0,.36,0,.68-.06,1s0,.49,0,.66l.36-.06.29,0,.26,0H15l.2,0,.12,0,.1,0a.19.19,0,0,1,.05.09.42.42,0,0,1,0,.1A.06.06,0,0,1,15.49,5Z"/><path class="cls-1" d="M19.05,2.83a6,6,0,0,1-.57,1,8,8,0,0,1-.63.8,6.86,6.86,0,0,1-.62.6c-.2.17-.38.3-.53.41h1.48l.53,0c0-.2,0-.39,0-.58s0-.37.05-.54,0-.32,0-.47,0-.26,0-.36,0-.06,0-.09l0-.06,0-.06A.35.35,0,0,0,19,3.35a.24.24,0,0,0,.06-.09l0-.07,0,0s0,0,0,0l0,0h0l0,0a.41.41,0,0,0,0-.1s0,0,0,0h.05l0,0a0,0,0,0,1,0,0v.15a2.73,2.73,0,0,0,0,.31c0,.12,0,.27,0,.43s0,.33,0,.51,0,.35,0,.53,0,.35,0,.51h.41l.11,0s0,0,0,0a.24.24,0,0,1,0,.08.28.28,0,0,1,0,.09s0,0,0,0a.09.09,0,0,0-.06.07.19.19,0,0,0,0,.1.34.34,0,0,1-.15,0l-.34,0c0,.3,0,.54,0,.74s0,.37,0,.5a2.27,2.27,0,0,1,0,.29.35.35,0,0,1,0,.13l-.05,0h-.15l0,0h0l0,0s0,0,0,0h-.07v0l0,0h-.09s0,0,0,0a.35.35,0,0,0,0-.06l0,0s0,0,0,0,0,0,0-.08V7.12c0-.15,0-.31,0-.49s0-.36,0-.56H16.13l0,0a.08.08,0,0,1,0,0,.14.14,0,0,1,0-.06l0,0h.08l0-.05,0-.06a.09.09,0,0,1,0-.06.06.06,0,0,1,0,0l0,0,0,0a6.58,6.58,0,0,0,.78-.55,6.27,6.27,0,0,0,.59-.53,6.54,6.54,0,0,0,.45-.5l.35-.48c.11-.16.21-.32.3-.47l.3-.44a.09.09,0,0,1,.06,0l.07,0,.05.06A.11.11,0,0,1,19.05,2.83Z"/></svg>