<svg id="Layer_1" data-name="Layer 1" xmlns="http://www.w3.org/2000/svg" viewBox="0 0 32.15 32.15"><defs><style>.cls-1{fill:#fff;}.cls-2{fill:none;stroke:#fff;stroke-miterlimit:10;stroke-width:0.5px;}</style></defs><title>F6</title><path class="cls-1" d="M4.89,11.52,5,11.6H5l.08-.06c3.61-3.67,6.12-6,6.21-6.21l.06-.09h0l-.08-.08C11.18,5,9.82,3.64,8.94,2.79,8.34,2.21,7.63,1.41,7.1.94L6.91.77A1.31,1.31,0,0,0,6.1.47,5.22,5.22,0,0,0,2.15,2.38C.12,4.4.05,6.51.37,7c0,.08.42.44,2,2C4.15,10.79,4.79,11.45,4.89,11.52ZM2.37,2.61C3.66,1.32,4.91.7,6.07.79A1,1,0,0,1,6.7,1l.18.17,0,0,0,0,4,4C10.41,5.86,8.29,8,5,11.19L.63,6.81C.45,6.52.36,4.62,2.37,2.61Z"/><path class="cls-1" d="M20.44,5.13l-.08.07v0h0l.07.09c3.66,3.61,6,6.12,6.2,6.21l.1.06h0l.08-.08c.1-.09,1.49-1.45,2.33-2.33.59-.6,1.39-1.31,1.86-1.85l.17-.18a1.31,1.31,0,0,0,.3-.82,5.25,5.25,0,0,0-1.91-3.95C27.56.36,25.45.29,25,.6c-.08.05-.45.43-2,2C21.17,4.39,20.51,5,20.44,5.13Zm8.91-2.52a5,5,0,0,1,1.82,3.7,1.08,1.08,0,0,1-.22.63l-.17.18,0,0h0l-4,4c-.6-.53-2.71-2.65-5.93-5.93L25.15.87C25.44.69,27.34.6,29.35,2.61Z"/><path class="cls-1" d="M27.11,20.66,27,20.59h0l-.09.06c-3.61,3.67-6.12,6-6.21,6.21l-.06.09h0l.07.08c.09.1,1.45,1.49,2.33,2.34.6.58,1.31,1.39,1.85,1.86l.18.16a1.41,1.41,0,0,0,.82.31c1.26.09,2.59-.56,3.95-1.92,2-2,2.09-4.13,1.78-4.61-.05-.08-.43-.44-2-2C27.85,21.39,27.21,20.74,27.11,20.66Zm2.52,8.92a5,5,0,0,1-3.7,1.82,1,1,0,0,1-.62-.23L25.12,31l0,0h0l-4-4c.53-.61,2.65-2.71,5.93-5.93l4.38,4.38C31.55,25.66,31.64,27.57,29.63,29.58Z"/><path class="cls-1" d="M11.59,26.76l.08-.08v0h0l-.07-.09c-3.66-3.61-6-6.11-6.2-6.2l-.1-.07h0l-.07.08c-.11.08-1.5,1.44-2.34,2.32C2.29,23.3,1.48,24,1,24.55l-.17.19a1.28,1.28,0,0,0-.3.81A5.25,5.25,0,0,0,2.45,29.5c2,2,4.13,2.09,4.61,1.78.08-.05.45-.43,2-2C10.86,27.49,11.52,26.85,11.59,26.76ZM2.68,29.27a5,5,0,0,1-1.82-3.7A1,1,0,0,1,1.08,25l.17-.19,0,0h0l4-4c.6.53,2.71,2.66,5.93,5.94L6.88,31C6.59,31.19,4.69,31.28,2.68,29.27Z"/><rect class="cls-2" x="7.51" y="7.45" width="17" height="17" transform="translate(15.97 -6.65) rotate(45)"/><path class="cls-1" d="M15.09,15.41l-.1.08a.16.16,0,0,0-.07.11,1,1,0,0,1,0,.14.16.16,0,0,1-.1.11l-.21,0-.4,0-.46,0h-.8l-.47,0-.65.06c0,.23,0,.46,0,.7s0,.48,0,.71v1.78a.5.5,0,0,1,0,.24.24.24,0,0,1-.15.17l-.15.06-.13.05h-.22A.26.26,0,0,1,11,19.7a.14.14,0,0,1-.06-.1.69.69,0,0,1-.05-.13.72.72,0,0,1-.05-.2c0-.09,0-.21,0-.36a5,5,0,0,1,0-.61c0-.21,0-.46,0-.77s0-.64.06-1,.06-.71.09-1.08.07-.7.1-1,.06-.59.08-.83,0-.41.05-.51l0-.24a2,2,0,0,1,0-.23c0-.08,0-.16,0-.24H10.8a.49.49,0,0,1-.16-.05.53.53,0,0,1-.15-.08l-.11-.09a.24.24,0,0,1-.06-.09.17.17,0,0,1,0-.07l0-.05.07,0c0-.06,0-.11,0-.14l0,0,.1,0,.1-.05,0,0,.08,0,.07,0,.06,0,.12,0,.27-.05.35,0,.37-.05.42,0,.67,0,.8,0h1.33l.33,0,.22.06.14.06a.17.17,0,0,1,.06.06v.06a.33.33,0,0,1,0,.06.15.15,0,0,1,.07.07.08.08,0,0,1,0,0s0,0,0,.07l0,.12S16,12,16,12a.33.33,0,0,0,0,.1l0,.11a.11.11,0,0,1,0,.08h-.14s0,0,0,0h-.24l-.41,0-.57,0h-1l-.39,0-.58,0-.58,0c0,.6-.08,1.13-.1,1.57s0,.81-.05,1.09c.21,0,.41-.08.59-.1l.48,0,.44,0h.49l.42,0,.33,0,.2,0A.48.48,0,0,1,15,15a1,1,0,0,1,.09.15l.06.16S15.11,15.4,15.09,15.41Z"/><path class="cls-1" d="M21.39,16.64a4.63,4.63,0,0,1-.12,1.12,3.18,3.18,0,0,1-.32.81,2.4,2.4,0,0,1-.45.56,2.43,2.43,0,0,1-.53.35,2.11,2.11,0,0,1-.52.17,2.79,2.79,0,0,1-.47.05,2.72,2.72,0,0,1-.89-.14,2.4,2.4,0,0,1-.71-.37,2.66,2.66,0,0,1-.53-.53,3.85,3.85,0,0,1-.36-.62,3,3,0,0,1-.2-.64,2.55,2.55,0,0,1-.07-.59,6,6,0,0,1,.69-2.87,6.06,6.06,0,0,1,.65-1,7,7,0,0,1,.67-.67c.22-.18.4-.32.55-.42l.28-.17a1.83,1.83,0,0,1,.34-.18,1.24,1.24,0,0,1,.37-.06c.11,0,.18,0,.19,0a.1.1,0,0,1,0,.09s0,0,0,.05v0a.13.13,0,0,1,0,.06.17.17,0,0,1-.06.06,5.06,5.06,0,0,0-1,.87A5.63,5.63,0,0,0,18,13.83a6.2,6.2,0,0,0-.53,1.31,5.45,5.45,0,0,0-.18,1.38,3.67,3.67,0,0,0,.09.84,2.72,2.72,0,0,0,.23.68,2.49,2.49,0,0,0,.32.53,2.55,2.55,0,0,0,.36.37,2.45,2.45,0,0,0,.35.22.88.88,0,0,0,.28.07,1.33,1.33,0,0,0,.44-.11,1.52,1.52,0,0,0,.53-.35,2,2,0,0,0,.43-.64,2.43,2.43,0,0,0,.18-1,2.29,2.29,0,0,0-.09-.68,1.54,1.54,0,0,0-.24-.48,1.46,1.46,0,0,0-.34-.32,1.65,1.65,0,0,0-.39-.17,1.43,1.43,0,0,0-.39-.06,1.12,1.12,0,0,0-.33,0,.76.76,0,0,0-.26.12,2.18,2.18,0,0,0-.22.21,1.46,1.46,0,0,0-.16.21.38.38,0,0,0-.06.17.1.1,0,0,1,0,.09.12.12,0,0,1-.09,0,.11.11,0,0,1-.08,0,.1.1,0,0,1,0-.09,1.11,1.11,0,0,1,.16-.61,1.68,1.68,0,0,1,.43-.45,1.88,1.88,0,0,1,.55-.27,2.22,2.22,0,0,1,.55-.08,2,2,0,0,1,1.37.61,1.81,1.81,0,0,1,.4.59A1.68,1.68,0,0,1,21.39,16.64Z"/></svg>