<svg xmlns="http://www.w3.org/2000/svg" viewBox="0 0 108.18 91.41"><defs><style>.cls-1,.cls-2{fill:#fff;}.cls-2{font-size:7px;font-family:Oregano-Regular, Oregano;}.cls-3{letter-spacing:-0.02em;}</style></defs><title>F_background</title><g id="Layer_2" data-name="Layer 2"><rect width="108.18" height="91.41"/></g><g id="Layer_1" data-name="Layer 1"><polyline class="cls-1" points="86.7 91.11 0.32 91.11 0.32 0.35 107.94 0.35 107.94 91.11 106.99 91.11 106.9 1.46 0.92 1.46 1.12 90.01 86.74 90.01"/><polyline class="cls-1" points="106.94 90.01 107.68 90.01 107.68 40.96 107.94 40.96 107.94 91.11 106.9 91.11"/><polyline class="cls-1" points="86.64 90.66 86.64 90.58 107.58 90.58 107.58 90.66"/><text class="cls-2" transform="translate(82.76 88.65) scale(1.05 1)"><tspan class="cls-3">V</tspan><tspan x="4.1" y="0">CHOD</tspan></text><path class="cls-1" d="M58.69,52.11h-5.8c-.38,0-.41,0-.41-.4V50.44c0-.37,0-.39.41-.39H64.51c.42,0,.44,0,.44.43v1.27c0,.34,0,.37-.39.37Zm4-1.63H52.92v1.19h9.81Zm1.35,0v1.19h.43V50.48Zm-.89,0v1.2h.43v-1.2Z"/><path class="cls-1" d="M61.64,47.58a12.89,12.89,0,0,1-1.39,0,1.87,1.87,0,0,1-.82-.28A1.1,1.1,0,0,1,59,45.85l0-.06c.28-.59.2-.83-.41-1-.31-.12-.62-.2-.94-.29A1.32,1.32,0,0,1,57,42.21a3.09,3.09,0,0,1,.39-.33c.11-.09.25-.1.31,0a.36.36,0,0,1-.07.29c-.09.12-.24.2-.34.31a.9.9,0,0,0,.42,1.5c.3.1.6.16.89.27a3.39,3.39,0,0,1,.63.32.86.86,0,0,1,.26,1.13c-.44.8-.09,1.31.74,1.4a5.41,5.41,0,0,0,.9,0c.34,0,.67,0,1,0a1.36,1.36,0,0,1,1.36,1.2,7.89,7.89,0,0,1,0,1.19c0,.16-.08.28-.23.23s-.16-.17-.17-.26c0-.34,0-.68,0-1a1,1,0,0,0-1.09-.94h-.41Z"/><path class="cls-1" d="M63,45c-.05.17-.1.35-.16.51-.16.44-.08.6.37.75a5.35,5.35,0,0,1,.67.24,1.59,1.59,0,0,1,1,2,8,8,0,0,1-.39,1.13c-.06.14-.16.25-.32.16s-.11-.22-.06-.36a12.17,12.17,0,0,0,.4-1.3A1,1,0,0,0,64,47a6.8,6.8,0,0,0-.67-.3c-.15-.06-.31-.1-.45-.17a.74.74,0,0,1-.46-1.05l.06-.18a.78.78,0,0,0-.47-1c-.13-.06-.29-.06-.41-.12a.31.31,0,0,1-.16-.23c0-.06.11-.17.19-.18A1.4,1.4,0,0,1,63,45Z"/><path class="cls-1" d="M59.68,43.75c.1-.23.2-.47.31-.7a2.69,2.69,0,0,1,.26-.33A1,1,0,0,0,60,41.23s-.11,0-.12-.08a.43.43,0,0,1-.06-.26s.14-.08.22-.1.11,0,.16.06a1.43,1.43,0,0,1,.48,2l-.31.38a.84.84,0,0,0,0,1.12,1.39,1.39,0,0,0,.85.54c.16,0,.27.09.23.27s-.18.16-.31.14A1.82,1.82,0,0,1,59.68,43.75Z"/><path class="cls-1" d="M64.26,44.09a1.23,1.23,0,0,0-.23-.28c-.17-.12-.37-.22-.55-.33a1.14,1.14,0,0,1-.13-2c.06-.06.19,0,.3,0a.8.8,0,0,1,0,.31c-.07.14-.19.26-.26.41a.56.56,0,0,0,.2.82c.19.13.39.24.59.36a.82.82,0,0,1,.34,1.23,5.79,5.79,0,0,1-.41.6c-.09.12-.22.2-.36.08s-.06-.24,0-.36.27-.37.39-.56A1.9,1.9,0,0,0,64.26,44.09Z"/></g></svg>