<svg id="Layer_1" data-name="Layer 1" xmlns="http://www.w3.org/2000/svg" viewBox="0 0 40.63 40.13"><defs><style>.cls-1{fill:#fff;}</style></defs><title>K1</title><path class="cls-1" d="M25,.81V.69h-.12a19.56,19.56,0,0,0-9.79,0H15V.82c0,.15-.2,2.18-.17,3.54,0,.93.1,2.26.15,3.06V7.7a1.46,1.46,0,0,0,.4.88c.93,1.07,2.48,1.61,4.63,1.61,3.18,0,4.91-1.61,5-2.24a16.81,16.81,0,0,0,.16-3.17A31,31,0,0,0,25,.81Zm-5,9c-2,0-3.5-.5-4.36-1.48a1.07,1.07,0,0,1-.31-.67V7.35h0V1a32.55,32.55,0,0,1,9.35,0V7.89c-.14.36-1.57,1.94-4.74,1.94Z"/><path class="cls-1" d="M8.59,2.6,8.5,2.52h0l-.1.08A19.4,19.4,0,0,0,1.9,9.94l-.07.11h0l.09.08c.1.11,1.5,1.59,2.54,2.47.71.61,1.77,1.42,2.4,1.91l.22.17A1.41,1.41,0,0,0,8,15c1.42,0,2.85-.79,4.27-2.4,2.11-2.39,2-4.74,1.66-5.26A16.49,16.49,0,0,0,11.67,5.1,30.84,30.84,0,0,0,8.59,2.6ZM12,12.34c-1.35,1.53-2.69,2.3-4,2.29a1.12,1.12,0,0,1-.71-.21l-.22-.17h0L2.29,10A32.26,32.26,0,0,1,8.48,3l5.18,4.57C13.87,7.85,14.11,10,12,12.34Z"/><path class="cls-1" d="M2.09,15.21H2v.11A19.47,19.47,0,0,0,.14,25v.13H.26c.14,0,2.1.59,3.44.81.93.16,2.25.31,3,.41H7a1.49,1.49,0,0,0,1-.23c1.22-.71,2-2.15,2.42-4.25.58-3.14-.69-5.12-1.29-5.36A15.17,15.17,0,0,0,6,15.77,30.42,30.42,0,0,0,2.09,15.21Zm8,6.59c-.37,2-1.13,3.36-2.25,4a1.12,1.12,0,0,1-.71.18H6.85L.5,24.79a32.44,32.44,0,0,1,1.7-9.2L9,16.84c.33.16,1.62,1.84,1.05,5Z"/><path class="cls-1" d="M38,11.63l.1-.07h0l-.1-.14a19.5,19.5,0,0,0-5.3-8.23l-.09-.09h0l-.11.07c-.13.07-1.93,1-3.06,1.77-.78.52-1.85,1.32-2.49,1.79l-.23.17a1.5,1.5,0,0,0-.52.81c-.4,1.36,0,3,1.16,4.76,1.72,2.68,4,3.25,4.6,3a15.4,15.4,0,0,0,2.76-1.58A30.78,30.78,0,0,0,38,11.63Zm-10.31.65c-1.11-1.72-1.48-3.22-1.12-4.47A1.2,1.2,0,0,1,27,7.18L27.18,7h0l5.35-3.46a32.67,32.67,0,0,1,5.07,7.87l-5.8,3.74c-.31.14-2.4-.21-4.12-2.87Z"/><path class="cls-1" d="M39.05,28h.13v-.12a19.29,19.29,0,0,0,1.23-9.71V18h-.13c-.14,0-2.13-.47-3.48-.61-.93-.11-2.27-.19-3.06-.24h-.28a1.45,1.45,0,0,0-.92.28c-1.18.79-1.91,2.26-2.18,4.39-.4,3.16,1,5.07,1.58,5.28a15.81,15.81,0,0,0,3.13.56A29.49,29.49,0,0,0,39.05,28Zm-8.31-6.14c.26-2,.94-3.41,2-4.13a1.2,1.2,0,0,1,.71-.23h.28l6.32.8a32.37,32.37,0,0,1-1.18,9.29L32,26.72c-.29-.07-1.67-1.72-1.28-4.84Z"/><path class="cls-1" d="M20.63,26.34A7.36,7.36,0,1,1,28,19h0A7.36,7.36,0,0,1,20.63,26.34Zm0-14.26A6.91,6.91,0,1,0,27.54,19a6.91,6.91,0,0,0-6.91-6.92Z"/><path class="cls-1" d="M30.14,29a.26.26,0,0,0-.25-.16H10.21A.31.31,0,0,0,10,29a.66.66,0,0,0-.5.65v4.43a6.35,6.35,0,0,0,1.83,4.49A5.27,5.27,0,0,0,15,40.13H25.16A5.91,5.91,0,0,0,30.64,34V29.62A.65.65,0,0,0,30.14,29Zm-19.59.2h19a.68.68,0,0,0-.17.45v4.59A5,5,0,0,1,28,37.72a4.15,4.15,0,0,1-2.86,1.22S15,39,15,38.94a4.59,4.59,0,0,1-4.29-4.79V29.62a.75.75,0,0,0-.16-.45ZM30.28,34c0,3.16-2.3,5.75-5.13,5.8H15.07a5,5,0,0,1-3.54-1.48,6,6,0,0,1-1.72-4.24V29.62a.29.29,0,0,1,.27-.31h0a.3.3,0,0,1,.28.31v4.53A5,5,0,0,0,15,39.3H25.1A4.42,4.42,0,0,0,28.21,38a5.28,5.28,0,0,0,1.53-3.76V29.62a.27.27,0,1,1,.54,0Z"/><path class="cls-1" d="M18,15.28s0,.17,0,.41,0,.54,0,.91-.05.77-.08,1.09-.06.6-.08.86a3.56,3.56,0,0,0,.47-.39l.54-.54.54-.6c.19-.2.35-.39.5-.57l.39-.47c.1-.14.18-.23.22-.28a2.43,2.43,0,0,1,.26-.29l.26-.24.23-.18.16-.09h.07l.05,0a.14.14,0,0,1,0,.07s0,0,0,0a0,0,0,0,0,0,0l0,0a.06.06,0,0,1,0,.07,1.5,1.5,0,0,1-.09.18l-.14.18c-.06.08-.14.17-.24.28l-.4.45c-.16.17-.35.39-.56.64l-.69.78c-.25.27-.51.53-.78.79a7.24,7.24,0,0,1-.81.69,2,2,0,0,1,.36.1,2.48,2.48,0,0,1,.43.18,5.39,5.39,0,0,1,.5.28,5.57,5.57,0,0,1,.55.41l.66.57c.22.19.44.36.65.51a4.47,4.47,0,0,0,.67.37,2,2,0,0,0,.73.14,2.58,2.58,0,0,0,.53-.07,3,3,0,0,0,.58-.24.45.45,0,0,1,.1-.05h.05a0,0,0,0,1,0,0,.08.08,0,0,1,0,.05l0,0-.06,0-.07.06-.06.06s0,0,0,0l0,0s0,0,0,0,0,0-.07.06a.1.1,0,0,0-.05.06l-.05.07a.25.25,0,0,1,0,.07l-.07.06a.29.29,0,0,0-.15.14l-.09.11a.7.7,0,0,1-.19.14,2.88,2.88,0,0,1-.35.17,3,3,0,0,1-.45.12,1.61,1.61,0,0,1-.49,0,1.71,1.71,0,0,1-.7-.29A4.29,4.29,0,0,1,20,21.9c-.2-.2-.4-.42-.6-.65s-.38-.46-.57-.66a5.81,5.81,0,0,0-.57-.55,1.63,1.63,0,0,0-.58-.33v.5c0,.19,0,.38,0,.58s0,.39,0,.58,0,.36,0,.52,0,.29,0,.39,0,.17,0,.19,0,.15,0,.17a.12.12,0,0,1-.08.05h-.06s0,0-.06,0,0,0,0,0,0,0,0,0l0,0-.08,0h-.13a.18.18,0,0,1-.11,0l-.12-.09a.22.22,0,0,1-.06-.07l0-.09-.06-.05s-.05,0-.06-.09a4.12,4.12,0,0,1-.08-.62c0-.25,0-.5,0-.76v-.46c0-.15,0-.29,0-.43s0-.26,0-.38,0-.21,0-.29l-.23,0H16.4l-.06,0a.12.12,0,0,1-.05-.05l-.07,0a.27.27,0,0,1-.1-.12s0-.09.1-.15a.49.49,0,0,1,.23-.1l.37-.09c0-.17,0-.37,0-.59s0-.44,0-.68,0-.47.05-.71,0-.46.05-.67,0-.42.06-.59.05-.33.07-.45a.13.13,0,0,1,0-.1.11.11,0,0,1,0,0,0,0,0,0,1,.06,0,0,0,0,0,0,.07,0l.06,0,0,0s0,0,0,0a.16.16,0,0,1,0,.06h0v0l0,0,.09,0s.07,0,.08,0,0,0,0,0l0,0s0,0,.05-.05h.06a.27.27,0,0,1,.12.09A.23.23,0,0,1,18,15.28Z"/><path class="cls-1" d="M24.43,22.27a.65.65,0,0,1,0,.31.15.15,0,0,1-.1.09h-.17a.11.11,0,0,0-.07,0,.27.27,0,0,1-.17,0l-.26-.1-.12-.05-.06,0a.08.08,0,0,1,0,0v0a7,7,0,0,1,0-.71c0-.19,0-.4,0-.62s0-.43,0-.64,0-.42,0-.61,0-.37,0-.52,0-.33,0-.57,0-.5,0-.78,0-.56,0-.86,0-.56,0-.8,0-.46,0-.62,0-.26,0-.29a.21.21,0,0,1,0-.12s0-.05.06,0a.14.14,0,0,0,.09,0,0,0,0,0,1,0,0H24s.05,0,.05,0l0,0h.07l.13,0a.4.4,0,0,1,.11.14s0,.07,0,.17,0,.21,0,.34,0,.3,0,.47v1c0,.14,0,.27,0,.38v.47c0,.21,0,.42,0,.64v.66c0,.29,0,.58,0,.87s0,.55,0,.81,0,.47,0,.67A4.58,4.58,0,0,0,24.43,22.27Z"/></svg>