<svg id="Layer_1" data-name="Layer 1" xmlns="http://www.w3.org/2000/svg" viewBox="0 0 36.85 15.01"><defs><style>.cls-1{fill:#fff;}</style></defs><title>K2</title><path class="cls-1" d="M35.91,12.56H36v-.12a19.33,19.33,0,0,0,0-9.79V2.53h-.1c-.14,0-2.17-.2-3.53-.18-.94,0-2.27.11-3.07.16H29a1.49,1.49,0,0,0-.89.4c-1.06.92-1.6,2.48-1.6,4.62,0,3.19,1.61,4.91,2.23,5a16,16,0,0,0,3.17.16A31,31,0,0,0,35.91,12.56Zm-9-5.05c0-2,.5-3.5,1.49-4.35a1.14,1.14,0,0,1,.67-.32h6.7a33.35,33.35,0,0,1,0,9.36H28.83c-.36-.09-1.94-1.51-1.94-4.69Z"/><path class="cls-1" d="M.87,2.47H.75v.12a19.33,19.33,0,0,0,0,9.79v.12H.87c.15,0,2.18.2,3.54.17.93,0,2.27-.1,3.06-.16h.28a1.46,1.46,0,0,0,.88-.4c1.07-.93,1.61-2.48,1.61-4.63,0-3.19-1.61-4.91-2.23-5a16.11,16.11,0,0,0-3.18-.16A29.14,29.14,0,0,0,.87,2.47Zm9,5c0,2-.5,3.5-1.48,4.36a1.07,1.07,0,0,1-.67.31H1A32.34,32.34,0,0,1,1,2.82H7.9c.41.09,2,1.52,2,4.69Z"/><path class="cls-1" d="M18.39,14.87A7.36,7.36,0,1,1,25.74,7.5h0A7.36,7.36,0,0,1,18.39,14.87Zm0-14.26a6.91,6.91,0,1,0,6.9,6.92v0A6.91,6.91,0,0,0,18.39.61Z"/><path class="cls-1" d="M14.39,4.1a2.79,2.79,0,0,0,0,.38c0,.21,0,.49,0,.84s0,.71-.07,1-.06.56-.08.8a3.91,3.91,0,0,0,.44-.36c.16-.16.33-.32.5-.5l.5-.55.46-.53.35-.44.21-.26a2,2,0,0,1,.24-.26L17.11,4a1.34,1.34,0,0,1,.22-.16.65.65,0,0,1,.15-.09h.06l0,0a.08.08,0,0,1,0,.06s0,0,0,0a0,0,0,0,0,0,0l0,0s0,0,0,.07l-.09.16-.12.17-.22.26c-.1.1-.22.24-.37.41l-.53.59-.63.72c-.23.25-.47.49-.72.73a4.9,4.9,0,0,1-.75.64l.33.09a2.66,2.66,0,0,1,.4.17,3.72,3.72,0,0,1,.46.26,6.08,6.08,0,0,1,.52.38c.2.17.41.34.6.52s.4.33.6.47a3.43,3.43,0,0,0,.62.34,1.7,1.7,0,0,0,.67.13A2.12,2.12,0,0,0,18.9,10a2.18,2.18,0,0,0,.53-.23l.1,0h0a0,0,0,0,1,0,0s0,0,0,0,0,0,0,0l-.06,0-.06.05-.05.06s0,0,0,0h0s0,0,0,0,0,0-.06.05a.12.12,0,0,0,0,.05l0,.07,0,.06a.2.2,0,0,1-.07.06.35.35,0,0,0-.14.13l-.07.1a.84.84,0,0,1-.18.13l-.33.15A2.2,2.2,0,0,1,18,11a1.36,1.36,0,0,1-.45,0,1.61,1.61,0,0,1-.65-.27,3.66,3.66,0,0,1-.59-.48c-.19-.19-.37-.39-.55-.6s-.36-.42-.53-.61a5,5,0,0,0-.53-.51,1.61,1.61,0,0,0-.54-.3c0,.14,0,.29,0,.46s0,.35,0,.53,0,.36,0,.54,0,.34,0,.48,0,.27,0,.36a1.74,1.74,0,0,1,0,.18c0,.08,0,.14,0,.15a.12.12,0,0,1-.08,0h-.05A.07.07,0,0,0,14,11l0,0s0,0,0,0l0,.05-.07,0h-.12a.11.11,0,0,1-.1,0L13.55,11l-.05-.07a.22.22,0,0,0-.05-.08l0,0s0,0-.05-.08a3.72,3.72,0,0,1-.08-.57c0-.23,0-.47,0-.71V9c0-.14,0-.27,0-.4s0-.24,0-.35a2.13,2.13,0,0,1,0-.27l-.22,0H13L12.9,8l-.05,0a.17.17,0,0,0-.06-.06.2.2,0,0,1-.09-.1s0-.08.09-.14A.34.34,0,0,1,13,7.52l.35-.09c0-.16,0-.34,0-.54s0-.41,0-.63,0-.43,0-.65,0-.43,0-.63,0-.38.06-.54,0-.3.06-.41a.41.41,0,0,1,0-.1.1.1,0,0,1,0-.05l.06,0s0,0,.06,0l0,0,0,0h0l0,.06h0l0,0,0,0,.09,0s.06,0,.06,0,0,0,0,0,0,0,0,0l0,0h.06a.24.24,0,0,1,.11.09A.18.18,0,0,1,14.39,4.1Z"/><path class="cls-1" d="M23.81,10.83c-.08,0-.32,0-.72,0H21.46c-.34,0-.65,0-.94,0l-.73.06L19.3,11a.66.66,0,0,0-.22.07l-.07.06s0,0,0,0a.26.26,0,0,1,0-.09s0-.09,0-.16a1.28,1.28,0,0,1,.25-.27l.52-.48c.21-.2.45-.42.71-.68s.52-.53.79-.84a10,10,0,0,0,.79-1,5.72,5.72,0,0,0,.51-.84A3.13,3.13,0,0,0,22.77,6a1.81,1.81,0,0,0,0-.57A.88.88,0,0,0,22.59,5a1.1,1.1,0,0,0-.34-.26,1.91,1.91,0,0,0-.44-.16l-.48-.06a1.7,1.7,0,0,0-.72.11,1.91,1.91,0,0,0-.55.3,1.32,1.32,0,0,0-.33.4.44.44,0,0,0-.05.36.31.31,0,0,0,.16.18.75.75,0,0,0,.26,0,.91.91,0,0,0,.23,0,1,1,0,0,0,.24-.07,1.06,1.06,0,0,0,.21-.11A.76.76,0,0,0,21,5.62s.05,0,.07,0,0,0,0,0a.11.11,0,0,1,0,.08.16.16,0,0,1,0,.07L21,5.83l.07,0s.06,0,.08.08a.17.17,0,0,1,0,.16l0,0,0,0,0,0-.06.06a1.22,1.22,0,0,1-.73.27,1,1,0,0,1-.38-.08,1.13,1.13,0,0,1-.32-.19A1.38,1.38,0,0,1,19.28,6a.67.67,0,0,1-.12-.31.84.84,0,0,1,0-.35A1.7,1.7,0,0,1,19.32,5a2.26,2.26,0,0,1,.29-.42A1.68,1.68,0,0,1,20,4.19a1.86,1.86,0,0,1,.55-.26,2.49,2.49,0,0,1,.69-.11,3.19,3.19,0,0,1,.95.12,1.61,1.61,0,0,1,.62.34,1.55,1.55,0,0,1,.38.5,3.11,3.11,0,0,1,.21.63,1.5,1.5,0,0,1,0,.56,2.22,2.22,0,0,1-.2.58,4.83,4.83,0,0,1-.32.59c-.13.19-.26.38-.4.56s-.27.35-.41.51l-.36.44c-.13.17-.26.32-.38.45s-.23.24-.34.34-.2.2-.29.29l-.23.27a5.25,5.25,0,0,1,.75-.1l.8,0h.48l.42,0,.32,0a.69.69,0,0,1,.18.05l.09.06a.12.12,0,0,1,.05,0,.09.09,0,0,1,0,.05l0,0a.39.39,0,0,1,.08.1s0,.07-.06.08a.09.09,0,0,0-.06.06s0,.06.09.12a1.1,1.1,0,0,1,.17.21S23.9,10.83,23.81,10.83Z"/></svg>