<svg id="Layer_1" data-name="Layer 1" xmlns="http://www.w3.org/2000/svg" viewBox="0 0 36.85 15.01"><defs><style>.cls-1{fill:#fff;}</style></defs><title>K3</title><path class="cls-1" d="M35.91,12.56H36v-.12a19.33,19.33,0,0,0,0-9.79V2.53h-.1c-.14,0-2.17-.2-3.53-.18-.94,0-2.27.11-3.07.16H29a1.49,1.49,0,0,0-.89.4c-1.06.92-1.6,2.48-1.6,4.62,0,3.19,1.61,4.91,2.23,5a16,16,0,0,0,3.17.16A31,31,0,0,0,35.91,12.56Zm-9-5.05c0-2,.5-3.5,1.49-4.35a1.14,1.14,0,0,1,.67-.32h6.7a33.35,33.35,0,0,1,0,9.36H28.83c-.36-.09-1.94-1.51-1.94-4.69Z"/><path class="cls-1" d="M.87,2.47H.75v.12a19.33,19.33,0,0,0,0,9.79v.12H.87c.15,0,2.18.2,3.54.17.93,0,2.27-.1,3.06-.16h.28a1.46,1.46,0,0,0,.88-.4c1.07-.93,1.61-2.48,1.61-4.63,0-3.19-1.61-4.91-2.23-5a16.11,16.11,0,0,0-3.18-.16A29.14,29.14,0,0,0,.87,2.47Zm9,5c0,2-.5,3.5-1.48,4.36a1.07,1.07,0,0,1-.67.31H1A32.34,32.34,0,0,1,1,2.82H7.9c.41.09,2,1.52,2,4.69Z"/><path class="cls-1" d="M18.39,14.87A7.36,7.36,0,1,1,25.74,7.5h0A7.36,7.36,0,0,1,18.39,14.87Zm0-14.26a6.91,6.91,0,1,0,6.9,6.92v0A6.91,6.91,0,0,0,18.39.61Z"/><path class="cls-1" d="M14.39,4.1a2.79,2.79,0,0,0,0,.38c0,.21,0,.49,0,.84s0,.71-.07,1-.06.56-.08.8a3.91,3.91,0,0,0,.44-.36c.16-.16.33-.32.5-.5l.5-.55.46-.53.35-.44.21-.26a2,2,0,0,1,.24-.26L17.11,4a1.34,1.34,0,0,1,.22-.16.65.65,0,0,1,.15-.09h.06l0,0a.08.08,0,0,1,0,.06s0,0,0,0a0,0,0,0,0,0,0l0,0s0,0,0,.07l-.09.16-.12.17-.22.26c-.1.1-.22.24-.37.41l-.53.59-.63.72c-.23.25-.47.49-.72.73a4.9,4.9,0,0,1-.75.64l.33.09a2.66,2.66,0,0,1,.4.17,3.72,3.72,0,0,1,.46.26,6.08,6.08,0,0,1,.52.38c.2.17.41.34.6.52s.4.33.6.47a3.43,3.43,0,0,0,.62.34,1.7,1.7,0,0,0,.67.13A2.12,2.12,0,0,0,18.9,10a2.18,2.18,0,0,0,.53-.23l.1,0h0a0,0,0,0,1,0,0s0,0,0,0,0,0,0,0l-.06,0-.06.05-.05.06s0,0,0,0h0s0,0,0,0,0,0-.06.05a.12.12,0,0,0,0,.05l0,.07,0,.06a.2.2,0,0,1-.07.06.35.35,0,0,0-.14.13l-.07.1a.84.84,0,0,1-.18.13l-.33.15A2.2,2.2,0,0,1,18,11a1.36,1.36,0,0,1-.45,0,1.61,1.61,0,0,1-.65-.27,3.66,3.66,0,0,1-.59-.48c-.19-.19-.37-.39-.55-.6s-.36-.42-.53-.61a5,5,0,0,0-.53-.51,1.61,1.61,0,0,0-.54-.3c0,.14,0,.29,0,.46s0,.35,0,.53,0,.36,0,.54,0,.34,0,.48,0,.27,0,.36a1.74,1.74,0,0,1,0,.18c0,.08,0,.14,0,.15a.12.12,0,0,1-.08,0h-.05A.07.07,0,0,0,14,11l0,0s0,0,0,0l0,.05-.07,0h-.12a.11.11,0,0,1-.1,0L13.55,11l-.05-.07a.22.22,0,0,0-.05-.08l0,0s0,0-.05-.08a3.72,3.72,0,0,1-.08-.57c0-.23,0-.47,0-.71V9c0-.14,0-.27,0-.4s0-.24,0-.35a2.13,2.13,0,0,1,0-.27l-.22,0H13L12.9,8l-.05,0a.17.17,0,0,0-.06-.06.2.2,0,0,1-.09-.1s0-.08.09-.14A.34.34,0,0,1,13,7.52l.35-.09c0-.16,0-.34,0-.54s0-.41,0-.63,0-.43,0-.65,0-.43,0-.63,0-.38.06-.54,0-.3.06-.41a.41.41,0,0,1,0-.1.1.1,0,0,1,0-.05l.06,0s0,0,.06,0l0,0,0,0h0l0,.06h0l0,0,0,0,.09,0s.06,0,.06,0,0,0,0,0,0,0,0,0l0,0h.06a.24.24,0,0,1,.11.09A.18.18,0,0,1,14.39,4.1Z"/><path class="cls-1" d="M21.64,6.75l.52.1a4.68,4.68,0,0,1,.53.17,3,3,0,0,1,.51.25,2.06,2.06,0,0,1,.42.35,1.57,1.57,0,0,1,.28.44,1.43,1.43,0,0,1,.11.56,1.9,1.9,0,0,1-.33,1,2.89,2.89,0,0,1-1,.91,3.45,3.45,0,0,1-.47.24,4.16,4.16,0,0,1-.5.16,3.39,3.39,0,0,1-.52.1l-.52,0a3.64,3.64,0,0,1-.48,0,2,2,0,0,1-.44-.1,1.61,1.61,0,0,1-.35-.16.9.9,0,0,1-.25-.22,1.35,1.35,0,0,1-.19-.35.87.87,0,0,1-.06-.32A1,1,0,0,1,19,9.55a1.67,1.67,0,0,1,.21-.33,2.68,2.68,0,0,1,.3-.28,2.56,2.56,0,0,1,.35-.22,2.14,2.14,0,0,1,.35-.16,2.85,2.85,0,0,1,.32-.1.37.37,0,0,1,.14,0s0,0,0,0l0,0a.07.07,0,0,1-.05,0l-.43.23a1.79,1.79,0,0,0-.56.46.82.82,0,0,0-.18.47.46.46,0,0,0,.1.29.66.66,0,0,0,.23.17,1.11,1.11,0,0,0,.31.09l.32,0a2.75,2.75,0,0,0,.67-.09,4.19,4.19,0,0,0,.68-.23,4.65,4.65,0,0,0,.62-.34,3.54,3.54,0,0,0,.5-.41,1.68,1.68,0,0,0,.3-.45.71.71,0,0,0,.05-.45,1.38,1.38,0,0,0-.3-.59,1.65,1.65,0,0,0-.48-.35,2.36,2.36,0,0,0-.59-.17,4.18,4.18,0,0,0-.59,0,4.67,4.67,0,0,0-.57,0l-.33,0c-.07,0-.12,0-.15,0a.16.16,0,0,1-.06-.08.27.27,0,0,1,0-.13s0-.1,0-.14a.1.1,0,0,0,0-.08l0,0s0,0,0,0,0,0,.09-.08a1.25,1.25,0,0,1,.29-.12L21,6.41a5.24,5.24,0,0,0,.58-.22,2.45,2.45,0,0,0,.55-.31,2.67,2.67,0,0,0,.34-.29,2.18,2.18,0,0,0,.22-.25,1.12,1.12,0,0,0,.11-.22.45.45,0,0,0,0-.18.38.38,0,0,0,0-.16l-.07-.11a.32.32,0,0,0-.09-.08l-.06,0a1.87,1.87,0,0,0-.34,0,2.7,2.7,0,0,0-.62.08,4.21,4.21,0,0,0-.63.2,3.81,3.81,0,0,0-.53.29,1.23,1.23,0,0,0-.35.32s0,0,0,0h.13l.21,0,.23-.06.22-.07.15,0h0a.08.08,0,0,1,0,0l0,.06a.56.56,0,0,1-.05.08.16.16,0,0,0,0,.08.1.1,0,0,1-.05.07.53.53,0,0,0-.1.12.61.61,0,0,0-.07.1.43.43,0,0,1,0,.07.12.12,0,0,1-.05.05l-.15,0L20.32,6l-.19,0a.65.65,0,0,1-.19,0,.47.47,0,0,1-.48-.31.67.67,0,0,1,0-.42,1.17,1.17,0,0,1,.26-.45,2.51,2.51,0,0,1,.51-.43A3.94,3.94,0,0,1,21,4.09a3.52,3.52,0,0,1,.56-.17,3,3,0,0,1,.49,0,2,2,0,0,1,.36,0l.3.08a1.12,1.12,0,0,1,.22.09.49.49,0,0,1,.13.1.94.94,0,0,1,.17.18,1.06,1.06,0,0,1,.12.2l.09.19a.76.76,0,0,0,.09.18.49.49,0,0,1,.06.33.86.86,0,0,1-.18.34,1.89,1.89,0,0,1-.35.34,5.09,5.09,0,0,1-.45.31,4,4,0,0,1-.48.28Z"/></svg>