<svg id="Layer_1" data-name="Layer 1" xmlns="http://www.w3.org/2000/svg" viewBox="0 0 40.79 27.69"><defs><style>.cls-1{fill:#fff;}</style></defs><title>K4</title><path class="cls-1" d="M39.73,10.36h.12v-.12a19.33,19.33,0,0,0,0-9.79V.33h-.14c-.14,0-2.17-.2-3.53-.18-.94,0-2.27.11-3.07.16h-.27a1.49,1.49,0,0,0-.89.4c-1.06.92-1.6,2.48-1.6,4.62,0,3.19,1.61,4.91,2.23,5a16,16,0,0,0,3.17.16A31.08,31.08,0,0,0,39.73,10.36Zm-9-5c0-2,.5-3.5,1.49-4.35a1.14,1.14,0,0,1,.67-.32h6.66a33.35,33.35,0,0,1,0,9.36h-6.9c-.36-.14-1.94-1.56-1.94-4.74Z"/><path class="cls-1" d="M32.38,23.45l.1.07h0l.09-.08a19.37,19.37,0,0,0,6.23-7.55l.06-.11h0l-.1-.08c-.1-.11-1.55-1.54-2.61-2.39-.74-.58-1.82-1.36-2.47-1.83l-.22-.16a1.5,1.5,0,0,0-.94-.25c-1.41,0-2.81.89-4.18,2.54-2,2.46-1.89,4.81-1.49,5.31A16.82,16.82,0,0,0,29.23,21,32.4,32.4,0,0,0,32.38,23.45Zm-3.74-9.63c1.3-1.57,2.62-2.39,3.92-2.42a1.09,1.09,0,0,1,.72.19l.22.16h0l4.91,4.06a32.43,32.43,0,0,1-6,7.21l-5.33-4.39C26.93,18.37,26.62,16.26,28.64,13.82Z"/><path class="cls-1" d="M16.26,26.75v.12h.12a19.45,19.45,0,0,0,9.79-.17h.12v-.12c0-.15.16-2.18.11-3.54,0-.93-.14-2.26-.21-3.06V19.7a1.49,1.49,0,0,0-.42-.87,6,6,0,0,0-4.65-1.52c-3.19.05-4.88,1.69-5,2.32A14.61,14.61,0,0,0,16,22.8,32.59,32.59,0,0,0,16.26,26.75Zm4.89-9.11c2,0,3.51.44,4.38,1.41a1.11,1.11,0,0,1,.32.66V20h0L26,26.41a32.55,32.55,0,0,1-9.35.16l-.13-6.91C16.58,19.3,18,17.7,21.15,17.64Z"/><path class="cls-1" d="M21.24,14.78a7.35,7.35,0,1,1,7.35-7.35,7.35,7.35,0,0,1-7.35,7.35Zm0-14.25a6.91,6.91,0,1,0,6.9,6.92v0A6.91,6.91,0,0,0,21.24.53Z"/><path class="cls-1" d="M11.26,20.8a.3.3,0,0,0,.15-.26V.87a.3.3,0,0,0-.15-.26.65.65,0,0,0-.65-.5H6.18a6.37,6.37,0,0,0-4.5,1.83A5.33,5.33,0,0,0,.1,5.69V15.82A5.92,5.92,0,0,0,6.25,21.3h4.36A.65.65,0,0,0,11.26,20.8Zm-.2-19.6v19a.66.66,0,0,0-.45-.17H6a5,5,0,0,1-3.5-1.41,4.15,4.15,0,0,1-1.22-2.86V5.66a4.59,4.59,0,0,1,4.8-4.29h4.53A.66.66,0,0,0,11.06,1.2ZM6.25,20.94A5.56,5.56,0,0,1,.46,15.8V5.73A5,5,0,0,1,1.94,2.19,6,6,0,0,1,6.18.47h4.43a.29.29,0,0,1,.31.27h0a.29.29,0,0,1-.31.27H6.08A5,5,0,0,0,.92,5.66v10.1a4.44,4.44,0,0,0,1.33,3.11A5.36,5.36,0,0,0,6,20.4h4.59a.27.27,0,1,1,0,.54Z"/><path class="cls-1" d="M17.1,4.11a2.47,2.47,0,0,0,0,.35c0,.21,0,.47,0,.8s0,.67-.07.94-.05.53-.07.75a2.82,2.82,0,0,0,.41-.34c.16-.15.31-.3.47-.47s.32-.34.47-.52l.43-.5.34-.4c.09-.12.16-.2.19-.25a2.73,2.73,0,0,1,.23-.25L19.66,4l.2-.15L20,3.78h.05a.05.05,0,0,1,0,0,.08.08,0,0,1,0,.06s0,0,0,0a0,0,0,0,0,0,0l0,0s0,0,0,.07l-.08.15L20,4.34l-.21.24L19.4,5c-.15.15-.31.33-.5.55s-.38.45-.6.68-.43.46-.66.69a6.29,6.29,0,0,1-.71.6l.31.08a2.76,2.76,0,0,1,.37.16A3.79,3.79,0,0,1,18,8a4.68,4.68,0,0,1,.49.36c.2.16.39.33.57.49s.38.31.57.44a2.75,2.75,0,0,0,.58.32,1.51,1.51,0,0,0,.63.13,1.5,1.5,0,0,0,.45-.07,2.55,2.55,0,0,0,.51-.2.16.16,0,0,1,.09,0h0v0l0,0,0,0-.06,0a.12.12,0,0,0-.05.05l-.05.05s0,0,0,0h0v0s0,0-.06.05l0,0,0,.07,0,.06-.06.05a.26.26,0,0,0-.13.12.49.49,0,0,1-.08.1.64.64,0,0,1-.16.12,1.8,1.8,0,0,1-.31.14,2.22,2.22,0,0,1-.39.11,1.24,1.24,0,0,1-.43,0,1.57,1.57,0,0,1-.6-.25,3.9,3.9,0,0,1-.56-.46,7,7,0,0,1-.52-.56c-.16-.2-.33-.39-.49-.57a5.55,5.55,0,0,0-.5-.48A1.29,1.29,0,0,0,16.86,8c0,.13,0,.27,0,.43s0,.33,0,.5,0,.34,0,.51,0,.31,0,.45,0,.25,0,.34a1.48,1.48,0,0,0,0,.16.35.35,0,0,1,0,.15s0,0-.08,0,0,0-.05,0,0,0,0,0l0,0v0l0,0-.08,0h-.11s-.05,0-.09,0l-.11-.07,0-.07,0-.08-.06,0s0,0,0-.07a2.63,2.63,0,0,1-.07-.54c0-.22,0-.44,0-.67s0-.26,0-.39,0-.26,0-.38,0-.22,0-.33,0-.18,0-.25l-.21,0h-.12l-.06,0,0,0s0,0-.05-.05-.09-.07-.09-.1,0-.08.09-.13a.42.42,0,0,1,.19-.09l.33-.08c0-.15,0-.32,0-.51s0-.38,0-.59,0-.4,0-.61,0-.4,0-.59,0-.36.06-.51a2.73,2.73,0,0,1,.05-.38.41.41,0,0,1,0-.1.08.08,0,0,1,0,0s0,0,.05,0h.06l.05,0h.05l0,.05h0l0,0,.08,0s.06,0,.06,0,0,0,0,0l0,0,0,0a.07.07,0,0,1,.06,0,.2.2,0,0,1,.1.08A.19.19,0,0,1,17.1,4.11Z"/><path class="cls-1" d="M25.42,4.17a8.53,8.53,0,0,1-.76,1.34,10.9,10.9,0,0,1-.84,1.06,8.69,8.69,0,0,1-.83.8c-.27.23-.51.41-.71.55h2q.38,0,.72,0c0-.25,0-.51.06-.76s0-.5.06-.73,0-.43.06-.62,0-.35,0-.48,0-.09,0-.12a.36.36,0,0,1,0-.09L25.31,5l.07-.11.08-.13.05-.09,0-.05s0,0,.05,0l0,0s0,0,0,0,0,0,0,0a.33.33,0,0,0,0-.13l0,0h.06s0,0,.06,0a.12.12,0,0,1,0,.07s0,.08,0,.19,0,.24,0,.41,0,.36,0,.58,0,.44,0,.68l0,.71q0,.36,0,.69l.18,0h.37a.33.33,0,0,1,.15,0s0,0,0,.06a.36.36,0,0,1,0,.11.34.34,0,0,1,0,.1s0,.06,0,.06a.13.13,0,0,0-.1.09c0,.05,0,.1,0,.14s-.07,0-.19,0l-.46,0c0,.39,0,.72,0,1s0,.49,0,.67,0,.3,0,.38a1.06,1.06,0,0,1,0,.18l-.07.05-.06,0h-.1l0,0-.06,0-.05,0s0,0,0,0l0,0h-.09s0,0,0,0l0,0-.06,0H25s0,0,0,0l0-.08,0,0s0,0,0,0a.29.29,0,0,1,0-.12,1.34,1.34,0,0,1,0-.21V9.9c0-.2,0-.41,0-.65s0-.49,0-.76H23l-.52,0-.44,0h-.55a.1.1,0,0,1,0-.05s0,0,0-.07l0-.08s0-.06,0-.06h.11a.21.21,0,0,1,0-.06.35.35,0,0,0-.05-.08.25.25,0,0,1,0-.08.08.08,0,0,1,0,0l0,0,.06,0a12.35,12.35,0,0,0,1-.73,9.55,9.55,0,0,0,.79-.71,8.59,8.59,0,0,0,.59-.67c.18-.22.33-.44.48-.65l.4-.62c.12-.2.26-.4.4-.59a.08.08,0,0,1,.08,0l.09,0a.24.24,0,0,1,.06.08S25.43,4.15,25.42,4.17Z"/></svg>