<svg id="Layer_1" data-name="Layer 1" xmlns="http://www.w3.org/2000/svg" viewBox="0 0 39.93 15.01"><defs><style>.cls-1{fill:#fff;}</style></defs><title>K5</title><path class="cls-1" d="M20.18,14.86a7.36,7.36,0,1,1,7.35-7.37v0A7.36,7.36,0,0,1,20.18,14.86ZM20.18.6a6.91,6.91,0,1,0,6.91,6.91A6.91,6.91,0,0,0,20.18.6Z"/><path class="cls-1" d="M11.46,12.59a.3.3,0,0,0,.15-.26V2.68a.3.3,0,0,0-.15-.26.66.66,0,0,0-.65-.49H6.38a6.36,6.36,0,0,0-4.5,1.82A5.32,5.32,0,0,0,.3,7.51h0c0,3.05,2.78,5.54,6.15,5.54h4.36A.66.66,0,0,0,11.46,12.59ZM11.26,3v9a.66.66,0,0,0-.45-.17H6.22A5,5,0,0,1,2.7,10.41,4.16,4.16,0,0,1,1.48,7.47a4.59,4.59,0,0,1,4.8-4.28h4.53A.73.73,0,0,0,11.26,3ZM6.45,12.73C3.28,12.73.68,10.41.66,7.55A5,5,0,0,1,2.14,4,6,6,0,0,1,6.38,2.28h4.43a.29.29,0,0,1,.31.27h0a.29.29,0,0,1-.31.27H6.28A5,5,0,0,0,1.12,7.47a4.49,4.49,0,0,0,1.33,3.19,5.31,5.31,0,0,0,3.77,1.53h4.59a.27.27,0,1,1,0,.54H6.45Z"/><path class="cls-1" d="M28.64,2.42a.31.31,0,0,0-.15.26v9.65a.3.3,0,0,0,.15.26.66.66,0,0,0,.66.5h4.42a6.37,6.37,0,0,0,4.5-1.83A5.33,5.33,0,0,0,39.8,7.51h0C39.8,4.51,37,2,33.65,2H29.3A.67.67,0,0,0,28.64,2.42Zm.2,9.58V3a.71.71,0,0,0,.46.17h4.58A5,5,0,0,1,37.4,4.61a4.12,4.12,0,0,1,1.22,2.93,4.6,4.6,0,0,1-4.8,4.29H29.3A.71.71,0,0,0,28.84,12Zm4.81-9.72a5.57,5.57,0,0,1,5.8,5.19A5,5,0,0,1,38,11a6,6,0,0,1-4.25,1.72H29.3a.27.27,0,0,1,0-.54h4.52A5,5,0,0,0,39,7.54a4.38,4.38,0,0,0-1.33-3.18A5.31,5.31,0,0,0,33.9,2.83H29.3a.31.31,0,0,1-.3-.27.3.3,0,0,1,.32-.28h4.33Z"/><path class="cls-1" d="M16.32,4.1a3.3,3.3,0,0,0,0,.4c0,.23,0,.53-.05.9s0,.76-.07,1.07-.06.6-.09.85a2.92,2.92,0,0,0,.47-.39l.53-.53c.18-.19.36-.38.54-.59s.34-.38.48-.56.28-.33.38-.46l.22-.28A3.45,3.45,0,0,1,19,4.23L19.22,4a2.68,2.68,0,0,1,.23-.17l.15-.09h.07a.05.05,0,0,1,0,0s0,0,0,.07,0,0,0,0,0,0,0,0l0,0s0,0,0,.07l-.09.17-.14.18-.23.27-.4.44-.55.63c-.22.25-.44.51-.68.77s-.5.53-.76.78a6.89,6.89,0,0,1-.8.68,2.13,2.13,0,0,1,.35.1,3.37,3.37,0,0,1,.42.17c.15.08.32.17.49.28a5.57,5.57,0,0,1,.55.41l.65.55a6,6,0,0,0,.64.51,4.22,4.22,0,0,0,.66.36,1.87,1.87,0,0,0,.71.14,2.4,2.4,0,0,0,.52-.07,2.68,2.68,0,0,0,.57-.24.37.37,0,0,1,.11,0h0s0,0,0,0l0,0,0,0-.06,0-.07.05-.05.06s0,0,0,0h0s0,0,0,0,0,0-.07.06l-.06.06,0,.07,0,.06a.13.13,0,0,1-.07.06.5.5,0,0,0-.15.14l-.08.11a.7.7,0,0,1-.19.14,3,3,0,0,1-.35.16,2.54,2.54,0,0,1-.44.13,1.29,1.29,0,0,1-.48,0,1.71,1.71,0,0,1-.69-.28,4.27,4.27,0,0,1-.63-.51c-.2-.2-.4-.42-.59-.65s-.37-.44-.56-.64a4.67,4.67,0,0,0-.56-.54,1.46,1.46,0,0,0-.58-.32c0,.14,0,.3,0,.48s0,.38,0,.57,0,.39,0,.58,0,.35,0,.51,0,.28,0,.38a1.13,1.13,0,0,0,0,.19.44.44,0,0,1,0,.17.15.15,0,0,1-.09,0H16a.06.06,0,0,0-.07,0l0,0a.43.43,0,0,0,0,.05s0,0,0,0a.19.19,0,0,1-.08,0h-.12a.15.15,0,0,1-.12,0l-.12-.08-.05-.08,0-.08a.13.13,0,0,0-.06-.05s0,0-.06-.09a4.3,4.3,0,0,1-.07-.61c0-.24,0-.49,0-.75V9.36c0-.15,0-.29,0-.42s0-.26,0-.38,0-.21,0-.29l-.23,0h-.14l-.07,0,0-.05a.18.18,0,0,0-.07-.05.27.27,0,0,1-.1-.12s0-.09.1-.15a.64.64,0,0,1,.22-.1l.37-.08c0-.18,0-.37,0-.58l0-.67c0-.23,0-.47.05-.7s0-.46,0-.67,0-.4.06-.58,0-.32.06-.43a.53.53,0,0,1,0-.11s0,0,.05,0l.06,0s0,0,.07,0l.05,0h.06l0,.06h0a0,0,0,0,0,0,0l0,0,.09,0a.06.06,0,0,1,.07,0s0,0,0,0l0,0,0,0a.08.08,0,0,1,.07,0,.2.2,0,0,1,.11.09S16.34,4,16.32,4.1Z"/><path class="cls-1" d="M25.58,8.61c0,.08,0,.16.05.23s0,.14,0,.22a1.94,1.94,0,0,1-.23.9,2.63,2.63,0,0,1-.62.76,3.39,3.39,0,0,1-2.11.74h-.29l-.3,0a.77.77,0,0,1-.31-.11,1.06,1.06,0,0,1-.27-.25,1.27,1.27,0,0,1-.2-.34,1.56,1.56,0,0,1-.06-.44.91.91,0,0,1,.09-.31,1.32,1.32,0,0,1,.21-.29,2.17,2.17,0,0,1,.32-.27,3.77,3.77,0,0,1,.39-.26.24.24,0,0,1,.12,0h.09l.06,0s0,0,0,0,0,.07,0,.12a.46.46,0,0,1-.18.12.41.41,0,0,0-.16.1,1,1,0,0,0-.17.18.82.82,0,0,0-.14.26.65.65,0,0,0,0,.31.31.31,0,0,0,.15.26.61.61,0,0,0,.35.08,1.59,1.59,0,0,0,.36,0,2.41,2.41,0,0,0,.41-.13,3.89,3.89,0,0,0,.42-.19A4.1,4.1,0,0,0,24,10a2.41,2.41,0,0,0,.37-.34,2.34,2.34,0,0,0,.29-.37,1.79,1.79,0,0,0,.18-.37,1,1,0,0,0,0-.33,1.71,1.71,0,0,0-.15-.51,1.91,1.91,0,0,0-.27-.35,1.29,1.29,0,0,0-.35-.22,1.23,1.23,0,0,0-.37-.12,1.37,1.37,0,0,0-.34,0,1.09,1.09,0,0,0-.28,0l-.4.09-.24.06-.19.06-.2.07H22s0,0,0,0a.09.09,0,0,1,0,0l0,0s0,0,0,0l-.06,0a.2.2,0,0,1-.06-.07s0-.06,0-.11l0,0L22,7.17A.35.35,0,0,1,21.94,7a.9.9,0,0,1,0-.18.71.71,0,0,1,0-.14V5.07c0-.19,0-.36,0-.48h0a.32.32,0,0,1-.08-.09.14.14,0,0,1,0-.06.09.09,0,0,1,0,0l0,0s0-.06,0-.09a1.78,1.78,0,0,1,.14-.14L22,4.05V4h.87l.46,0,.47,0,.42,0,.33,0h.18l.09,0,.11,0L25,4l.09,0a.09.09,0,0,1,0,.06s0,.05,0,.08a.28.28,0,0,0,0,.09.08.08,0,0,0,0,.07.34.34,0,0,1,.06.12.19.19,0,0,1-.06.14l0,.06s0,0,0,0l0,0s0,0,0,0a0,0,0,0,0,0,.06s0,0,.06,0,0,0,0,0l0,0s0,0,0,0a.17.17,0,0,1-.12,0H22.52v.15c0,.14,0,.31,0,.49s0,.36,0,.54,0,.34,0,.49,0,.27,0,.36a3.06,3.06,0,0,1,.63-.07,4.16,4.16,0,0,1,.69,0,2.09,2.09,0,0,1,.71.22,1.81,1.81,0,0,1,.64.51A2.28,2.28,0,0,1,25.58,8.61Zm-.4-3.76s0,0,0,0,0,0,0,0Z"/></svg>