<svg id="Layer_1" data-name="Layer 1" xmlns="http://www.w3.org/2000/svg" viewBox="0 0 36.85 15.01"><defs><style>.cls-1{fill:#fff;}</style></defs><title>K6</title><path class="cls-1" d="M35.91,12.56H36v-.12a19.33,19.33,0,0,0,0-9.79V2.53h-.1c-.14,0-2.17-.2-3.53-.18-.94,0-2.27.11-3.07.16H29a1.49,1.49,0,0,0-.89.4c-1.06.92-1.6,2.48-1.6,4.62,0,3.19,1.61,4.91,2.23,5a16,16,0,0,0,3.17.16A31,31,0,0,0,35.91,12.56Zm-9-5.05c0-2,.5-3.5,1.49-4.35a1.14,1.14,0,0,1,.67-.32h6.7a33.35,33.35,0,0,1,0,9.36H28.83c-.36-.09-1.94-1.51-1.94-4.69Z"/><path class="cls-1" d="M.87,2.47H.75v.12a19.33,19.33,0,0,0,0,9.79v.12H.87c.15,0,2.18.2,3.54.17.93,0,2.27-.1,3.06-.16h.28a1.46,1.46,0,0,0,.88-.4c1.07-.93,1.61-2.48,1.61-4.63,0-3.19-1.61-4.91-2.23-5a16.11,16.11,0,0,0-3.18-.16A29.14,29.14,0,0,0,.87,2.47Zm9,5c0,2-.5,3.5-1.48,4.36a1.07,1.07,0,0,1-.67.31H1A32.34,32.34,0,0,1,1,2.82H7.9c.41.09,2,1.52,2,4.69Z"/><path class="cls-1" d="M18.39,14.87A7.36,7.36,0,1,1,25.74,7.5h0A7.36,7.36,0,0,1,18.39,14.87Zm0-14.26a6.91,6.91,0,1,0,6.9,6.92v0A6.91,6.91,0,0,0,18.39.61Z"/><path class="cls-1" d="M14.39,4.1a2.79,2.79,0,0,0,0,.38c0,.21,0,.49,0,.84s0,.71-.07,1-.06.56-.08.8a3.91,3.91,0,0,0,.44-.36c.16-.16.33-.32.5-.5l.5-.55.46-.53.35-.44.21-.26a2,2,0,0,1,.24-.26L17.11,4a1.34,1.34,0,0,1,.22-.16.65.65,0,0,1,.15-.09h.06l0,0a.08.08,0,0,1,0,.06s0,0,0,0a0,0,0,0,0,0,0l0,0s0,0,0,.07l-.09.16-.12.17-.22.26c-.1.1-.22.24-.37.41l-.53.59-.63.72c-.23.25-.47.49-.72.73a4.9,4.9,0,0,1-.75.64l.33.09a2.66,2.66,0,0,1,.4.17,3.72,3.72,0,0,1,.46.26,6.08,6.08,0,0,1,.52.38c.2.17.41.34.6.52s.4.33.6.47a3.43,3.43,0,0,0,.62.34,1.7,1.7,0,0,0,.67.13A2.12,2.12,0,0,0,18.9,10a2.18,2.18,0,0,0,.53-.23l.1,0h0a0,0,0,0,1,0,0s0,0,0,0,0,0,0,0l-.06,0-.06.05-.05.06s0,0,0,0h0s0,0,0,0,0,0-.06.05a.12.12,0,0,0,0,.05l0,.07,0,.06a.2.2,0,0,1-.07.06.35.35,0,0,0-.14.13l-.07.1a.84.84,0,0,1-.18.13l-.33.15A2.2,2.2,0,0,1,18,11a1.36,1.36,0,0,1-.45,0,1.61,1.61,0,0,1-.65-.27,3.66,3.66,0,0,1-.59-.48c-.19-.19-.37-.39-.55-.6s-.36-.42-.53-.61a5,5,0,0,0-.53-.51,1.61,1.61,0,0,0-.54-.3c0,.14,0,.29,0,.46s0,.35,0,.53,0,.36,0,.54,0,.34,0,.48,0,.27,0,.36a1.74,1.74,0,0,1,0,.18c0,.08,0,.14,0,.15a.12.12,0,0,1-.08,0h-.05A.07.07,0,0,0,14,11l0,0s0,0,0,0l0,.05-.07,0h-.12a.11.11,0,0,1-.1,0L13.55,11l-.05-.07a.22.22,0,0,0-.05-.08l0,0s0,0-.05-.08a3.72,3.72,0,0,1-.08-.57c0-.23,0-.47,0-.71V9c0-.14,0-.27,0-.4s0-.24,0-.35a2.13,2.13,0,0,1,0-.27l-.22,0H13L12.9,8l-.05,0a.17.17,0,0,0-.06-.06.2.2,0,0,1-.09-.1s0-.08.09-.14A.34.34,0,0,1,13,7.52l.35-.09c0-.16,0-.34,0-.54s0-.41,0-.63,0-.43,0-.65,0-.43,0-.63,0-.38.06-.54,0-.3.06-.41a.41.41,0,0,1,0-.1.1.1,0,0,1,0-.05l.06,0s0,0,.06,0l0,0,0,0h0l0,.06h0l0,0,0,0,.09,0s.06,0,.06,0,0,0,0,0,0,0,0,0l0,0h.06a.24.24,0,0,1,.11.09A.18.18,0,0,1,14.39,4.1Z"/><path class="cls-1" d="M23.6,8.31a4,4,0,0,1-.11,1,2.84,2.84,0,0,1-.27.7,1.58,1.58,0,0,1-.39.48,1.61,1.61,0,0,1-.45.3,2,2,0,0,1-.45.15,3.18,3.18,0,0,1-.4,0,2.35,2.35,0,0,1-.77-.12,2.14,2.14,0,0,1-.6-.32,2.18,2.18,0,0,1-.46-.45,3.26,3.26,0,0,1-.31-.54A2.85,2.85,0,0,1,19.21,9a3.37,3.37,0,0,1-.05-.52,4.92,4.92,0,0,1,.17-1.38A5.38,5.38,0,0,1,19.75,6a4.71,4.71,0,0,1,.56-.82,6.32,6.32,0,0,1,.58-.58,4.6,4.6,0,0,1,.47-.36l.24-.15a1.32,1.32,0,0,1,.29-.15.91.91,0,0,1,.32-.06c.09,0,.15,0,.16,0a.08.08,0,0,1,0,.08.06.06,0,0,0,0,0v.09a.13.13,0,0,1-.05.06,4,4,0,0,0-.9.75,4.55,4.55,0,0,0-.69,1A5,5,0,0,0,20.24,7a4.79,4.79,0,0,0-.16,1.18,3.26,3.26,0,0,0,.08.73,2.81,2.81,0,0,0,.2.58,1.64,1.64,0,0,0,.28.45,1.58,1.58,0,0,0,.31.32,1,1,0,0,0,.3.19.6.6,0,0,0,.23.06,1.17,1.17,0,0,0,.39-.09,1.47,1.47,0,0,0,.45-.3,1.77,1.77,0,0,0,.37-.55,2.11,2.11,0,0,0,.16-.85,2,2,0,0,0-.08-.58,1.64,1.64,0,0,0-.21-.42,1.23,1.23,0,0,0-.29-.27,1.33,1.33,0,0,0-.67-.2.88.88,0,0,0-.29,0,.61.61,0,0,0-.22.1,1.62,1.62,0,0,0-.19.18,1,1,0,0,0-.13.18.29.29,0,0,0-.06.15.09.09,0,0,1,0,.07.11.11,0,0,1-.08,0l-.07,0a.11.11,0,0,1,0-.08.93.93,0,0,1,.14-.53A1.45,1.45,0,0,1,21,7a1.52,1.52,0,0,1,.48-.23A1.31,1.31,0,0,1,22,6.69a1.49,1.49,0,0,1,.66.15,1.59,1.59,0,0,1,.52.37,1.57,1.57,0,0,1,.34.51A1.37,1.37,0,0,1,23.6,8.31Z"/></svg>