<svg id="Layer_1" data-name="Layer 1" xmlns="http://www.w3.org/2000/svg" viewBox="0 0 36.99 25.73"><defs><style>.cls-1{fill:#fff;}</style></defs><title>K7</title><path class="cls-1" d="M36,23.23h.12v-.12a19.33,19.33,0,0,0,0-9.79V13.2H36c-.15,0-2.18-.2-3.54-.17-.93,0-2.27.1-3.06.16h-.28a1.46,1.46,0,0,0-.88.4c-1.07.93-1.61,2.48-1.61,4.63,0,3.19,1.61,4.91,2.23,5a16.11,16.11,0,0,0,3.18.16A29.14,29.14,0,0,0,36,23.23Zm-9-5c0-2,.5-3.5,1.48-4.36a1.07,1.07,0,0,1,.67-.31h6.66a32.62,32.62,0,0,1,0,9.36H29c-.4-.13-2-1.56-2-4.73Z"/><path class="cls-1" d="M23.55.88V.76h-.12a19.33,19.33,0,0,0-9.79,0h-.12V.88c0,.15-.2,2.18-.17,3.54,0,.93.1,2.27.16,3.06v.28a1.46,1.46,0,0,0,.4.88c.93,1.07,2.48,1.61,4.63,1.61,3.19,0,4.91-1.61,5-2.23a16.11,16.11,0,0,0,.16-3.18A29.14,29.14,0,0,0,23.55.88Zm-5,9c-2,0-3.5-.5-4.36-1.48a1.07,1.07,0,0,1-.31-.67V7.45h0V1a32.62,32.62,0,0,1,9.36,0V8c-.13.32-1.56,1.89-4.73,1.89Z"/><path class="cls-1" d="M1,13.14H.88v.12a19.33,19.33,0,0,0,0,9.79v.12H1c.15,0,2.18.2,3.54.18.94,0,2.27-.11,3.07-.16h.27a1.46,1.46,0,0,0,.88-.4c1.07-.92,1.61-2.48,1.61-4.62,0-3.19-1.61-4.91-2.23-5A15.72,15.72,0,0,0,5,13,31.46,31.46,0,0,0,1,13.14Zm9,5.05c0,2-.49,3.5-1.48,4.35a1.14,1.14,0,0,1-.67.32H1.16a32.62,32.62,0,0,1,0-9.36h6.9C8.44,13.59,10,15,10,18.19Z"/><path class="cls-1" d="M18.52,25.54a7.35,7.35,0,1,1,7.35-7.35A7.35,7.35,0,0,1,18.52,25.54Zm0-14.26a6.91,6.91,0,1,0,6.9,6.92h0A6.92,6.92,0,0,0,18.52,11.28Z"/><path class="cls-1" d="M15.09,15.31a2.47,2.47,0,0,0,0,.35c0,.21,0,.48,0,.8s0,.68-.07,1,0,.53-.07.76a3,3,0,0,0,.42-.35c.15-.14.31-.3.47-.47l.48-.53.43-.5c.13-.16.25-.29.34-.41l.2-.25a2.62,2.62,0,0,1,.22-.25l.24-.21.2-.16L18,15h.06l0,0a.08.08,0,0,1,0,.06s0,0,0,0a0,0,0,0,0,0,0l0,0s0,0,0,.06a.53.53,0,0,1-.08.15l-.12.17-.2.24-.36.39c-.14.16-.31.34-.49.56l-.61.69c-.22.23-.44.47-.68.7a6.46,6.46,0,0,1-.71.6l.31.08a3.89,3.89,0,0,1,.38.16l.44.25a6,6,0,0,1,.49.36l.58.5a6.26,6.26,0,0,0,.57.45,3,3,0,0,0,.58.32,1.77,1.77,0,0,0,.64.12,1.88,1.88,0,0,0,.46-.06,2.12,2.12,0,0,0,.51-.21l.1,0s0,0,0,0,0,0,0,0,0,0,0,0l0,0a.1.1,0,0,1-.05,0l-.06.05-.05.06s0,0,0,0h0s0,0,0,0l-.07,0s0,0-.05.05l0,.06a.43.43,0,0,1,0,.07l-.06,0a.33.33,0,0,0-.14.12l-.07.1a.76.76,0,0,1-.17.12,2.26,2.26,0,0,1-.31.15l-.39.11a1.24,1.24,0,0,1-.43,0,1.48,1.48,0,0,1-.62-.24,4.81,4.81,0,0,1-.56-.47,5.78,5.78,0,0,1-.52-.57l-.5-.58c-.17-.18-.34-.34-.5-.48a1.4,1.4,0,0,0-.52-.28c0,.12,0,.27,0,.43s0,.33,0,.51,0,.34,0,.51,0,.32,0,.46,0,.25,0,.34,0,.15,0,.17a.29.29,0,0,1,0,.14.09.09,0,0,1-.08,0h0s0,0-.05,0a.05.05,0,0,0,0,0l0,0a.05.05,0,0,1,0,0l-.07,0H14.5a.13.13,0,0,1-.1,0l-.11-.08,0-.06-.05-.08-.06,0s0,0,0-.08a2.64,2.64,0,0,1-.07-.55c0-.21,0-.44,0-.67s0-.26,0-.4,0-.25,0-.37,0-.24,0-.34,0-.19,0-.26l-.21,0h-.12s-.05,0-.06,0a.08.08,0,0,1,0,0l-.06,0a.22.22,0,0,1-.09-.11s0-.07.09-.13a.46.46,0,0,1,.2-.09l.33-.08c0-.15,0-.32,0-.51s0-.39,0-.6,0-.41,0-.62,0-.41.05-.6,0-.36,0-.51,0-.29.06-.39a.22.22,0,0,1,0-.1l0,0a.07.07,0,0,1,.06,0s0,0,.06,0l.05,0h.05a.09.09,0,0,0,0,.05h0v0l.09,0s.06,0,.06,0,0,0,0,0l0,0,0,0H15a.16.16,0,0,1,.1.08A.22.22,0,0,1,15.09,15.31Z"/><path class="cls-1" d="M24,15.21s0,.1-.12.26-.23.42-.4.75-.38.75-.63,1.26-.51,1.1-.81,1.78c-.2.46-.37.84-.5,1.15l-.34.76c-.09.2-.17.35-.22.46a2.2,2.2,0,0,1-.13.24.29.29,0,0,1-.08.08h-.15v0s0,0,0,0l-.11,0a.22.22,0,0,1-.12-.06.08.08,0,0,1,0,0s0,0,0-.06a.14.14,0,0,0,0-.06.3.3,0,0,0,0-.08l-.06-.07a.1.1,0,0,1,0-.05s0,0,0,0a.93.93,0,0,1,0-.1l.15-.27c.09-.15.19-.34.32-.57l.44-.78c.16-.29.33-.6.51-.91l.53-.93.51-.87c.15-.28.3-.52.43-.73s.23-.37.3-.48l-.39.08-.53.09L21.8,16c-.23,0-.45,0-.67,0h-.47l-.45,0c-.14,0-.28-.05-.41-.09l-.35-.13a.15.15,0,0,1-.07-.14,1.17,1.17,0,0,1,.05-.2l.05-.1a.31.31,0,0,1,.05-.1s0-.05.07-.06a.11.11,0,0,1,.08,0h.22l.4,0,.55,0h.67l1,0c.36,0,.74-.05,1.13-.1a.37.37,0,0,1,.23,0Z"/></svg>