<svg id="Layer_1" data-name="Layer 1" xmlns="http://www.w3.org/2000/svg" xmlns:xlink="http://www.w3.org/1999/xlink" viewBox="0 0 323.11 73.8"><defs><style>.cls-1,.cls-5{opacity:0.01;}.cls-2,.cls-6,.cls-7{fill:#fff;}.cls-3{fill:url(#linear-gradient);}.cls-4{fill:url(#linear-gradient-2);}.cls-5{fill:#f15b25;isolation:isolate;}.cls-6{stroke:#fff;stroke-miterlimit:10;stroke-width:0.25px;}.cls-7{font-size:6px;font-family:Oregano-Regular, Oregano;}.cls-8{letter-spacing:-0.02em;}.cls-9{letter-spacing:0.01em;}.cls-10{letter-spacing:-0.01em;}.cls-11{letter-spacing:-0.05em;}</style><linearGradient id="linear-gradient" x1="126.84" y1="-36.58" x2="126.84" y2="-3.74" gradientTransform="translate(0 56)" gradientUnits="userSpaceOnUse"><stop offset="0" stop-color="#f15b25"/><stop offset="0.49" stop-color="#ef5a25"/><stop offset="0.66" stop-color="#e85723"/><stop offset="0.79" stop-color="#dd5121"/><stop offset="0.89" stop-color="#cc491e"/><stop offset="0.98" stop-color="#b63f1a"/><stop offset="1" stop-color="#af3c19"/></linearGradient><linearGradient id="linear-gradient-2" x1="125.44" y1="-7.02" x2="125.44" y2="4.76" gradientTransform="translate(0 56)" gradientUnits="userSpaceOnUse"><stop offset="0" stop-color="#af3c20"/><stop offset="0.11" stop-color="#b14125"/><stop offset="0.24" stop-color="#b64e35"/><stop offset="0.39" stop-color="#c0644e"/><stop offset="0.55" stop-color="#cc8472"/><stop offset="0.72" stop-color="#ddaca0"/><stop offset="0.89" stop-color="#f0dcd6"/><stop offset="1" stop-color="#fff"/></linearGradient></defs><title>K_background</title><rect width="323.11" height="73.8"/><g class="cls-1"><path class="cls-2" d="M87.47,37.59c-.2.9-.42,2.13-.64,3.68s-.43,3.19-.61,4.93-.35,3.43-.47,5.07-.18,3-.18,4.18v.71a4.81,4.81,0,0,0,.1.84l.06,2.29q0,2.07-1.23,2.07c-.61,0-1.1-.49-1.45-1.47a12.87,12.87,0,0,1-.52-4.18,59.34,59.34,0,0,1,.34-6.25q.34-3.26,1.08-7.32c.21-1.24.34-2.06.4-2.47s.13-.77.21-1.11c-1,.24-2.23.59-3.76,1L76,41l-4.78,1.46q-2.3.72-3.84,1.29c-.21.67-.48,1.53-.86,2.57S65.69,48.92,65,51c-.29.9-.53,1.62-.71,2.14l-.43,1.22a5.72,5.72,0,0,1-.28.68,4.07,4.07,0,0,1-.31.53,1.7,1.7,0,0,1-1.47,1,1.07,1.07,0,0,1-.86-.43,1.51,1.51,0,0,1-.37-1.07,4.69,4.69,0,0,1,0-.53,5.27,5.27,0,0,1,.25-.86c.14-.41.36-1,.64-1.75l1.24-3.29c.44-1.19.76-2,1-2.57s.38-1,.58-1.57a1.32,1.32,0,0,1-.55.14h-.55c-1.19,0-1.79-.57-1.79-1.72a1.31,1.31,0,0,1,.52-1.1,5.13,5.13,0,0,1,1.88-.68c.49-.1.86-.16,1.08-.18a3.45,3.45,0,0,0,.77-.18l2.49-6.43a15.24,15.24,0,0,1,1-2.36q2.46-5.71,4.9-10.36a83.77,83.77,0,0,1,4.64-7.93,31,31,0,0,1,4.16-5.11A5.42,5.42,0,0,1,86,6.77c1.07,0,1.91.91,2.58,2.72a22.86,22.86,0,0,1,1,7.35c0,1,0,2.18-.12,3.54s-.19,2.81-.33,4.36-.3,3.16-.48,4.82-.39,3.29-.63,4.86l.36-.14.75-.28a2.09,2.09,0,0,1,.66-.07,1.1,1.1,0,0,1,.87.36,1.33,1.33,0,0,1,.33.93,1.89,1.89,0,0,1-.14.78,1.22,1.22,0,0,1-.46.57,3.77,3.77,0,0,1-.92.46c-.39.15-.92.31-1.57.5ZM85,35.3c.25-1.43.5-3.06.75-4.9s.48-3.68.67-5.53.35-3.66.45-5.4.16-3.25.16-4.53a9.25,9.25,0,0,0-.41-3.18c-.28-.74-.66-1.11-1.13-1.11-.65,0-1.57.69-2.74,2.07a47,47,0,0,0-4.09,6c-.94,1.57-1.84,3.15-2.68,4.72s-1.66,3.21-2.46,4.93S71.88,31.91,71,33.83s-1.66,4-2.52,6.33l3.3-.93L76.11,38l4.62-1.36C82.23,36.17,83.68,35.73,85,35.3Z"/><path class="cls-2" d="M99.55,40.59q-1.11,3.93-2,6.78T96,52.45c-.48,1.47-.94,2.82-1.39,4s-1,2.45-1.54,3.68a29.51,29.51,0,0,1-1.94,4,1.75,1.75,0,0,1-1.32,1,1,1,0,0,1-.86-.46,1.69,1.69,0,0,1-.16-1.78q.19-.36,1.11-1.65a15.38,15.38,0,0,0,2-3.78c.86-2.09,1.63-4.23,2.31-6.4.76-2.4,1.44-4.88,2.06-7.43.57-2.31,1-4.65,1.36-7a13.64,13.64,0,0,1,.35-1.4,2.65,2.65,0,0,1,.46-.86,1.74,1.74,0,0,1,1.35-.86.92.92,0,0,1,.93.72A10.58,10.58,0,0,1,101,36.8a3.07,3.07,0,0,1,1.84-.86,1.26,1.26,0,0,1,1,.54,2.3,2.3,0,0,1,.4,1.39,6.5,6.5,0,0,1-.15,1.39c-.11.46-.32,1.18-.65,2.18-.57,1.81-1,3.3-1.27,4.47a13.78,13.78,0,0,0-.39,3c0,1.24.33,1.85,1,1.85a1.87,1.87,0,0,0,.74-.35,1.56,1.56,0,0,1,.86-.29.89.89,0,0,1,.65.29,1,1,0,0,1,.28.72,2.48,2.48,0,0,1-.87,1.83,2.65,2.65,0,0,1-1.84.81,2.29,2.29,0,0,1-2.09-1.29,6.63,6.63,0,0,1-.75-3.36,17.42,17.42,0,0,1,.19-2.5c.18-1.11.4-2.21.68-3.29.2-.85.33-1.4.4-1.64a2.82,2.82,0,0,0,.09-.57c0-.57-.3-.86-.93-.86A1,1,0,0,0,99.55,40.59Z"/><path class="cls-2" d="M116.42,36.87a2.56,2.56,0,0,1,.62-.07h.52a2.41,2.41,0,0,1,1.45.42,1.18,1.18,0,0,1,.44,1.61,1.22,1.22,0,0,1-.59.51l-.34.14a1.66,1.66,0,0,1-.49.11l-.86.06h-2.28a6.69,6.69,0,0,0-1,.14c-.33.91-.65,1.93-1,3.07s-.63,2.28-.86,3.4-.49,2.18-.65,3.18a14.09,14.09,0,0,0-.24,2.43c0,1.28.37,1.93,1.1,1.93a2.2,2.2,0,0,0,1.05-.36l.52-.25h.28a.76.76,0,0,1,.62.33,1.17,1.17,0,0,1,.25.67,1.93,1.93,0,0,1-1,1.54,3.67,3.67,0,0,1-2.19.68,2.48,2.48,0,0,1-2.15-1.14,5.2,5.2,0,0,1-.81-3,20.87,20.87,0,0,1,.19-2.5c.12-1,.29-2,.49-3s.45-2.19.75-3.36.61-2.32,1-3.47a1,1,0,0,1-.37.08h-.24c-2.39,0-3.58-.61-3.58-1.82a1.22,1.22,0,0,1,.34-.91,1.15,1.15,0,0,1,.86-.35h.43a4.1,4.1,0,0,1,.61.11,8.27,8.27,0,0,0,1.85.21h.4a1.49,1.49,0,0,0,.55-.14c.29-.76.72-2,1.29-3.68s1.32-3.87,2.22-6.54a8.19,8.19,0,0,1,.86-1.82,1.26,1.26,0,0,1,1-.54,1.05,1.05,0,0,1,.86.47,1.76,1.76,0,0,1,.37,1.17,5.69,5.69,0,0,1-.06.83,7,7,0,0,1-.25,1c-.12.38-.31.89-.55,1.54s-.54,1.45-1,2.45c-.15.33-.28.66-.4,1s-.21.53-.46,1.1-.43,1-.56,1.36-.21.6-.27.79a4,4,0,0,1-.16.43l-.18.35h.55Z"/><path class="cls-2" d="M152.19,37.59a2.36,2.36,0,0,1,.56,1.5A5.09,5.09,0,0,1,152,41a2.31,2.31,0,0,1-1.91,1.5c-.86,0-1.23-.46-1.23-1.36a2.07,2.07,0,0,1,.06-.5,10.06,10.06,0,0,1,.49-1.29,2.14,2.14,0,0,0,.18-1,4.73,4.73,0,0,0-.86-2.86,2.47,2.47,0,0,0-2.09-1.21,4.37,4.37,0,0,0-2.59,1.18,15.27,15.27,0,0,0-2.86,3.25,22.9,22.9,0,0,0-2.93,5.61,16.54,16.54,0,0,0-1,5.39,4.65,4.65,0,0,0,1.21,3.43,4.5,4.5,0,0,0,3.35,1.22,8,8,0,0,0,4.68-1.65l.93-.71a4,4,0,0,0,.7-.72c.24-.28.49-.61.78-1a15.49,15.49,0,0,0,1-1.5A1.4,1.4,0,0,1,151,48c.66,0,1,.45,1,1.36a4.08,4.08,0,0,1-1,2.46,12.65,12.65,0,0,1-2.59,2.47,13.94,13.94,0,0,1-3.36,1.85,9.26,9.26,0,0,1-3.45.72,6.33,6.33,0,0,1-5-2,8.27,8.27,0,0,1-1.78-5.66,18.34,18.34,0,0,1,1.1-6.13,25.64,25.64,0,0,1,2.84-5.69,16.89,16.89,0,0,1,3.85-4.19,6.86,6.86,0,0,1,4.19-1.61C149.74,31.58,151.52,33.58,152.19,37.59Z"/><path class="cls-2" d="M166.74,48.88q-5.25,7.35-9.24,7.35A2.72,2.72,0,0,1,155.13,55a5.88,5.88,0,0,1-.87-3.42,25.53,25.53,0,0,1,1.23-7.71,34.63,34.63,0,0,1,3.14-7.23,23.12,23.12,0,0,1,4.22-5.42,6.76,6.76,0,0,1,4.4-2.14,3.64,3.64,0,0,1,3.08,1.54,6.36,6.36,0,0,1,1.17,4,9.76,9.76,0,0,1-.09,1.32c-.06.36-.19,1-.4,1.89a11.13,11.13,0,0,1,.3,1.17,3.33,3.33,0,0,1,.07.54v.35a2,2,0,0,1-.09.33c-.06.16-.15.4-.25.71s-.26.72-.46,1.25a34.06,34.06,0,0,0-1.3,4.75,24.68,24.68,0,0,0-.53,4.53,3.85,3.85,0,0,0,.31,1.71,2.29,2.29,0,0,0,1.17.93.73.73,0,0,1,.56.71.87.87,0,0,1-.37.71,1.49,1.49,0,0,1-.93.29,2.49,2.49,0,0,1-2.12-1.15,5.73,5.73,0,0,1-.77-3.21V50.34C166.6,50,166.69,49.49,166.74,48.88Zm1.72-8.51a1.37,1.37,0,0,1-.43-.93,1.76,1.76,0,0,1,.06-.46,11.31,11.31,0,0,1,.55-1.61,8,8,0,0,0,.37-2.71,3.88,3.88,0,0,0-.49-2,1.47,1.47,0,0,0-1.29-.82,5.1,5.1,0,0,0-3.39,1.93,23.15,23.15,0,0,0-3.45,4.82,33,33,0,0,0-2.64,6.25,21,21,0,0,0-1.06,6.29A4.57,4.57,0,0,0,157,53a1.05,1.05,0,0,0,1,.71c1,0,2.23-.71,3.63-2.14a33.15,33.15,0,0,0,4.55-6.29c.17-.28.37-.65.59-1.11s.46-.91.68-1.39l.65-1.39A6.18,6.18,0,0,0,168.46,40.37Z"/><path class="cls-2" d="M179.42,37.62c.45-1.09.76-1.85.92-2.28s.31-.83.44-1.22a12.28,12.28,0,0,0-2.53.75,7.47,7.47,0,0,0-2,1.13,1.6,1.6,0,0,1-1.05.36c-.53,0-.8-.34-.8-1A2.23,2.23,0,0,1,175,34a5.77,5.77,0,0,1,1.49-1.25c.32-.19.61-.35.86-.47a7.9,7.9,0,0,1,.92-.35l1.41-.43c.56-.16,1.32-.35,2.22-.54,1.15-3,2.14-5.55,3-7.67s1.65-4.1,2.51-5.91a19.87,19.87,0,0,1,3.88-6.17,6.39,6.39,0,0,1,4.5-1.89,3.61,3.61,0,0,1,2.31.7,2.2,2.2,0,0,1,.86,1.81,1.91,1.91,0,0,1-.37,1.13,1.06,1.06,0,0,1-.87.5,2.09,2.09,0,0,1-1.17-.57,2.31,2.31,0,0,0-1.35-.57,4.77,4.77,0,0,0-3.95,2.57A22.66,22.66,0,0,0,190,17.22c-.55,1.15-1.16,2.46-1.82,3.93s-1.33,3-2,4.68-1.32,3.17-1.89,4.68h1.05a9.9,9.9,0,0,0,1.72-.14,6.73,6.73,0,0,1,1-.07H189a3.12,3.12,0,0,1,1.88.53,1.55,1.55,0,0,1,.71,1.33c0,.81-.49,1.21-1.47,1.21a3.31,3.31,0,0,1-.63,0A9.3,9.3,0,0,1,188,33a3.84,3.84,0,0,1-.59-.11,2.81,2.81,0,0,0-.58,0,12.48,12.48,0,0,0-1.73.14c-.63.1-1.18.19-1.62.29l-2.22,5.93c-.58,1.52-1.08,2.9-1.51,4.14s-.86,2.47-1.23,3.68-.86,2.73-1.45,4.54q-1.11,3.49-1.88,5.79c-.51,1.52-.95,2.76-1.32,3.71a17.63,17.63,0,0,1-1,2.32A14.69,14.69,0,0,1,171.72,65c-1.48,2-3.08,3.07-4.8,3.08a3.86,3.86,0,0,1-2.19-.58,1.73,1.73,0,0,1-.87-1.5,1.66,1.66,0,0,1,.4-1.1,1.25,1.25,0,0,1,1-.47,6,6,0,0,1,.74.14,3.84,3.84,0,0,0,.59.11h.52a3.35,3.35,0,0,0,2.16-.89A7,7,0,0,0,171,61.4a8.93,8.93,0,0,1,.37-.9c.12-.26.27-.6.43-1s.36-1,.61-1.68.56-1.63,1-2.82.86-2.67,1.47-4.46L177,44l1.55-4.28Z"/><path class="cls-2" d="M191.06,37.62c.45-1.09.76-1.85.92-2.28s.31-.83.43-1.22a12.37,12.37,0,0,0-2.52.75,7.75,7.75,0,0,0-2,1.13,1.57,1.57,0,0,1-1,.36c-.54,0-.8-.34-.8-1a2.17,2.17,0,0,1,.55-1.39,5.72,5.72,0,0,1,1.48-1.25c.33-.19.61-.35.86-.47a7.41,7.41,0,0,1,.93-.35l1.41-.43c.55-.16,1.32-.35,2.22-.54,1.15-3,2.15-5.55,3-7.67s1.67-4.08,2.49-5.89a19.87,19.87,0,0,1,3.88-6.17,6.27,6.27,0,0,1,4.49-1.89,3.61,3.61,0,0,1,2.31.7,2.21,2.21,0,0,1,.87,1.81A1.77,1.77,0,0,1,210.2,13a1,1,0,0,1-.86.5,2.23,2.23,0,0,1-1.17-.57,2.31,2.31,0,0,0-1.35-.57,4.72,4.72,0,0,0-3.9,2.55,23.28,23.28,0,0,0-1.27,2.36c-.57,1.15-1.17,2.46-1.81,3.93s-1.33,3-2,4.68-1.34,3.21-1.91,4.68h1a9.9,9.9,0,0,0,1.72-.14,6.73,6.73,0,0,1,1-.07h.92a3.12,3.12,0,0,1,1.88.53,1.61,1.61,0,0,1,.7,1.33c0,.81-.49,1.21-1.47,1.21a3.21,3.21,0,0,1-.62,0,8.67,8.67,0,0,1-1.41-.39,3.84,3.84,0,0,1-.59-.11,2.91,2.91,0,0,0-.59,0,12.34,12.34,0,0,0-1.72.14c-.64.1-1.18.19-1.64.29-.86,2.43-1.64,4.4-2.21,5.93s-1.08,2.9-1.51,4.14-.86,2.47-1.23,3.68l-1.45,4.54c-.74,2.33-1.36,4.26-1.88,5.79s-1,2.76-1.32,3.71a19.37,19.37,0,0,1-1,2.32,15.53,15.53,0,0,1-1.1,1.59c-1.48,2-3.08,3.07-4.81,3.08a3.73,3.73,0,0,1-2.18-.58,1.72,1.72,0,0,1-.86-1.5,1.64,1.64,0,0,1,.4-1.1,1.25,1.25,0,0,1,1-.47,5.88,5.88,0,0,1,.73.14,3.84,3.84,0,0,0,.59.11h.53a3.32,3.32,0,0,0,2.15-.89,6.8,6.8,0,0,0,1.72-2.39c.11-.31.24-.61.37-.9s.27-.6.44-1,.37-1,.61-1.68.57-1.63,1-2.82.87-2.67,1.49-4.46,1.32-4,2.18-6.53l1.54-4.28Z"/><path class="cls-2" d="M199.8,47.09c-.08.33-.14.63-.18.89a5.6,5.6,0,0,0-.06,1q0,5.07,2.89,5.07a5.45,5.45,0,0,0,2.37-.64,10.79,10.79,0,0,0,2.59-1.79,5.83,5.83,0,0,1,.74-.57,1.18,1.18,0,0,1,.55-.14.79.79,0,0,1,.86.69v0a1.13,1.13,0,0,1,0,.26,2.38,2.38,0,0,1-.67,1.53,7.49,7.49,0,0,1-1.72,1.5,11.69,11.69,0,0,1-2.29,1.15,6.4,6.4,0,0,1-2.33.46,4.59,4.59,0,0,1-3.94-2.1,9.51,9.51,0,0,1-1.48-5.59,24,24,0,0,1,.27-3.6c.19-1.26.44-2.51.74-3.74s.68-2.45,1.11-3.64a18.08,18.08,0,0,1,1.44-3.13c1.53-2.61,3.16-3.91,4.87-3.92a3.25,3.25,0,0,1,2.71,1.64,6.9,6.9,0,0,1,1.11,4A12.24,12.24,0,0,1,206.82,44a9.25,9.25,0,0,1-2.68,2.38,6,6,0,0,1-3.11.89h-.61A1.48,1.48,0,0,1,199.8,47.09Zm.31-2.79a1.78,1.78,0,0,0,.55.18,2.62,2.62,0,0,0,.56,0,3.74,3.74,0,0,0,2.12-.68,6.73,6.73,0,0,0,1.78-1.75,9.63,9.63,0,0,0,1.27-2.47,8.64,8.64,0,0,0,.49-2.89,4.73,4.73,0,0,0-.39-2,1.24,1.24,0,0,0-1.08-.82,1.92,1.92,0,0,0-1.33.82,12.34,12.34,0,0,0-1.45,2.25,24.84,24.84,0,0,0-1.38,3.33A40.18,40.18,0,0,0,200.11,44.3Z"/></g><g class="cls-1"><path class="cls-3" d="M117.85,49.85a2,2,0,0,0,.56.57,5.49,5.49,0,0,0,1.21.67c.42.18.84.34,1.27.48s.87.26,1.32.36l.34.07h.36l.68.08a17.73,17.73,0,0,0,2.82.1,8.72,8.72,0,0,0,1.44-.18,2.78,2.78,0,0,0,.74-.19l.36-.14a2.48,2.48,0,0,0,.37-.17h.17l.17-.09h.13l.18-.13a2.27,2.27,0,0,0,.74-1.08,1.7,1.7,0,0,1,.06-.31,1.82,1.82,0,0,0,0-.33v-.31a2.25,2.25,0,0,0-.5-1l-.17-.18L130,48l-.08-.06-.07-.06h0l-.19-.12a3,3,0,0,0-.77-.31,4,4,0,0,0-.77-.13,4.69,4.69,0,0,1-.75,0h-.72l-.42-.25h-1.84a15,15,0,0,1-2.84-.12,2.44,2.44,0,0,1-.66-.15,3.48,3.48,0,0,1-.63-.26,2.87,2.87,0,0,1-.54-.37l-.06-.06-.06-.06-.11-.12v-.06l0-.07-.1-.16a3.12,3.12,0,0,1-.26-.66,1.84,1.84,0,0,1,.24-1.29,3.17,3.17,0,0,1,.4-.56,5.69,5.69,0,0,1,1.07-.89,7.63,7.63,0,0,1,1.18-.67,40.43,40.43,0,0,1,4-1.42,5.79,5.79,0,0,0,4-4.89,15.17,15.17,0,0,0,0-3.16c0-1.55-.86-5.47-1-7.79a4.13,4.13,0,0,1,.57-2.79,2.48,2.48,0,0,1,2.71-1.32,3.54,3.54,0,0,1,2.64,1.73A15.08,15.08,0,0,1,136,24.32l-.12-.6a7.13,7.13,0,0,0-1.81-3.44,3.12,3.12,0,0,0-3.27-.66,4.21,4.21,0,0,0-2.26,3.51c-.15,2.16.86,6.24,1.08,7.61.12,1,.32,4.16-.17,5.45A6,6,0,0,1,127.36,39a30.58,30.58,0,0,1-4.54,1.6c-.35.11-.82.22-1.12.32a9.09,9.09,0,0,0-1.29.55,6.38,6.38,0,0,0-1.2,1,4,4,0,0,0-.53.7,2.87,2.87,0,0,0-.34.94,2.8,2.8,0,0,0,0,1.08,3.84,3.84,0,0,0,.34.93l.12.2.06.1.08.1a1.46,1.46,0,0,0,.16.19l.07.08.08.08a3.37,3.37,0,0,0,.69.5,5.06,5.06,0,0,0,1.48.48,16.05,16.05,0,0,0,2.94.14h2.89a6.5,6.5,0,0,1,1.39.15,2.28,2.28,0,0,1,.61.24,2.24,2.24,0,0,1,.51.41,1.44,1.44,0,0,1,.29.53.8.8,0,0,1-.06.53,1.19,1.19,0,0,1-.39.47l-.12.1h-.08l-.17.09h-.16l-.3.13-.33.13-.66.18a8.9,8.9,0,0,1-1.36.19,16.72,16.72,0,0,1-2.74,0L123,51h-.32l-.33-.06c-.43-.1-.86-.21-1.28-.33a8.92,8.92,0,0,1-1.23-.42,5.41,5.41,0,0,1-1.12-.58,2,2,0,0,1-.42-.39.46.46,0,0,1-.08-.19.19.19,0,0,1,0-.15.57.57,0,0,1,.13-.21l.09-.1h0l.13-.09H119a2.26,2.26,0,0,1,.52,0,3.16,3.16,0,0,1,.53.13,6.38,6.38,0,0,1,1,.45c.67.34,1.29.73,1.9,1.07.31.17.6.33.91.47a3.66,3.66,0,0,0,.46.18l.47.09c.3,0,.59.06.86.07a6.11,6.11,0,0,0,.86-.06,2.18,2.18,0,0,0,.74-.26,1,1,0,0,0,.3-.27.93.93,0,0,0,.18-.39v-.11a.21.21,0,0,0,0-.11.41.41,0,0,0,0-.22.69.69,0,0,0-.19-.33.88.88,0,0,0-.25-.18,1.35,1.35,0,0,0-.29,0,2.32,2.32,0,0,0-.87-.07,1,1,0,0,0-.5.17.29.29,0,0,0-.13.14h.07a1.08,1.08,0,0,1,.5-.12,1.91,1.91,0,0,1,.82.13,1,1,0,0,1,.23.11,1,1,0,0,1,.22.18.51.51,0,0,1,.14.26.43.43,0,0,1,0,.16v0h0a.79.79,0,0,1-.42.51,1.87,1.87,0,0,1-.69.19,5.5,5.5,0,0,1-1.62-.09,3,3,0,0,1-.43-.11,2,2,0,0,1-.42-.19c-.29-.14-.57-.32-.87-.5-.59-.37-1.21-.78-1.88-1.16a9.7,9.7,0,0,0-1.08-.62,4.5,4.5,0,0,0-.6-.17,2.29,2.29,0,0,0-.64,0h-.17l-.17.06-.14.11-.13.09h0l-.07.06a.93.93,0,0,0-.14.14,1.24,1.24,0,0,0-.25.39,1.2,1.2,0,0,0-.08.59A1.53,1.53,0,0,0,117.85,49.85Z"/><path class="cls-4" d="M135.15,51.82a.66.66,0,0,0-.09-.19,1,1,0,0,0-.11-.17v-.08l-.06-.06a1.28,1.28,0,0,0-.28-.29l-.3-.19a2.34,2.34,0,0,0-.63-.21,2.27,2.27,0,0,0-1.91.56,3.47,3.47,0,0,0-.25.29.64.64,0,0,0-.08.14v.2a7.43,7.43,0,0,0-.16-.82,6.44,6.44,0,0,1,.13.88h0a.55.55,0,0,0,.06.45v.52a8.28,8.28,0,0,1-.37,1.91,12.36,12.36,0,0,1-.74,1.76c-.15.28-.31.55-.47.81l-.26.38-.27.36a6.48,6.48,0,0,1-2,1.39,6.39,6.39,0,0,1-1.12.37A7.4,7.4,0,0,1,125,60h-1.18a7.56,7.56,0,0,1-1.16-.18,6.42,6.42,0,0,1-1.13-.35,6.17,6.17,0,0,1-1.06-.53,5.84,5.84,0,0,1-1-.71c-.15-.14-.29-.28-.43-.43s-.26-.29-.4-.47l-.09-.12-.1-.13-.19-.26c-.12-.17-.24-.35-.35-.53a9.19,9.19,0,0,1-.59-1.12,8.2,8.2,0,0,1-.43-1.17,4.77,4.77,0,0,1-.13-1.19,3.41,3.41,0,0,1,.21-1.1,2.58,2.58,0,0,1,.22-.44,1.05,1.05,0,0,1,1.24-.07c-.36-.93-1-.83-1.21-1s0-1.08-.86-1.28a2.3,2.3,0,0,1-.16,1.59,4.13,4.13,0,0,0-.3.68,5.22,5.22,0,0,0-.25,1.62,6.2,6.2,0,0,0,.25,1.55,9.68,9.68,0,0,0,.55,1.38,11.43,11.43,0,0,0,.73,1.21c.13.2.27.38.4.56l.22.27.11.13.11.14c.15.18.31.34.47.5A5.47,5.47,0,0,0,119,59a8.31,8.31,0,0,0,1.11.75,7.72,7.72,0,0,0,2.42.83,8.67,8.67,0,0,0,1.25.12H125a6.47,6.47,0,0,0,1.24-.24,6.68,6.68,0,0,0,3.25-2.06h0a3.35,3.35,0,0,1,.07-.44c0-.15.17-.27.25-.41s.31-.56.46-.86a13,13,0,0,0,.7-1.79,8.41,8.41,0,0,0,.3-2,3.53,3.53,0,0,0,0-.46.37.37,0,0,0,.51,0l.06-.08a.54.54,0,0,0,.07-.13v-.11h0v-.07l.13-.17a1.47,1.47,0,0,1,.51-.34,1.74,1.74,0,0,1,.81-.11,1.76,1.76,0,0,1,.45.12,1.1,1.1,0,0,1,.38.27l.06.07V52l.08.1.06.13a.31.31,0,0,1,.06.13.92.92,0,0,1,.08.27.76.76,0,0,1,0,.3,2.23,2.23,0,0,1-.51,1.21,3.43,3.43,0,0,1-.49.52l-.27.22-.14.1-.16.1c-.39.24-.86.45-1.26.68a4.14,4.14,0,0,0-1.19.88.53.53,0,0,0-.12.14l-.12.15a1,1,0,0,0-.11.17l-.08.17A3.87,3.87,0,0,0,130,58a4.09,4.09,0,0,0,0,.7,2.09,2.09,0,0,0,.13.65.59.59,0,0,0,.89.32l.19-.11.16-.13a.84.84,0,0,0,.22-.31.58.58,0,0,0,0-.32.53.53,0,0,0-.11-.21.69.69,0,0,0-.13-.11.34.34,0,0,1,.12.12.4.4,0,0,1,.09.2.51.51,0,0,1,0,.3,1,1,0,0,1-.22.28l-.08.06-.09.06-.19.09a.56.56,0,0,1-.42,0,.39.39,0,0,1-.19-.12,1,1,0,0,1-.13-.23,2.33,2.33,0,0,1-.08-.59,3,3,0,0,1,.27-1.3,1,1,0,0,1,.07-.15.71.71,0,0,1,.1-.14l.1-.12a.49.49,0,0,1,.12-.13,4.11,4.11,0,0,1,1.15-.74c.43-.21.86-.38,1.32-.62l.17-.09.16-.1.32-.23a4.94,4.94,0,0,0,.57-.55,3.19,3.19,0,0,0,.46-.69,2.83,2.83,0,0,0,.17-.4,2.36,2.36,0,0,0,.08-.45,1.92,1.92,0,0,0-.1-.89A1.33,1.33,0,0,0,135.15,51.82Z"/><path class="cls-2" d="M132.32,61.35l-.39.11-.48.14-.56.14c-.41.11-.86.21-1.36.32l-1.62.3a8.7,8.7,0,0,0-.87.13c-.28,0-.61.09-.93.11h-6.65l-.24-.05-.46-.11-.45-.12a5.85,5.85,0,0,1-1.58-.79,2.66,2.66,0,0,1-.94-1.25A1.57,1.57,0,0,1,116,59a2,2,0,0,1,.39-.42h.1l.11-.06.21-.1a2.16,2.16,0,0,1,.67-.14h0a2.81,2.81,0,0,0-.71,0l-.24.06h-.26a1.74,1.74,0,0,0-.86,1.15,2.11,2.11,0,0,0,0,1,2.44,2.44,0,0,0,.38.93,3.68,3.68,0,0,0,.66.76,5.7,5.7,0,0,0,1.72,1l.49.16.49.14.25.06h.28l.49.06.51.06h4.13l.5-.06.49-.06.49-.08a5,5,0,0,0,.94-.18c.31-.07.61-.13.86-.21.58-.14,1.12-.3,1.62-.47s.94-.34,1.33-.51a5.31,5.31,0,0,0,.55-.23l.46-.22.37-.18.27-.15.22-.12-.24.07Z"/></g><path class="cls-5" d="M136,20.75a8,8,0,0,1,2.68-1.46,7.75,7.75,0,0,1,3.07-.14A2.51,2.51,0,0,1,144,20.71a4.2,4.2,0,0,1-.72,4.49A21.2,21.2,0,0,1,136,30.42l-5,2.45s10.4-4.22,13-6.08c3.38-2.45,2.49-4.73,2.15-5.75a3.71,3.71,0,0,0-1.92-1.9,7.51,7.51,0,0,0-4-.54A7.31,7.31,0,0,0,136,20.75Z"/><path class="cls-2" d="M82,1"/><path class="cls-2" d="M107.59,1"/><polyline class="cls-2" points="107.59 0.13 322.44 0.13 322.44 15.12 321.67 15.12 321.67 1.03 107.59 1.03"/><line class="cls-6" x1="81.94" y1="0.58" x2="107.59" y2="0.58"/><polyline class="cls-2" points="81.97 1.03 0.94 1.03 0.94 72.78 321.67 72.78 321.67 33.04 322.44 33.04 322.44 73.68 0.17 73.68 0.17 0.13 81.94 0.13"/><rect class="cls-2" x="321.96" y="14.72" width="0.19" height="21.11"/><rect class="cls-2" x="73.73" y="51.8" width="0.9" height="21.43"/><rect class="cls-2" x="73.73" y="0.58" width="0.9" height="23.58"/><rect class="cls-2" x="119.23" y="0.58" width="0.9" height="23.58"/><rect class="cls-2" x="165.11" y="0.58" width="0.9" height="23.58"/><rect class="cls-2" x="165.11" y="49.97" width="0.9" height="23.58"/><rect class="cls-2" x="119.23" y="49.91" width="0.9" height="23.58"/><path class="cls-2" d="M270.19,73.23h-14.4V60.9l.11-.29V56.87h0v-2c.1-2.75-2.13-4.47-7-5.42-3.07-.6-6.9-1-12.88-1.55-9-.8-18.26.52-25.45,3.63a4.66,4.66,0,0,0-2.82,4.71c.08.68.33,1,.52,1.06,2.86.51,4.9,3.72,4.38,6.86-.23,1.38-1.62,5.78-9.78,4.52-.1,0-10.16-1.68-10.12-10.88A17.38,17.38,0,0,1,198.17,45c6.19-5.88,17.22-8.49,32.79-7.77,12.44.58,17.61,2.37,22.34,5.27,3.25,2,4.2,3.18,4.44,3.54a8.1,8.1,0,0,1,6,3.14c3.58,4.7,2.35,12.94,2.08,14.49a5.71,5.71,0,0,1,3.41,1.78c2.7,3,1.16,7.38,1.1,7.57Zm-13.95-.45h13.63c.24-.79,1.2-4.51-1.05-7a5.34,5.34,0,0,0-3.35-1.67h-.27l.05-.25c0-.1,1.81-9.45-1.94-14.37a7.7,7.7,0,0,0-5.8-3h-.13l-.05-.12s-.63-1.19-4.34-3.47c-4.78-2.93-9.72-4.63-22.13-5.2-15.45-.72-26.37,1.86-32.46,7.65a16.86,16.86,0,0,0-5.28,12.44c0,8.81,9.64,10.41,9.74,10.43,5.23.81,8.69-.74,9.26-4.15.48-2.86-1.43-5.89-4-6.35-.46-.09-.79-.63-.88-1.45a5.09,5.09,0,0,1,3.08-5.18c7.26-3.13,16.62-4.46,25.67-3.65,6,.54,9.84.94,12.93,1.54,5.15,1,7.5,2.88,7.4,5.87h0v5.8l-.11.29Z"/><path class="cls-2" d="M214.5,58.91h0s-.06.21-.17.27a2.31,2.31,0,0,1-.72.22,4.94,4.94,0,0,1-1.33,0,.45.45,0,0,1-.37-.4V57.55a.43.43,0,0,1,.4-.46h.39V56.4s0-.07,0-.08a1.32,1.32,0,0,1-.61-.51,2.69,2.69,0,0,1-.44-1.26,3.31,3.31,0,0,1,.2-1.62,2.12,2.12,0,0,1,.37-.61,1,1,0,0,1,1.4-.19,1.14,1.14,0,0,1,.19.19,2.51,2.51,0,0,1,.54,1.21,3.26,3.26,0,0,1-.21,1.9,1.72,1.72,0,0,1-.48.68.79.79,0,0,1-.23.14.19.19,0,0,0-.12.2V57c0,.18,0,.09.08.09a2.69,2.69,0,0,1,.89.21h0c.2.11.2.11.22.33H216V57c0-.13,0-.15.15-.16h0v-.62a.17.17,0,0,0,0-.1.35.35,0,0,1-.14-.27l-.12-2.09-.06-.88a.72.72,0,0,1,.38-.71.76.76,0,0,1,1,.28.72.72,0,0,1,.1.43l-.06,1.1c0,.62-.08,1.24-.11,1.86a.41.41,0,0,1-.15.29.11.11,0,0,0,0,.08v.56c0,.06,0,.07.06.07s.14,0,.14.14v.69h.53a.56.56,0,0,1,.57.55h0a.89.89,0,0,1,0,.23.55.55,0,0,1-.53.48h-.35a1.15,1.15,0,0,0,.05.41l.09.62a.13.13,0,0,1-.08.15l-.65.33c-.1,0-.14,0-.18-.05L216,59a.12.12,0,0,0-.14-.09Zm-2.4-.63h0V59a.24.24,0,0,0,.21.27h0a5.4,5.4,0,0,0,1.27,0,2.07,2.07,0,0,0,.64-.2s.05,0,.05-.1V57.6a.09.09,0,0,0-.06-.1,2,2,0,0,0-.63-.2,5.23,5.23,0,0,0-1.25,0c-.18,0-.26.1-.26.29Zm5.05-4.65h0v-.82a.55.55,0,0,0-.39-.56.58.58,0,0,0-.72.39.6.6,0,0,0,0,.23c0,.56.06,1.13.1,1.7,0,.41,0,.82.07,1.23,0,.13.07.18.2.18h.39c.13,0,.19,0,.19-.18.09-.72.13-1.44.18-2.17Zm-1,5.09h1.6a.35.35,0,0,0,.35-.35v0a.29.29,0,0,0,0-.13.36.36,0,0,0-.33-.39h-3.23c-.06,0-.07,0-.07.08v.72c0,.07,0,.09.09.09Zm-2-4.57h0a3.38,3.38,0,0,0-.1-.7,2.1,2.1,0,0,0-.47-1,.81.81,0,0,0-1.14-.13.8.8,0,0,0-.13.13A1.61,1.61,0,0,0,212,53a3.15,3.15,0,0,0-.07,2.22,1.82,1.82,0,0,0,.43.75.79.79,0,0,0,1.1.07.46.46,0,0,0,.07-.07,1.57,1.57,0,0,0,.3-.38,2.71,2.71,0,0,0,.37-1.41Zm2.64,6.07.54-.28v-.07a6.44,6.44,0,0,0-.13-.88c0-.06,0-.08-.09-.08h-1Zm.22-2.58V57h-.78v.63Zm-.2-.83v-.6h-.39v.6h.39Zm-3.75.25v-.69h-.18v.68Z"/><path class="cls-2" d="M211.92,54.15a2.73,2.73,0,0,1,.35-1.34,1.13,1.13,0,0,1,.22-.27.68.68,0,0,1,1,0l0,0a2,2,0,0,1,.4.85,3.14,3.14,0,0,1-.07,1.61,1.52,1.52,0,0,1-.4.68.69.69,0,0,1-1,0l0,0a1.83,1.83,0,0,1-.43-.91A1.74,1.74,0,0,0,211.92,54.15Zm.21,0a2.53,2.53,0,0,0,.23,1.12,1,1,0,0,0,.35.44.44.44,0,0,0,.55,0,1,1,0,0,0,.33-.43,2.76,2.76,0,0,0,.07-2,1.28,1.28,0,0,0-.37-.57.44.44,0,0,0-.62,0,1.42,1.42,0,0,0-.25.3,2.31,2.31,0,0,0-.29,1.12Z"/><path class="cls-2" d="M221.25,57.37h0a.28.28,0,0,1-.17.27,2.18,2.18,0,0,1-.71.22,5,5,0,0,1-1.34,0,.43.43,0,0,1-.36-.41V56a.43.43,0,0,1,.4-.46h.4v-.67a.06.06,0,0,0,0-.08,1.23,1.23,0,0,1-.6-.5,2.63,2.63,0,0,1-.45-1.27,3.16,3.16,0,0,1,.21-1.61,2.12,2.12,0,0,1,.37-.61,1,1,0,0,1,1.4-.18.77.77,0,0,1,.18.18,2.34,2.34,0,0,1,.54,1.21,3.18,3.18,0,0,1-.2,1.9,1.94,1.94,0,0,1-.49.68,1,1,0,0,1-.22.14.16.16,0,0,0-.12.2,4.69,4.69,0,0,1,0,.53c0,.07,0,.08.09.09a2.46,2.46,0,0,1,.88.21h0c.2.1.2.1.22.33h1.52a.11.11,0,0,0,0-.08v-.59c0-.13,0-.14.15-.15h0v-.63a.14.14,0,0,0,0-.09.37.37,0,0,1-.13-.27c0-.7-.09-1.4-.13-2.09v-.88a.76.76,0,0,1,1.16-.7.72.72,0,0,1,.36.7,5.86,5.86,0,0,1-.07,1.1c0,.62-.07,1.24-.11,1.86a.37.37,0,0,1-.14.29.11.11,0,0,0,0,.08v.56a.07.07,0,0,0,.07.07c.07,0,.13,0,.13.14v.68h.54a.55.55,0,0,1,.56.54v.25a.54.54,0,0,1-.53.48h-.35l.06.4a1.46,1.46,0,0,0,.09.62.13.13,0,0,1-.08.15l-.66.34c-.09,0-.13,0-.18-.06-.24-.45-.47-.91-.7-1.37a.14.14,0,0,0-.14-.09h-1.32Zm-2.41-.63h0v.72a.24.24,0,0,0,.21.27h0a5.31,5.31,0,0,0,1.26,0,2.07,2.07,0,0,0,.64-.2s.06,0,.06-.1V56.06s0-.05,0-.06a2,2,0,0,0-.63-.2,5.23,5.23,0,0,0-1.25,0c-.18,0-.26.1-.27.29Zm5-4.65h0v-.82a.55.55,0,0,0-.4-.56.58.58,0,0,0-.72.39.6.6,0,0,0,0,.23c0,.56.07,1.13.1,1.7a6.36,6.36,0,0,0,.08,1.23.16.16,0,0,0,.16.18h.43a.18.18,0,0,0,.19-.15v0a16,16,0,0,0,.23-2.17Zm-1,5.09h1.6a.35.35,0,0,0,.36-.34v-.15a.36.36,0,0,0-.33-.39h-3.23c-.06,0-.08,0-.08.08v.71c0,.23,0,.1.1.1Zm-2-4.58h0a4.49,4.49,0,0,0-.1-.71,2.08,2.08,0,0,0-.48-1,.8.8,0,0,0-1.12-.15.54.54,0,0,0-.15.15,1.77,1.77,0,0,0-.33.52,3.15,3.15,0,0,0-.08,2.22,1.84,1.84,0,0,0,.44.75.79.79,0,0,0,1.12,0l.05,0a2.12,2.12,0,0,0,.29-.38,2.78,2.78,0,0,0,.44-1.4Zm2.63,6.08c.19-.09.37-.18.54-.28v-.08l-.12-.88c0-.06,0-.07-.09-.07h-1Zm.22-2.59v-.63H223v.63Zm-.19-.82v-.6h-.39v.6h.39Zm-3.76.25v-.69h-.17v.68Z"/><path class="cls-2" d="M218.67,52.61a2.72,2.72,0,0,1,.34-1.34,1.51,1.51,0,0,1,.22-.28.7.7,0,0,1,1,0,.27.27,0,0,1,.07.08,1.94,1.94,0,0,1,.39.85,3.14,3.14,0,0,1-.07,1.61,1.49,1.49,0,0,1-.4.67.67.67,0,0,1-1,0l0,0a1.72,1.72,0,0,1-.43-.91A4.58,4.58,0,0,1,218.67,52.61Zm.2,0a2.6,2.6,0,0,0,.23,1.13,1.09,1.09,0,0,0,.35.44.44.44,0,0,0,.55,0,1,1,0,0,0,.33-.43,2.71,2.71,0,0,0,.07-2,1.14,1.14,0,0,0-.37-.57.45.45,0,0,0-.61,0,1.48,1.48,0,0,0-.26.3,2.5,2.5,0,0,0-.29,1.1Z"/><path class="cls-2" d="M228,56.48h0s0,.22-.17.28a2.18,2.18,0,0,1-.71.22,5.92,5.92,0,0,1-1.33,0,.42.42,0,0,1-.37-.4v-1.5a.43.43,0,0,1,.39-.47h.4v-.67a.06.06,0,0,0,0-.08,1.36,1.36,0,0,1-.61-.5,2.78,2.78,0,0,1-.45-1.27,3.27,3.27,0,0,1,.21-1.61,2.12,2.12,0,0,1,.37-.61,1,1,0,0,1,1.4-.19,1.14,1.14,0,0,1,.19.19,2.5,2.5,0,0,1,.54,1.22,3.26,3.26,0,0,1-.21,1.9,1.69,1.69,0,0,1-.48.67,1.14,1.14,0,0,1-.23.15.18.18,0,0,0-.12.19,4.69,4.69,0,0,1,0,.53c0,.08,0,.09.09.1a2.46,2.46,0,0,1,.89.2h0c.2.1.2.1.22.33h1.52v-.67c0-.13,0-.15.15-.15h0a.09.09,0,0,0,0-.07v-.55a.11.11,0,0,0-.05-.09.41.41,0,0,1-.13-.28l-.12-2.09-.06-.88a.74.74,0,0,1,.38-.71.73.73,0,0,1,.78,0,.72.72,0,0,1,.36.7l-.06,1.11c0,.62-.08,1.23-.11,1.85a.44.44,0,0,1-.15.3.11.11,0,0,0,0,.08v.56s0,.07.06.07.14,0,.14.13v.69h.53a.54.54,0,0,1,.56.52V56a.56.56,0,0,1-.53.47h-.36a.93.93,0,0,0,.06.41l.09.62a.12.12,0,0,1-.08.15h0l-.66.34c-.09,0-.13,0-.18-.06l-.7-1.37a.14.14,0,0,0-.14-.09h-1.23Zm-2.4-.63h0v.73a.23.23,0,0,0,.2.26h0a4.5,4.5,0,0,0,1.27,0,1.65,1.65,0,0,0,.64-.2.08.08,0,0,0,0-.09V55.18a.11.11,0,0,0-.06-.1,1.78,1.78,0,0,0-.63-.2,5.23,5.23,0,0,0-1.25,0,.26.26,0,0,0-.26.26v0Zm5-4.64h0v-.82a.55.55,0,0,0-.4-.56.57.57,0,0,0-.72.37.65.65,0,0,0,0,.24c0,.57.07,1.14.11,1.7a7.25,7.25,0,0,0,.07,1.23.18.18,0,0,0,.17.19h.42c.13,0,.18-.06.19-.18a20.19,20.19,0,0,0,.22-2.17Zm-1,5.08h1.6a.35.35,0,0,0,.35-.35h0V55.8a.35.35,0,0,0-.31-.39H228c-.06,0-.07,0-.07.07v.72c0,.08,0,.1.09.09Zm-2-4.57h0a3.38,3.38,0,0,0-.1-.71,2,2,0,0,0-.47-1,.81.81,0,0,0-1.14-.14l-.14.14a1.77,1.77,0,0,0-.33.52,3.15,3.15,0,0,0-.08,2.22,1.8,1.8,0,0,0,.44.74.79.79,0,0,0,1.1.07l.07-.07a1.85,1.85,0,0,0,.3-.39,2.92,2.92,0,0,0,.41-1.38Zm2.64,6.08.54-.28v-.08a6.67,6.67,0,0,0-.13-.88c0-.06,0-.08-.09-.08h-1Zm.21-2.59v-.63h-.77v.63Zm-.19-.82v-.61h-.39v.59h0Zm-3.75.24v-.69h-.18v.68Z"/><path class="cls-2" d="M225.41,51.72a2.83,2.83,0,0,1,.34-1.33,1.56,1.56,0,0,1,.23-.28.69.69,0,0,1,1,0l.07.09a1.79,1.79,0,0,1,.39.85,2.94,2.94,0,0,1-.06,1.61,1.64,1.64,0,0,1-.4.67.69.69,0,0,1-1,0l0,0a1.86,1.86,0,0,1-.43-.92A3.71,3.71,0,0,1,225.41,51.72Zm.21,0a2.52,2.52,0,0,0,.22,1.12,1.06,1.06,0,0,0,.36.45.44.44,0,0,0,.55,0,1.19,1.19,0,0,0,.33-.44,2.76,2.76,0,0,0,.07-2,1.28,1.28,0,0,0-.37-.57.46.46,0,0,0-.62,0,1.42,1.42,0,0,0-.25.3,2.31,2.31,0,0,0-.29,1.12Z"/><path class="cls-2" d="M252.16,66.85H246.4V62h.07c.21-.09,9,0,9,0h.08v4.82h-.07C255.41,66.84,253.92,66.85,252.16,66.85Zm-5.53-.24h8.71V62.14h-8.71Z"/><path class="cls-2" d="M248.24,68.25H246.4V66.76h9.16v1.46h-.07a32.51,32.51,0,0,1-3.42,0H252V68a.45.45,0,0,1,.22-.36.13.13,0,0,0,0-.17.14.14,0,0,0-.11-.13,3.9,3.9,0,0,0-1.36-.15,8.31,8.31,0,0,0-1,.15.19.19,0,0,0-.16.11.23.23,0,0,0,0,.2.9.9,0,0,1,.17.47v.09h-.08A10.91,10.91,0,0,1,248.24,68.25ZM246.62,68h3a.43.43,0,0,0-.1-.24.43.43,0,0,1-.09-.42.42.42,0,0,1,.32-.27c.33-.06.63-.11.92-.14h-4.09V67C246.61,67.36,246.61,67.68,246.62,68Zm5.62,0h3.1V66.93H251.5a4.62,4.62,0,0,1,.74.15.38.38,0,0,1,.27.32.34.34,0,0,1-.16.4c-.07,0-.09.1-.11.2Z"/><path class="cls-2" d="M248.71,71.1l-1.65-.82.72-1.17.54-.86a.32.32,0,0,1,.29-.16H250Zm-1.33-.91,1.22.61,1.09-2.49H248.6a.11.11,0,0,0-.09.06l-.54.86Z"/><path class="cls-2" d="M256.57,65.86h-.42v-.07a22.38,22.38,0,0,1,0-2.59v-.08H257v2.73h-.43Zm-.24-.23a3.53,3.53,0,0,0,.46,0v-2.3h-.48c0,.4,0,1.93,0,2.3Z"/><path class="cls-2" d="M252.09,68.32l-.68-.33.08-.52h-.09l-1.46.33a.32.32,0,0,1-.41-.19s0,0,0,0a.32.32,0,0,1,0-.27.33.33,0,0,1,.23-.17,4.29,4.29,0,0,0,.6-.13,4.65,4.65,0,0,1,1.78.11.37.37,0,0,1,.28.28.37.37,0,0,1-.19.39.11.11,0,0,0,0,.08,1.6,1.6,0,0,0-.05.21Zm-.43-.46.28.14.06-.2a.43.43,0,0,1,.15-.2.14.14,0,0,0,.08-.16s0-.07-.12-.1l-.37-.08ZM251,67.2a4.38,4.38,0,0,0-1.19.16.15.15,0,0,0-.09.06.17.17,0,0,0,0,.1.1.1,0,0,0,.13.08h0l1.45-.32h.21A5,5,0,0,0,251,67.2Z"/><path class="cls-2" d="M250,68.44h-.14l-.17-.73,2-.46-.05.3a.61.61,0,0,1-.07.35.37.37,0,0,1-.16.15l-1.39.39Zm0-.56.08.33,1.34-.38h0l.06-.28Z"/><path class="cls-2" d="M246.19,68.25H246a.28.28,0,0,1-.17-.07.2.2,0,0,1-.06-.15V66.7h.73V68c0,.23-.06.29-.29.3ZM246,66.93V68h.36V66.93Z"/><path class="cls-2" d="M255.87,68.25h-.23a.2.2,0,0,1-.22-.18v-1.2a.11.11,0,0,1,0-.08v-.06h.73V68c0,.35-.06.28-.29.29Zm-.23-.23H256V66.93h-.36c0,.36,0,.73,0,1.07Z"/><path class="cls-2" d="M248.3,71.37l-.2-.1-.35-.19h-.1l-.35-.18a.29.29,0,0,1-.2-.33v-.3h.11a8.8,8.8,0,0,1,1.45.7l.11.09Zm-1-.88v.05a.12.12,0,0,0,.07.11l.37.18h.09l.36.19h.07l.11-.09a11.26,11.26,0,0,1-1.05-.44Z"/><path class="cls-2" d="M250.56,68.62a1,1,0,0,1-.33-.06H250v-.18l.08-.06.77-.22L251,68l.32-.09a.45.45,0,0,1,.36,0l.17.09.32.16-.27.12h-.09l-.41.1-.71.16A.35.35,0,0,1,250.56,68.62Zm-.12-.24a.74.74,0,0,0,.21,0l.71-.17.26-.06h-.05a.19.19,0,0,0-.18,0l-.32.1-.18,0Z"/><path class="cls-2" d="M246.53,66.84h-.77v-12c0-.24.06-.3.31-.3h10.12v.06c.09.18.05,12.07,0,12.15v.08h-.74V62.07h-8.86v4.59Zm-.57-.23h.36V61.84h9.27V62a.43.43,0,0,1,0,.16v4.42H256V54.72H246V66.61Zm6.62-4.84h-3.19V61a.22.22,0,0,1,.14-.18h2.72c.26,0,.32,0,.32.32Zm-3-.23h2.73V61h-2.73v.54Z"/><path class="cls-2" d="M250.32,61.72h-.85V60.9h1.58v.81h-.73Zm-.63-.23h1.14v-.37h-1.14Z"/><path class="cls-2" d="M252.49,61.7h-1.57v-.81h1.57Zm-1.35-.22h1.13v-.37h-1.13Z"/><path class="cls-2" d="M225.74,62v2.12a2.09,2.09,0,0,1,.4-.19l.49-.21q.26-.11.51-.24a2.87,2.87,0,0,0,.48-.28,4.45,4.45,0,0,0,.78-.72,1,1,0,0,0,.27-.61.61.61,0,0,0,0-.19l-.09-.15a1.44,1.44,0,0,0-.4-.13,3.42,3.42,0,0,0-.64,0,4.37,4.37,0,0,0-.72.06,5.42,5.42,0,0,0-.7.14,6.32,6.32,0,0,0-.62.18L225,62l-.36.16-.17.07h-.07a.09.09,0,0,1-.07,0,.11.11,0,0,1-.1-.06.24.24,0,0,1,0-.12.18.18,0,0,1-.08-.07v-.11a.21.21,0,0,1,0-.11v-.08a.28.28,0,0,1,.1-.21,1.4,1.4,0,0,1,.26-.16l.18-.08.35-.14.47-.18.57-.17a6.19,6.19,0,0,1,.62-.13,3.32,3.32,0,0,1,.63,0h.48a4,4,0,0,1,.5.09,1.83,1.83,0,0,1,.46.18,1,1,0,0,1,.37.31,1.19,1.19,0,0,1,.29.34,1.17,1.17,0,0,1,.12.52,1.27,1.27,0,0,1,0,.39,1.05,1.05,0,0,1-.06.24,2.25,2.25,0,0,1-.39.65,2.73,2.73,0,0,1-.5.46,4.86,4.86,0,0,1-.54.33l-.49.22h.5a3,3,0,0,1,.51.08,2,2,0,0,1,.48.18,2.16,2.16,0,0,1,.43.29l.23.3c.06.11.11.22.16.33a1.41,1.41,0,0,1,.07.41,1.71,1.71,0,0,1,0,.32,3.38,3.38,0,0,1,0,.45,2.15,2.15,0,0,1-.15.51,2.06,2.06,0,0,1-.35.61,4.1,4.1,0,0,1-.64.61,3.78,3.78,0,0,1-1,.51,3.63,3.63,0,0,1-.66.21,2.57,2.57,0,0,1-.55.06,1,1,0,0,1-.25,0,1.14,1.14,0,0,1-.25-.06.78.78,0,0,1-.2-.11.18.18,0,0,1-.08-.15.09.09,0,0,0,0-.07h-.06a.46.46,0,0,1-.07.16l-.07.09a.21.21,0,0,1-.1.06h0a.21.21,0,0,1-.06.1.09.09,0,0,1-.07,0H225l-.06-.08a.72.72,0,0,1-.07-.25,2.13,2.13,0,0,0-.06-.55,5.44,5.44,0,0,1,0-1V62.87a4,4,0,0,1,.07-.48.52.52,0,0,1,.1-.26.39.39,0,0,1,.17-.11l.23-.1.2-.07h.13A.14.14,0,0,1,225.74,62Zm.2,3a.24.24,0,0,1-.12,0l-.17-.11v3.35a1.07,1.07,0,0,1,.15-.22l.15-.17a.64.64,0,0,1,.15-.13.17.17,0,0,1,.1,0h.06a.09.09,0,0,1,.07,0v.15a.21.21,0,0,1,0,.11l-.08.09-.09.07-.06.07h.45a2.71,2.71,0,0,0,.41-.09,3.57,3.57,0,0,0,.57-.23,4.08,4.08,0,0,0,.72-.44,3.2,3.2,0,0,0,.53-.51,2.53,2.53,0,0,0,.31-.49,1.61,1.61,0,0,0,.17-.65.64.64,0,0,0-.18-.39,1.4,1.4,0,0,0-.42-.3,2.8,2.8,0,0,0-.62-.2,4.76,4.76,0,0,0-.75-.07,3.84,3.84,0,0,0-.48,0l-.37.07-.27.07Z"/><path class="cls-2" d="M234.08,65.55a4,4,0,0,1,0,.49,5.15,5.15,0,0,1-.09.62c0,.22-.07.45-.1.68s0,.44,0,.66v.38a1.12,1.12,0,0,0,.1.31.33.33,0,0,1,0,.14.17.17,0,0,1,0,.1v.13a.09.09,0,0,1,0,.07.18.18,0,0,1-.05.07h-.16a.17.17,0,0,0-.1,0h-.06m-.05,0-.21-.12a.28.28,0,0,1-.15-.15.37.37,0,0,1-.05-.11v-.68a3,3,0,0,1-.41.6,2.54,2.54,0,0,1-.43.37,1.4,1.4,0,0,1-.43.2,1.32,1.32,0,0,1-.39.06.81.81,0,0,1-.31,0l-.21-.11a4.4,4.4,0,0,1-.4-.46.44.44,0,0,1-.11-.29,2,2,0,0,1,.18-.68,2.72,2.72,0,0,1,.37-.58,3.27,3.27,0,0,1,.51-.47,5.65,5.65,0,0,1,.57-.38,6.11,6.11,0,0,1,.58-.27,5.17,5.17,0,0,1,.51-.18V65.4a1.93,1.93,0,0,0,0-.34,1.23,1.23,0,0,0-.26-.54.61.61,0,0,0-.44-.17.53.53,0,0,0-.32.12,1.18,1.18,0,0,0-.3.33,1.74,1.74,0,0,0-.22.48,2.82,2.82,0,0,0-.09.57.33.33,0,0,0,0,.14v.15h-.31l-.07-.06-.1-.06h-.15a1.89,1.89,0,0,1,.16-.74,2.71,2.71,0,0,1,.42-.69,2.43,2.43,0,0,1,.63-.52,1.53,1.53,0,0,1,.75-.2,1.35,1.35,0,0,1,.56.1,1.33,1.33,0,0,1,.41.25,1.31,1.31,0,0,1,.27.35,1.84,1.84,0,0,1,.17.38,2.22,2.22,0,0,1,.09.37c-.33.06-.32.15-.31.23ZM233,66.55l-.38.17a2.91,2.91,0,0,0-.42.25,4.35,4.35,0,0,0-.43.32c-.14.13-.27.27-.4.41a2.13,2.13,0,0,0-.31.47,1.4,1.4,0,0,0-.13.34.41.41,0,0,0,0,.22.16.16,0,0,0,.08.1.48.48,0,0,0,.37,0,1.18,1.18,0,0,0,.39-.19l.37-.34c.12-.14.24-.27.34-.41a3.13,3.13,0,0,0,.29-.42,2.5,2.5,0,0,0,.21-.35Z"/><path class="cls-2" d="M237.81,64.78a1.82,1.82,0,0,1,0,.33,1.55,1.55,0,0,1-.07.31,1.19,1.19,0,0,1-.11.26.9.9,0,0,1-.15.19.36.36,0,0,1-.11.06h-.07v-.05h-.07a.09.09,0,0,1-.07,0,.09.09,0,0,1-.07,0,.33.33,0,0,1,0-.14,1.31,1.31,0,0,1,0-.28v-.35a1,1,0,0,0,0-.25.1.1,0,0,0-.11-.1.35.35,0,0,0-.14.06.78.78,0,0,0-.22.26,2.9,2.9,0,0,0-.25.57,5.69,5.69,0,0,0-.19,1v2a1.82,1.82,0,0,1,0,.33c0,.06,0,.11-.06.12a.21.21,0,0,1-.11,0h-.53a.39.39,0,0,1-.1-.08l-.09-.09a.14.14,0,0,1,0-.09,1.13,1.13,0,0,1,0-.26V64.23h.08l.08,0h.09l.14.08h.07v.09a.33.33,0,0,1,0,.14v.24a2.41,2.41,0,0,0,0,.38,3.26,3.26,0,0,1,.15-.44,2.74,2.74,0,0,1,.21-.42,1.22,1.22,0,0,1,.31-.33.73.73,0,0,1,.41-.12h.27a.75.75,0,0,1,.24.15.85.85,0,0,1,.17.25A.67.67,0,0,1,237.81,64.78Z"/><text class="cls-7" transform="translate(302 25.94)"><tspan class="cls-8">V</tspan><tspan x="3.52" y="0">CHOD</tspan></text><text class="cls-7" transform="translate(86.69 8)">TE<tspan class="cls-8" x="6.62" y="0">R</tspan><tspan class="cls-9" x="9.88" y="0">A</tspan><tspan x="13.22" y="0">SA</tspan></text><path class="cls-2" d="M83.83,13.85l0,0a.1.1,0,0,0,0,0,.19.19,0,0,1,0,.07s0,.05,0,.06h-.11l-.19,0h-.63l-.24,0-.32,0c0,.11,0,.23,0,.35v1.24a.69.69,0,0,1,0,.13.11.11,0,0,1-.07.08L82,16l-.07,0h-.11l0,0,0-.05a.14.14,0,0,0,0-.07l0-.1a1.41,1.41,0,0,0,0-.18c0-.08,0-.18,0-.31s0-.23,0-.38a4.46,4.46,0,0,1,0-.5c0-.17,0-.35,0-.53s0-.36.05-.51l0-.42c0-.12,0-.2,0-.26v-.12s0-.07,0-.11v-.12h-.18l-.08,0-.07,0-.06,0s0,0,0-.05a0,0,0,0,1,0,0s0,0,0,0h0s0-.06,0-.07,0,0,0,0l0,0,0,0,0,0,0,0,0,0h0l.06,0,.13,0,.18,0,.18,0h.21l.34,0h1.23l.11,0,.06,0,0,0v0l0,0,0,0V12a.07.07,0,0,0,0,.05.13.13,0,0,0,0,.06,0,0,0,0,0,0,0,.35.35,0,0,0,0,.06s0,0,0,0h-1.7l-.29,0c0,.3,0,.56,0,.79s0,.4,0,.54l.3-.05.24,0,.22,0h.45l.17,0,.1,0s.06,0,.07,0a.13.13,0,0,1,0,.07l0,.08A0,0,0,0,1,83.83,13.85Z"/><path class="cls-2" d="M87.08,15.89s0,0,0,0h-.12l0,0V16h0l0,0h-.07l0,0-.12,0-.07,0s0,0-.06-.05a.2.2,0,0,1,0-.08.49.49,0,0,1,0-.11l0-.1-.28-.9H85.3l-.58,0-.35.89,0,.06,0,.09a.46.46,0,0,1,0,.09l0,.06s0,0,0,0l0,0s0,0,0,0l0,0h-.06a.09.09,0,0,1-.06,0A.08.08,0,0,1,84,16v-.18a.29.29,0,0,1,0-.09.62.62,0,0,1,0-.11l.08-.22.1-.29.12-.29a.1.1,0,0,1-.08,0s0,0,0,0h0l0,0s0,0,0,0,0,0,0,0,0,0,0-.06,0,0,0,0l.07,0,.09,0h.15c0-.1.09-.22.15-.34s.11-.24.17-.36.11-.25.17-.38l.17-.35.14-.3.11-.23c0-.08,0-.14-.06-.2a1.56,1.56,0,0,0,0-.16l0-.11a.1.1,0,0,1,0,0h0s0,0,0,0a.13.13,0,0,1,0-.07h.19l0,0v0h.1a0,0,0,0,0,0,0h0s0,0,.06.08a.53.53,0,0,1,0,.11c0,.06.06.15.1.25s.09.22.14.36l.16.42.17.47.17.48.27.8q.12.33.18.54c0,.14.08.24.11.31a.49.49,0,0,0,0,.12l0,.08A.11.11,0,0,1,87.08,15.89Zm-1.26-2-.17-.49c-.06-.18-.12-.36-.17-.53l-.12.31-.15.37-.15.38-.13.32-.08.19.53,0H86Z"/><path class="cls-2" d="M89.15,11.74c0,.07,0,.16,0,.28s0,.26,0,.41,0,.32,0,.5,0,.36,0,.55,0,.42,0,.64,0,.42,0,.61-.06.39-.1.56a3.33,3.33,0,0,1-.16.45,2,2,0,0,1-.14.22,1.15,1.15,0,0,1-.23.21.85.85,0,0,1-.3.15.73.73,0,0,1-.39,0,.75.75,0,0,1-.28-.11.92.92,0,0,1-.22-.22,1.25,1.25,0,0,1-.15-.28,1.06,1.06,0,0,1,0-.31,1.66,1.66,0,0,1,0-.32l.09-.26a1.57,1.57,0,0,1,.12-.19l.11-.11.07,0h.21v0h0s0,0,0,0a0,0,0,0,0,0,0h.06l0,0-.07.06a.47.47,0,0,0-.06.09,1.24,1.24,0,0,0-.12.32,2.09,2.09,0,0,0,0,.34,1.23,1.23,0,0,0,0,.2.69.69,0,0,0,0,.17.36.36,0,0,0,.08.12.16.16,0,0,0,.11.05.33.33,0,0,0,.27-.07,1,1,0,0,0,.21-.27,2.3,2.3,0,0,0,.17-.39l.12-.44c0-.15,0-.29.07-.43s0-.25,0-.34,0-.26,0-.39v-.38c0-.23,0-.44,0-.65s0-.39,0-.55,0-.3,0-.4a.78.78,0,0,0,0-.19,0,0,0,0,1,0,0h0s0,0,0,0,0,0,0,0l0,0h.17v0l0,0h0s0,0,0,0h0v0h0l0,0,0,.05s0,0,0,.09A1.76,1.76,0,0,0,89.15,11.74Z"/><path class="cls-2" d="M92.1,11.88h.24l.26.06.23.11a.4.4,0,0,1,.17.17.39.39,0,0,1,.13.15.48.48,0,0,1,.06.21.71.71,0,0,1,0,.21A.62.62,0,0,1,93,13l-.13.13-.14.1-.11.06-.07,0h0l-.06,0-.09-.05.06,0,.12-.1a.83.83,0,0,0,.13-.18.54.54,0,0,0,0-.27.23.23,0,0,0-.07-.1.38.38,0,0,0-.12-.09l-.18-.06-.24,0H92l-.23.06a2,2,0,0,0-.29.1,1.66,1.66,0,0,0-.32.17,2.32,2.32,0,0,0-.3.26,1.87,1.87,0,0,0-.26.35,2.17,2.17,0,0,0-.17.47,2.25,2.25,0,0,0-.07.6,1.69,1.69,0,0,0,0,.33,1.73,1.73,0,0,0,.08.27,1.39,1.39,0,0,0,.11.21,1.07,1.07,0,0,0,.14.16l.09.06a.48.48,0,0,0,.16.07,1,1,0,0,0,.24.06,2,2,0,0,0,.38,0,1.58,1.58,0,0,0,.38,0,2,2,0,0,0,.34-.12,2.69,2.69,0,0,0,.29-.16l.23-.18.17-.16.09-.11.08-.1,0,0h.06a0,0,0,0,0,0,0s0,0,0,0,0,0,0,0a.43.43,0,0,1,0,.05s0,0,0,0v0l0,.12a1.86,1.86,0,0,1-.09.24,1.58,1.58,0,0,1-.17.3,1.27,1.27,0,0,1-.28.29,1.45,1.45,0,0,1-.41.22,1.72,1.72,0,0,1-.58.09,1.53,1.53,0,0,1-.38,0,1.32,1.32,0,0,1-.3-.09.83.83,0,0,1-.25-.12l-.17-.12a1.48,1.48,0,0,1-.29-.22,1.34,1.34,0,0,1-.24-.32,1.54,1.54,0,0,1-.17-.43,2.26,2.26,0,0,1-.06-.55,2,2,0,0,1,.08-.6A1.94,1.94,0,0,1,90.2,13a2.66,2.66,0,0,1,.35-.46,2.42,2.42,0,0,1,.45-.34,2,2,0,0,1,.53-.22A1.83,1.83,0,0,1,92.1,11.88Zm.09-.34,0,0a.05.05,0,0,1,0,0h-.28l0,0,0-.07a.75.75,0,0,1-.08-.14l-.15-.28-.09-.15-.08-.1a.59.59,0,0,1,0-.08.07.07,0,0,1,0-.06h.33a.11.11,0,0,1,.09.06,1,1,0,0,1,.08.15l.1.21a1.19,1.19,0,0,0,.12.22.82.82,0,0,0,.18-.19l.16-.2.14-.17c0-.05.07-.07.1-.07h.3s0,0,0,.05,0,0,0,.08a.94.94,0,0,1-.1.14l-.15.16a1.29,1.29,0,0,1-.16.17,1.06,1.06,0,0,1-.15.15A.56.56,0,0,1,92.19,11.54Z"/><path class="cls-2" d="M94.53,11.88c0,.36,0,.72,0,1.08l0,1.08v.49c0,.16,0,.32,0,.46s0,.28,0,.4,0,.22,0,.3a.53.53,0,0,1,0,.14.08.08,0,0,1,0,.06l0,0H94.4s0,0,0,0v0l0,0,0,0a.09.09,0,0,1-.07,0,.18.18,0,0,0-.07-.05l-.08,0a.1.1,0,0,1,0-.06.23.23,0,0,1,0-.1.88.88,0,0,1,0-.17,1.55,1.55,0,0,1,0-.22,2.09,2.09,0,0,1,0-.25c0-.1,0-.2,0-.3v-.28a2.09,2.09,0,0,0,0-.24,1,1,0,0,1,0-.18c0-.14,0-.29,0-.44s0-.31,0-.46,0-.3,0-.45,0-.27,0-.39,0-.22,0-.3a1.59,1.59,0,0,1,0-.17s0-.07.06-.07h0s0,0,0,0h.08s0,0,0,0l0,0,0,0h.08l0,0A.08.08,0,0,1,94.53,11.88Z"/><path class="cls-2" d="M98.19,15.89s0,0,0,0H98l0,0V16h0l0,0H97.9l0,0-.12,0-.07,0s0,0-.06-.05a.2.2,0,0,1,0-.08.49.49,0,0,1,0-.11l0-.1-.28-.9h-.81l-.58,0-.35.89,0,.06,0,.09a.46.46,0,0,1,0,.09l0,.06s0,0,0,0l0,0s0,0,0,0,0,0,0,0h0l-.07,0a.11.11,0,0,1,0-.08v-.18a.28.28,0,0,1,0-.09.53.53,0,0,0,0-.11l.08-.22.1-.29.12-.29a.1.1,0,0,1-.08,0s0,0,0,0h0l0,0s0,0,0,0,0,0,0,0a.08.08,0,0,1,0-.06l0,0,.07,0,.09,0h.15c0-.1.09-.22.15-.34s.11-.24.17-.36.11-.25.17-.38l.17-.35.14-.3.11-.23c0-.08,0-.14-.06-.2a1.56,1.56,0,0,0,0-.16l0-.11a.1.1,0,0,1,0,0h0s0,0,0,0a.13.13,0,0,1,0-.07h.18l0,0a0,0,0,0,0,0,0h.1l0,0h0s0,0,.06.08a.53.53,0,0,1,0,.11c0,.06.06.15.1.25s.08.22.14.36l.16.42.17.47.17.48.27.8q.12.33.18.54c0,.14.08.24.11.31a.49.49,0,0,0,0,.12l0,.08A.11.11,0,0,1,98.19,15.89Zm-1.26-2-.17-.49c-.06-.18-.12-.36-.17-.53l-.12.31-.15.37-.15.38-.13.32-.08.19.52,0h.62Z"/><path class="cls-2" d="M99.35,15.79a.11.11,0,0,1,0,.08l-.06.07-.06.05-.06,0h-.09S99,16,99,16a.05.05,0,0,1,0,0,.64.64,0,0,1,0-.07.53.53,0,0,0,0-.11.19.19,0,0,0,0-.08.43.43,0,0,0,0-.05.15.15,0,0,1,0-.07,5.74,5.74,0,0,1,0-.71c0-.24,0-.47,0-.69s0-.42,0-.61,0-.35,0-.49,0-.25,0-.33,0-.13,0-.13l.05-.05.1,0h.1l0,0,.06,0s0,0,0,0a.41.41,0,0,1,0,.16c0,.08,0,.18,0,.32s0,.3,0,.51h.16a2.81,2.81,0,0,0,.36,0,2.08,2.08,0,0,0,.41-.11,1.54,1.54,0,0,0,.39-.23,1.22,1.22,0,0,0,.3-.37.3.3,0,0,0,0-.1.25.25,0,0,0-.06-.16.36.36,0,0,0-.17-.15,1.5,1.5,0,0,0-.3-.1,2,2,0,0,0-.45,0l-.33,0a2.37,2.37,0,0,0-.34.08,2.44,2.44,0,0,0-.34.14,1.41,1.41,0,0,0-.35.21h-.08a.09.09,0,0,1-.08,0,.07.07,0,0,1,0-.06s0,0,0,0,0,0,0,0l0,0h0a0,0,0,0,0,0,0s0,0,0,0h0l0,0a.05.05,0,0,1,0,0l0,0s0,0,0,0l.12-.08.21-.13.28-.15.32-.15a2,2,0,0,1,.35-.1,1.33,1.33,0,0,1,.34-.05.87.87,0,0,1,.32.06,1,1,0,0,1,.29.16,1.71,1.71,0,0,1,.25.22,2.11,2.11,0,0,1,.18.27,1.39,1.39,0,0,1,.12.28.86.86,0,0,1,0,.27.53.53,0,0,1-.1.28,1.12,1.12,0,0,1-.24.25,1.85,1.85,0,0,1-.33.21,2.59,2.59,0,0,1-.33.17,1.58,1.58,0,0,1-.31.09l-.29,0a1.53,1.53,0,0,1,.31.16,1.12,1.12,0,0,1,.32.27.71.71,0,0,1,.16.23q.08.15.15.33l.16.38c0,.13.1.26.16.39s.12.25.19.37a1.41,1.41,0,0,0,.21.31.83.83,0,0,0,.24.22.57.57,0,0,0,.28.08.73.73,0,0,0,.31-.07,1.39,1.39,0,0,0,.36-.25.47.47,0,0,0,.1-.09s0,0,0,0a0,0,0,0,1,0,0v.05h0a0,0,0,0,1,0,0,0,0,0,0,1,0,0v0a.09.09,0,0,1,0,.05.89.89,0,0,0,0,.1c0,.05,0,.11-.07.17l-.12.2a1.45,1.45,0,0,1-.17.18.68.68,0,0,1-.25.14.79.79,0,0,1-.32.06.91.91,0,0,1-.23,0,.86.86,0,0,1-.24-.11,1,1,0,0,1-.23-.18,1.48,1.48,0,0,1-.23-.3.91.91,0,0,1-.12-.26q-.06-.18-.12-.42c-.05-.15-.09-.31-.14-.48s-.1-.33-.16-.49a4.4,4.4,0,0,0-.18-.42,1.21,1.21,0,0,0-.21-.29l-.13-.1a.38.38,0,0,0-.13-.09L99.44,14l-.11,0h0c0,.1,0,.22,0,.34V15c0,.11,0,.22,0,.32s0,.18,0,.26S99.35,15.75,99.35,15.79Z"/><path class="cls-2" d="M104.92,12.15a.68.68,0,0,1-.12.24,1,1,0,0,1-.2.2l0,0-.1,0-.09,0-.07,0h0l0,0,0,0h0s0,0,0,0,0,0,0-.06l0,0a.61.61,0,0,1,0-.06l0-.06a.07.07,0,0,0,0-.06.1.1,0,0,0-.06,0l-.14,0-.27,0a2.75,2.75,0,0,0-.73.24,2.57,2.57,0,0,0-.33.18,1.26,1.26,0,0,0-.24.19.53.53,0,0,0-.12.17.1.1,0,0,0,0,.13.57.57,0,0,0,.19.08l.29,0,.35.05.37.07.36.09a2.09,2.09,0,0,1,.3.14l.15.12.1.11.06.1a.49.49,0,0,1,0,.11l0,.07a.86.86,0,0,1,.07.1l.06.12a.47.47,0,0,1,0,.17.69.69,0,0,1-.08.37,1.36,1.36,0,0,1-.23.32,2.66,2.66,0,0,1-.31.26,3,3,0,0,1-.33.19l-.3.13-.32.1-.33.07-.33,0a1.7,1.7,0,0,1-.51-.07,1.12,1.12,0,0,1-.42-.25,1.45,1.45,0,0,1-.12-.19.58.58,0,0,1,0-.18.54.54,0,0,1,0-.21,1,1,0,0,1,.11-.2,1.21,1.21,0,0,1,.16-.16.76.76,0,0,1,.16-.11l.24-.13.25-.11.25-.08.25,0h.27a.09.09,0,0,1,.07,0s0,0,0,0a0,0,0,0,1,0,0h-.08l-.12,0-.1,0a2.27,2.27,0,0,0-.56.2,2.39,2.39,0,0,0-.37.23.69.69,0,0,0-.18.23.27.27,0,0,0,0,.16.24.24,0,0,0,.11.13.48.48,0,0,0,.18.06l.2,0h.17a2.84,2.84,0,0,0,.38-.05,3.39,3.39,0,0,0,.43-.11,3.61,3.61,0,0,0,.42-.16,2,2,0,0,0,.36-.2,1,1,0,0,0,.26-.24.44.44,0,0,0,.09-.27.28.28,0,0,0,0-.09.36.36,0,0,0,0-.09.34.34,0,0,0-.16-.15,1.5,1.5,0,0,0-.3-.1l-.37-.08-.39-.07-.38-.08a1.1,1.1,0,0,1-.29-.1.69.69,0,0,1-.2-.15.29.29,0,0,1-.07-.18l0,0,0-.06,0-.06,0-.05a.39.39,0,0,1,0-.18.48.48,0,0,1,0-.23.74.74,0,0,1,.13-.21,1.44,1.44,0,0,1,.37-.29,2.1,2.1,0,0,1,.5-.24,3.62,3.62,0,0,1,.56-.17,2.76,2.76,0,0,1,.55-.07h.23a1,1,0,0,1,.25.07.57.57,0,0,1,.18.12A.23.23,0,0,1,104.92,12.15Z"/><path class="cls-2" d="M106.22,12s0,.1,0,.22,0,.29,0,.49,0,.42,0,.59,0,.32,0,.46a2,2,0,0,0,.25-.21c.1-.09.19-.19.29-.29s.2-.21.29-.32l.27-.31.21-.25.12-.15a1.07,1.07,0,0,1,.14-.16l.14-.13.12-.09.09,0h.06s0,0,0,0,0,0,0,0,0,0,0,0l0,0a.08.08,0,0,1,0,0,.31.31,0,0,1,0,.1l-.07.1-.13.14a2,2,0,0,1-.21.24l-.31.35-.37.42-.41.42a2.88,2.88,0,0,1-.44.37l.19.06.23.09a1.58,1.58,0,0,1,.27.16l.3.22.35.3.35.27a2.16,2.16,0,0,0,.36.2,1.09,1.09,0,0,0,.39.08,1.55,1.55,0,0,0,.29,0,1.89,1.89,0,0,0,.31-.13l.06,0h0v0s0,0,0,0l0,0,0,0,0,0,0,0h0s0,0,0,0l0,0s0,0,0,0l0,0a.05.05,0,0,1,0,0s0,0,0,0a.3.3,0,0,0-.08.08s0,0,0,.06,0,0-.1.07a.67.67,0,0,1-.19.09l-.24.07a.57.57,0,0,1-.26,0,1,1,0,0,1-.38-.15,2.2,2.2,0,0,1-.34-.28c-.11-.11-.22-.23-.32-.35l-.31-.35a2.18,2.18,0,0,0-.31-.3.86.86,0,0,0-.31-.17v.26c0,.1,0,.21,0,.31s0,.21,0,.32,0,.19,0,.28,0,.15,0,.21a.22.22,0,0,0,0,.1V16l0,0H106v0s0,0,0,0,0,0,0,0l0,0h-.07l-.06,0-.06,0,0,0,0,0s0,0,0,0a.06.06,0,0,1,0-.05,1.44,1.44,0,0,1-.05-.33c0-.13,0-.27,0-.41a2.18,2.18,0,0,1,0-.25v-.23a1.41,1.41,0,0,0,0-.2c0-.06,0-.12,0-.16h-.2l0,0,0,0,0,0s-.05,0-.05-.06,0-.05.05-.08a.23.23,0,0,1,.12-.06l.21-.05c0-.09,0-.2,0-.31s0-.24,0-.37,0-.25,0-.38,0-.25,0-.36,0-.22,0-.32,0-.17,0-.24a.43.43,0,0,1,0-.05s0,0,0,0h.07l0,0h0s0,0,0,0,0,0,0,0h0v0H106s0,0,0,0,0,0,0,0v0l0,0h0a.18.18,0,0,1,.07.05A.1.1,0,0,1,106.22,12Z"/><path class="cls-2" d="M112,15.89s0,0,0,0h-.13l0,0a.11.11,0,0,1,0,.05v0h0s0,0,0,0h-.07l0,0-.11,0-.08,0s0,0,0-.05a.56.56,0,0,1,0-.08l0-.11,0-.1-.29-.9h-.8l-.59,0-.34.89a.16.16,0,0,0,0,.06l0,.09a.46.46,0,0,1,0,.09l0,.06s0,0,0,0l0,0s0,0,0,0,0,0,0,0H109l-.06,0a.11.11,0,0,1,0-.08.28.28,0,0,0,0-.09v-.09a.28.28,0,0,1,0-.09l0-.11c0-.06,0-.14.07-.22s.07-.18.11-.29a2.49,2.49,0,0,1,.11-.29.08.08,0,0,1-.07,0s0,0,0,0h0l0,0a.06.06,0,0,1,0,0,0,0,0,0,0,0,0,.08.08,0,0,1,0-.06l0,0,.07,0,.09,0h.15l.14-.34.17-.36.18-.38c.06-.12.11-.24.16-.35l.15-.3c0-.1.08-.17.11-.23s0-.14-.06-.2l0-.16,0-.11,0,0h0l0,0a.25.25,0,0,1,0-.07h.18l0,0s0,0,0,0h.09l0,0h0s0,0,.07.08a.36.36,0,0,0,0,.11c0,.06.06.15.1.25s.08.22.13.36L111,13c0,.16.11.31.17.47s.11.32.16.48c.11.32.2.59.28.8l.18.54c0,.14.08.24.1.31l0,.12,0,.08A.43.43,0,0,0,112,15.89Zm-1.27-2-.16-.49-.18-.53-.12.31a3.59,3.59,0,0,1-.15.37l-.15.38c0,.12-.09.23-.13.32l-.08.19.53,0h.62Zm.38-3.17-.22.27-.22.27-.19.22q-.09.09-.12.09h0l0,0h-.11l0,0s0,0,0,0a.16.16,0,0,1,0-.08.66.66,0,0,1,.08-.13l.1-.15.12-.17s.07-.11.11-.15l.1-.13,0-.05,0,0h.36s0,0,0,0S111.13,10.69,111.1,10.72Z"/><path class="cls-2" d="M91.08,19.52v0h0l0,0H91s0,0,0,0l0,0h0v0h0v0h0l0,0v-.1a.34.34,0,0,0,0-.09s0-.09,0-.15a1.23,1.23,0,0,1,0-.2l0-.23a2.29,2.29,0,0,0,0-.25c0-.08,0-.16,0-.24s0-.15,0-.22,0-.13,0-.18l-.6,1.5a.16.16,0,0,1,0,.07.1.1,0,0,1,0,.06l0,0h0l0,0a.17.17,0,0,0,0-.05s0,0,0-.05a.43.43,0,0,1,0,0,.62.62,0,0,1,0-.14c0-.06,0-.13,0-.22l-.06-.27c0-.1,0-.2-.07-.3s0-.2-.07-.3,0-.19,0-.27a1,1,0,0,0,0,.15c0,.06,0,.14,0,.22s0,.17,0,.27a2.74,2.74,0,0,0,0,.28c0,.1,0,.19,0,.28s0,.17,0,.25,0,.13,0,.18a.32.32,0,0,0,0,.08s0,0,0,0,0,0,0,0,0,0,0,0h0s0,0,0,0h0a0,0,0,0,0,0,0h0s0,0,0,0,0,0,0,0h0l0,0s0,0,0,0,0,0,0-.05a.2.2,0,0,0,0-.05.36.36,0,0,0,0-.11l0-.14,0-.15,0-.15,0-.13a.45.45,0,0,1,0-.13c0-.06,0-.13,0-.2l.06-.23.06-.23c0-.07,0-.14,0-.2s0-.11,0-.15h0v0s0,0,0,0h0v0h0a0,0,0,0,0,0,0h.13v0h0v0h0l0,.13,0,.17c0,.06,0,.13,0,.21a2.15,2.15,0,0,0,.06.29c0,.18.08.34.11.46S90,19,90,19l.07-.17.09-.21c0-.07.06-.15.1-.23a2.44,2.44,0,0,1,.1-.24l.09-.23a2,2,0,0,1,.09-.2,1.16,1.16,0,0,1,.06-.15l0-.08s0,0,0,0l0,0s0,0,0,0h.18a.18.18,0,0,0,0,.06s0,.06,0,.1,0,.1,0,.15a.78.78,0,0,1,0,.14V18a1.12,1.12,0,0,1,0,.2c0,.08,0,.16,0,.26l0,.28L91,19c0,.09,0,.17,0,.25s0,.13,0,.17Z"/><path class="cls-2" d="M91.77,17.53c0,.18,0,.36,0,.54s0,.36,0,.54a1.93,1.93,0,0,0,0,.24v.23a1.48,1.48,0,0,1,0,.2.92.92,0,0,1,0,.16v.06s0,0,0,0h-.13l0,0,0,0s0,0,0,0a.08.08,0,0,1,0-.05.19.19,0,0,1,0-.08.41.41,0,0,1,0-.11v-.42a.49.49,0,0,0,0-.12v-.09c0-.07,0-.14,0-.22s0-.15,0-.23,0-.15,0-.22,0-.14,0-.2a.76.76,0,0,0,0-.15.32.32,0,0,0,0-.08s0,0,0,0h0s0,0,0,0h.08s0,0,0,0h0l0,0A0,0,0,0,1,91.77,17.53Z"/><path class="cls-2" d="M93.69,19.3v0l0,0,0,0s0,0,0,0l0,0-.09,0-.13,0-.17,0-.19,0-.21,0h-.52l-.07,0-.06,0h0s0,0,0,0,0,0,0,0h0a0,0,0,0,1,0,0h0a0,0,0,0,1,0,0v0s0,0,0,0v0h0s0,0,0,0h.08v-.21a1.48,1.48,0,0,0,0-.21l0-.22c0-.09,0-.19,0-.29l0-.3c0-.1,0-.21,0-.33H92.1l0,0h0v0s0,0,0,0l0,0,0,0,0,0h.06l.16,0,.22,0,.24,0h.71l0,0s0,0,0,0h0v.05h0v0h0v0h-.12l-.91,0s0,.06,0,.1a.49.49,0,0,1,0,.12v.14a.62.62,0,0,0,0,.13v.21l.12,0h.76l0,0s0,0,0,0a0,0,0,0,1,0,0,.11.11,0,0,1,0,.05s0,0,0,0a.08.08,0,0,1,0,0l0,0h-.66l-.17,0v.46c0,.07,0,.13,0,.18H93l.18,0h.53l0,0Z"/><path class="cls-2" d="M95.37,17.66a.34.34,0,0,1-.06.12.47.47,0,0,1-.1.1s0,0,0,0l0,0H95v0l0,0s0,0,0,0a0,0,0,0,0,0,0,0,0,0,0,0,0,0h-.21l-.18.05-.19.07-.16.09a.63.63,0,0,0-.12.1.33.33,0,0,0-.06.08.06.06,0,0,0,0,.07l.09,0,.15,0,.17,0,.19,0,.18.05.15.07.07.06.05.05a.09.09,0,0,1,0,.05l0,.06s0,0,0,0l0,0,0,.06a.29.29,0,0,1,0,.09.39.39,0,0,1,0,.18.91.91,0,0,1-.11.16l-.16.13-.17.1-.14.06-.16.05-.17,0h-.17a.69.69,0,0,1-.25,0,.55.55,0,0,1-.21-.12.21.21,0,0,1-.06-.1.29.29,0,0,1,0-.09.36.36,0,0,1,0-.1l.06-.1a.3.3,0,0,1,.08-.08l.08-.06.12-.06.13-.06.12,0,.12,0h.17a0,0,0,0,1,0,0h-.18a1.51,1.51,0,0,0-.28.1.7.7,0,0,0-.18.12.33.33,0,0,0-.1.11.12.12,0,0,0,0,.08.1.1,0,0,0,.05.06l.09,0h.19l.19,0a1.66,1.66,0,0,0,.21-.06,1,1,0,0,0,.21-.08l.19-.1a.34.34,0,0,0,.12-.12.17.17,0,0,0,.05-.13v-.05a.08.08,0,0,1,0,0,.24.24,0,0,0-.09-.08l-.14,0-.19,0-.2,0-.18,0a.53.53,0,0,1-.15,0,.29.29,0,0,1-.1-.08.19.19,0,0,1,0-.09v0a0,0,0,0,0,0,0l0,0v0a.16.16,0,0,1,0-.09A.27.27,0,0,1,94,18l.06-.1a1,1,0,0,1,.19-.15l.25-.12.28-.08.27,0h.12l.12,0,.09.06A.11.11,0,0,1,95.37,17.66Z"/><path class="cls-2" d="M97.34,17.61l0,0h-.16l-.12,0-.17,0-.21,0-.24,0c0,.14,0,.28,0,.42s0,.29,0,.43V19c0,.15,0,.29,0,.42v0h0l0,.05,0,0-.09,0-.06,0,0,0s0,0,0-.06,0,0,0-.06,0-.05,0-.07V19c0-.05,0-.09,0-.13v-.1a.81.81,0,0,0,0-.16c0-.06,0-.12,0-.18s0-.14,0-.2l0-.2,0-.17s0,0,0,0a.43.43,0,0,1,0,0H96l-.32,0a1.26,1.26,0,0,1-.25-.07l0,0a.08.08,0,0,0,0,0,0,0,0,0,1,0,0,.08.08,0,0,0,0,0h.57l.15,0,.21,0h.63l.13,0,.11,0,.09,0,0,0s0,0,0,0h.06Z"/><path class="cls-2" d="M98.79,17.52v.31a2.62,2.62,0,0,1,0,.27c0,.1,0,.2,0,.31s0,.21,0,.32,0,.21,0,.3,0,.18,0,.26,0,.14,0,.19v0l0,0s0,0,0,0h0v0s0,0,0,0l0,0h0v0a0,0,0,0,1,0,0h0l-.06,0-.06-.08a1.16,1.16,0,0,1-.09-.14l-.13-.19c0-.08-.09-.15-.14-.24l-.15-.25-.15-.27-.14-.26-.11-.23a.71.71,0,0,0,0,.16,1.85,1.85,0,0,0,0,.24,2.44,2.44,0,0,0,0,.27v.29a2.35,2.35,0,0,0,0,.26v.3s0,0,0,0h0v0a.28.28,0,0,1,0,.09s0,0,0,0h0s0,0,0,0a0,0,0,0,0,0,0h-.06a.05.05,0,0,1,0,0V19.5h0v-.15a1.42,1.42,0,0,1,0-.19,2.62,2.62,0,0,1,0-.27c0-.1,0-.2,0-.31s0-.21,0-.31a2.66,2.66,0,0,1,0-.3c0-.09,0-.17,0-.23s0-.12,0-.15,0,0,0,0v0s0,0,0,0h0v0a0,0,0,0,1,0,0h.07s0,0,0,0,0,0,0,0l0,0,0,0v.06l0,.06.08.14.1.17a2.12,2.12,0,0,0,.11.21l.13.23.12.22.12.21.1.18.08.14,0,.07s0,0,0,0,0,0,0,0a.35.35,0,0,0,0-.07s0-.08,0-.14a1.21,1.21,0,0,1,0-.18c0-.07,0-.14,0-.22a1.77,1.77,0,0,1,0-.23v-.45a1,1,0,0,0,0-.18V17.6a.09.09,0,0,1,0-.05s0,0,0,0a0,0,0,0,1,0,0h0a0,0,0,0,1,0,0h0l0,0h0a0,0,0,0,1,0,0S98.79,17.5,98.79,17.52Z"/><path class="cls-2" d="M101,18.32v.06a1.87,1.87,0,0,1,0,.32,1.27,1.27,0,0,1-.13.32,1,1,0,0,1-.19.27.76.76,0,0,1-.25.19.48.48,0,0,1-.18.06l-.19,0h-.14a.61.61,0,0,1-.13,0,.55.55,0,0,1-.24-.12.69.69,0,0,1-.19-.19,1,1,0,0,1-.12-.23,1.29,1.29,0,0,1-.06-.25v-.07a.84.84,0,0,1,0-.27,1.14,1.14,0,0,1,.09-.26,1.71,1.71,0,0,1,.13-.23.79.79,0,0,1,.17-.19.75.75,0,0,1,.17-.14.54.54,0,0,1,.18-.06H100s0,0,0,0h0v0h0l0,0,0,0a.91.91,0,0,0-.19.2,2.1,2.1,0,0,0-.13.26,1.57,1.57,0,0,0-.08.31,1.73,1.73,0,0,0,0,.32v.08a.69.69,0,0,0,0,.13.88.88,0,0,0,0,.15.61.61,0,0,0,.07.14.64.64,0,0,0,.1.13.57.57,0,0,0,.13.08.24.24,0,0,0,.15,0,.54.54,0,0,0,.22,0,.66.66,0,0,0,.17-.12,1.09,1.09,0,0,0,.13-.17.72.72,0,0,0,.09-.2,1.17,1.17,0,0,0,.06-.2l0-.18v-.12a.85.85,0,0,0,0-.33.66.66,0,0,0-.13-.25.55.55,0,0,0-.18-.16.9.9,0,0,0-.22-.06H100s0,0,0,0h0v0h0a0,0,0,0,1,0,0h.22a.85.85,0,0,1,.23,0,.66.66,0,0,1,.19.09.93.93,0,0,1,.14.14.62.62,0,0,1,.11.17,1.18,1.18,0,0,1,.07.2Z"/><path class="cls-2" d="M102.72,17.66a.34.34,0,0,1-.06.12l-.1.1,0,0,0,0h-.15s0,0,0,0v0l0,0,0,0s0,0,0,0,0,0,0,0h-.2l-.18.05-.19.07-.16.09a.63.63,0,0,0-.12.1s-.06.06-.06.08,0,.05,0,.07l.09,0,.15,0,.17,0,.19,0,.18.05.15.07.07.06,0,.05,0,.05a.14.14,0,0,1,0,.06l0,0,0,0,0,.06a.29.29,0,0,1,0,.09.39.39,0,0,1,0,.18.61.61,0,0,1-.12.16.93.93,0,0,1-.15.13l-.17.1-.15.06-.16.05-.16,0h-.17a.69.69,0,0,1-.25,0,.55.55,0,0,1-.21-.12.21.21,0,0,1-.06-.1.15.15,0,0,1,0-.09.36.36,0,0,1,0-.1.33.33,0,0,1,.06-.1.3.3,0,0,1,.08-.08l.08-.06.12-.06.12-.06.13,0,.12,0h.17s0,0,0,0h-.17a1.28,1.28,0,0,0-.28.1,1,1,0,0,0-.19.12.44.44,0,0,0-.09.11.12.12,0,0,0,0,.08s0,.05,0,.06a.16.16,0,0,0,.09,0h.19l.19,0a1.66,1.66,0,0,0,.21-.06l.21-.08a.77.77,0,0,0,.18-.1.3.3,0,0,0,.13-.12.21.21,0,0,0,0-.13.09.09,0,0,0,0-.05.08.08,0,0,0,0,0,.15.15,0,0,0-.08-.08l-.15,0-.18,0-.2,0-.19,0-.14,0a.29.29,0,0,1-.1-.08.13.13,0,0,1,0-.09v0s0,0,0,0l0,0,0,0a.29.29,0,0,1,0-.09.27.27,0,0,1,0-.12.21.21,0,0,1,.06-.1,1,1,0,0,1,.19-.15l.25-.12.28-.08.27,0h.12l.12,0,.09.06A.16.16,0,0,1,102.72,17.66Z"/><path class="cls-2" d="M104.69,17.61l0,0h-.16l-.12,0-.18,0-.21,0-.23,0c0,.14,0,.28,0,.42s0,.29,0,.43V19c0,.15,0,.29,0,.42v0h0a.08.08,0,0,1,0,.05l0,0-.1,0a.1.1,0,0,1,0,0,.05.05,0,0,1,0,0s0,0,0-.06,0,0,0-.06a.2.2,0,0,1,0-.07v-.06a.15.15,0,0,1,0-.07s0-.09,0-.13a.53.53,0,0,1,0-.13v-.1c0-.05,0-.1,0-.16s0-.12,0-.18a1.5,1.5,0,0,0,0-.2l0-.2,0-.17a.06.06,0,0,1,0,0,.43.43,0,0,1,0,0h-.26l-.32,0a1.26,1.26,0,0,1-.25-.07l0,0s0,0,0,0a0,0,0,0,1,0,0v0h.58l.15,0,.21,0h.63l.12,0,.12,0,.08,0,0,0h.07Zm-.89-.28s0,0,0,0h-.16l0,0,0,0,0-.07s0-.08-.08-.14a.59.59,0,0,0,0-.08l0-.05,0,0a0,0,0,0,1,0,0h.16a.05.05,0,0,1,0,0,.43.43,0,0,1,0,.07s0,.07.05.1l.06.12.09-.1.08-.1.07-.09,0,0h.15s0,0,0,0l0,0,0,.06-.07.09a5307543060443.82,5307543060443.82,0,0,0-.16.16Z"/><text class="cls-7" transform="translate(84.99 25.94)"><tspan class="cls-10">TO</tspan><tspan x="7.23" y="0">ALE</tspan><tspan class="cls-11" x="17.12" y="0">T</tspan><tspan x="20.03" y="0">A</tspan></text><path class="cls-2" d="M77.76,6.77a6.07,6.07,0,0,1-2,3.9s2.59-1.42,1.75.38a5.16,5.16,0,0,0-.39,3.79s.52,3.1-.34,3.67c0,0,2.29-.39,1.86,1.95,0,0,1.18-.62.34-3.72,0,0-1.74-3.89-.21-6,0,0,.37-.86,1.47.5A11.24,11.24,0,0,0,77.76,6.77Z"/><path class="cls-2" d="M114.6,6.77a6.07,6.07,0,0,1-2,3.9s2.59-1.42,1.75.38a5.13,5.13,0,0,0-.4,3.79s.53,3.1-.33,3.67c0,0,2.29-.39,1.86,1.95,0,0,1.18-.62.34-3.72,0,0-1.75-3.89-.21-6,0,0,.37-.86,1.47.5A11.24,11.24,0,0,0,114.6,6.77Z"/></svg>