<svg id="Layer_1" data-name="Layer 1" xmlns="http://www.w3.org/2000/svg" viewBox="0 0 65.41 64.68"><defs><style>.cls-1{fill:#fff;}</style></defs><title>sofa</title><path class="cls-1" d="M64.37,48.91a1.53,1.53,0,0,0-1.08-.3h-.13a2.06,2.06,0,0,0-1.06.21v-.34a1,1,0,0,0-.24-.78,1,1,0,0,0-.72-.23H47.77a.93.93,0,0,0-.71.22,1.07,1.07,0,0,0-.15.22.85.85,0,0,0-.14-.21,1.11,1.11,0,0,0-.77-.24H32.75a1.13,1.13,0,0,0-.77.23,1.07,1.07,0,0,0-.15.22.62.62,0,0,0-.15-.22,1,1,0,0,0-.73-.23H17.58a1,1,0,0,0-.7.22l-.15.1a.41.41,0,0,0-.14-.21.62.62,0,0,0-.19-.12.53.53,0,0,0,.2-.13,1,1,0,0,0,.24-.77V32a1,1,0,0,0-.22-.72.62.62,0,0,0-.19-.12.64.64,0,0,0,.19-.13,1,1,0,0,0,.23-.72v-13a1,1,0,0,0-.22-.71l-.17-.12a.36.36,0,0,0,.16-.11.46.46,0,0,0,.13-.18.49.49,0,0,0,.13.18,1,1,0,0,0,.72.23H31a1,1,0,0,0,.73-.22.46.46,0,0,0,.13-.2.94.94,0,0,0,.14.19,1,1,0,0,0,.77.24H46a1.05,1.05,0,0,0,.78-.23.5.5,0,0,0,.13-.19.64.64,0,0,0,.13.19.91.91,0,0,0,.72.23H61.14a1,1,0,0,0,.73-.22,1,1,0,0,0,.23-.72v-.3a2.3,2.3,0,0,0,1.06.2h.32a1.34,1.34,0,0,0,1-.3,1.11,1.11,0,0,0,.3-.9V3a1.14,1.14,0,0,0-.3-.91,1.43,1.43,0,0,0-1-.29h-.25a1.73,1.73,0,0,0-1.2.33V2a1.13,1.13,0,0,0-.22-.9,1.37,1.37,0,0,0-1-.28H38.53C27.89.78,19.45.78,7.46.72,5,.72,3.17,1.28,2,2.39A5,5,0,0,0,.73,6.14V31.39c0,5.65,0,9.06-.07,27v.9h0a1,1,0,0,0,0,.48,4.91,4.91,0,0,0,1.35,3c1.14,1.13,2.92,1.71,5.3,1.71H53.6a0,0,0,0,0,0,0h7.06a1.32,1.32,0,0,0,.94-.28,1.16,1.16,0,0,0,.24-1v-.09a1.55,1.55,0,0,0,1.21.37h.33a1.22,1.22,0,0,0,.9-.28,1.26,1.26,0,0,0,.33-1V49.9A1.28,1.28,0,0,0,64.37,48.91ZM47,5.78a.46.46,0,0,0-.08-.13h.17ZM31.83,5.61H32l-.09.14A.42.42,0,0,0,31.83,5.61Zm-15,0V5.53h.09Zm-.78-.08h0a.34.34,0,0,1,.26.08.83.83,0,0,1,.13.59v9.37c0,.22,0,.36-.1.42a.51.51,0,0,1-.38.09H6.29a.88.88,0,0,1-.64-.17.3.3,0,0,1-.08-.24v-5a4.92,4.92,0,0,1,1.3-3.59,6.65,6.65,0,0,1,4.79-1.49ZM16.39,22v8.19a.58.58,0,0,1-.09.41.56.56,0,0,1-.4.09H6.3a1,1,0,0,1-.67-.18.46.46,0,0,1-.11-.3V17.13a.4.4,0,0,1,.09-.2,1,1,0,0,1,.61-.18h9.72a.55.55,0,0,1,.36.08.5.5,0,0,1,.08.39Zm0,24.5a.69.69,0,0,1-.09.45.52.52,0,0,1-.35.08H6.23a.84.84,0,0,1-.59-.17.43.43,0,0,1-.12-.31V31.84a.52.52,0,0,1,.1-.23,1.21,1.21,0,0,1,.69-.18h9.6a.68.68,0,0,1,.4.09.55.55,0,0,1,.09.39V46.54ZM5.54,31l.14.06-.14.06Zm0-14.65h0Zm-.07,31a.47.47,0,0,0,.15.06l-.15.07Zm0,6.34V48.25h0a.45.45,0,0,1,.1-.29,1.05,1.05,0,0,1,.66-.18h9.66a.52.52,0,0,1,.37.1c.08.07.11.23.11.48V58.54a1,1,0,0,1-.15.67.29.29,0,0,1-.24.07H11.57a6.45,6.45,0,0,1-4.68-1.5,5.57,5.57,0,0,1-1.41-4.07Zm11.26,5.46.09.12h-.09Zm15.07,0a.78.78,0,0,0,.11.18h-.23Zm15.2.21h-.27l.11-.17Zm.28-10.88a.74.74,0,0,1,.11-.48.6.6,0,0,1,.37-.09H61.13a.58.58,0,0,1,.39.09.59.59,0,0,1,.11.46V58.63a.57.57,0,0,1-.11.46c-.06.07-.2.09-.43.09H47.75a.57.57,0,0,1-.4-.09.67.67,0,0,1-.1-.44c0-3.22,0-6.54,0-10.19Zm-15-.51a.72.72,0,0,1,.43-.1H46a.74.74,0,0,1,.44.1.62.62,0,0,1,.11.47V58.61a.56.56,0,0,1-.1.45.49.49,0,0,1-.39.08H32.65a.5.5,0,0,1-.39-.08.73.73,0,0,1-.1-.46V48.51A.76.76,0,0,1,32.3,48Zm-15.1,0a.65.65,0,0,1,.38-.09H30.93c.22,0,.34,0,.4.09a.59.59,0,0,1,.11.46V58.6a.43.43,0,0,1-.26.55.45.45,0,0,1-.28,0H17.5a.57.57,0,0,1-.36-.07.58.58,0,0,1-.08-.39V48.42c0-.31.07-.45.14-.51ZM31.54,15.63a.52.52,0,0,1-.1.4.58.58,0,0,1-.41.09H17.66a.55.55,0,0,1-.39-.09.59.59,0,0,1-.09-.37V6.21a.56.56,0,0,1,.08-.33c.07-.1.19-.1.39-.1H31a.76.76,0,0,1,.45.09.57.57,0,0,1,.09.4C31.53,9.14,31.53,12.19,31.54,15.63Zm15,.43a.6.6,0,0,1-.45.1H32.83a.62.62,0,0,1-.45-.11.71.71,0,0,1-.11-.45V6.32a.7.7,0,0,1,.09-.4.59.59,0,0,1,.37-.14H46.16a.61.61,0,0,1,.4.08.55.55,0,0,1,.09.39V15.6a.51.51,0,0,1-.12.46Zm15.09,0a.56.56,0,0,1-.4.09H47.85a.55.55,0,0,1-.39-.09.62.62,0,0,1-.1-.42V6.3c0-.2,0-.33.09-.38a.63.63,0,0,1,.42-.09H61.19a.69.69,0,0,1,.45.09.58.58,0,0,1,.09.44V15.7c0,.21,0,.34-.11.4ZM63.24,2.21h.33a.84.84,0,0,1,.6.16.73.73,0,0,1,.17.58V14.41a.73.73,0,0,1-.16.57,1,1,0,0,1-.77.17h-.13c-.74,0-1.07,0-1.07-.75V3C62.21,2.25,62.53,2.22,63.24,2.21ZM61.31,64a.87.87,0,0,1-.61.14H38.35c-10.66,0-19.08,0-31,0a7,7,0,0,1-5-1.57,4.84,4.84,0,0,1-1.29-3.13v-11L1.17,6.27V6.14A4.52,4.52,0,0,1,2.36,2.71c1-1,2.76-1.55,5.1-1.54,12,0,20.43.07,31.12.09H60.83c.33,0,.53,0,.62.14a.8.8,0,0,1,.1.56c-.06.9,0,1.82,0,2.7v.16a.42.42,0,0,1-.07.33.44.44,0,0,1-.32,0,3.38,3.38,0,0,0-.45,0H49.57c-14.35,0-14.35,0-32.2-.1h-5.7A7.11,7.11,0,0,0,6.55,6.67a5.34,5.34,0,0,0-1.43,3.91V33.09c0,3.67,0,7.92,0,20.49v.08A5.91,5.91,0,0,0,6.61,58a6.82,6.82,0,0,0,5,1.66h5.76c17.76.1,17.76.1,32.15.1H61c.15,0,.25,0,.3,0a.62.62,0,0,1,.09.39v3.09A1,1,0,0,1,61.31,64Zm2.89-9.68v8A.9.9,0,0,1,64,63a1,1,0,0,1-.68.15h-.24c-.66,0-1,0-1-.83V49.89c0-.81.38-.81,1.06-.82h.24a1,1,0,0,1,.66.17,1,1,0,0,1,.18.65C64.2,51.37,64.2,52.87,64.2,54.32Z"/><path class="cls-1" d="M36.64,21.78c-10,0-18.12,4.21-18.14,9.45s8.11,9.55,18.09,9.55,18.14-4.22,18.14-9.46S46.63,21.78,36.64,21.78Zm0,18.53c-9.73,0-17.64-4.1-17.62-9.08s7.94-9,17.67-9,17.64,4.1,17.63,9.08-7.94,9-17.68,9Z"/><path class="cls-1" d="M34.05,26.88a1.08,1.08,0,0,1-.23.47,1.69,1.69,0,0,1-.4.4.27.27,0,0,1-.11.06l-.18.08-.19.06a.56.56,0,0,1-.15,0,.08.08,0,0,1-.07,0,.1.1,0,0,1,0,0l-.06,0s0,0-.09,0-.07,0-.08,0a.17.17,0,0,1,0-.12l0-.09a.76.76,0,0,1,.1-.13.75.75,0,0,0,.07-.12.13.13,0,0,0,0-.12.17.17,0,0,0-.12-.09,1,1,0,0,0-.29,0,2.89,2.89,0,0,0-.53.05,4.24,4.24,0,0,0-.73.17c-.25.09-.49.19-.73.3a6.55,6.55,0,0,0-.65.37,2.6,2.6,0,0,0-.49.37,1,1,0,0,0-.25.35A.22.22,0,0,0,29,29a1.07,1.07,0,0,0,.38.15,5.51,5.51,0,0,0,.58.11l.7.11c.25,0,.5.08.75.13a5.71,5.71,0,0,1,.71.19,2.46,2.46,0,0,1,.59.27,2.79,2.79,0,0,1,.31.24,1.37,1.37,0,0,1,.2.22,1.13,1.13,0,0,1,.12.21,1.19,1.19,0,0,1,.08.2.55.55,0,0,0,.08.15,1,1,0,0,1,.14.19c0,.07.09.16.13.25a1.14,1.14,0,0,1,.07.34,1.32,1.32,0,0,1-.15.73,2.64,2.64,0,0,1-.47.64,4,4,0,0,1-.63.53,5.79,5.79,0,0,1-.66.38c-.18.09-.38.17-.58.25a4.75,4.75,0,0,1-.64.2,5,5,0,0,1-.67.14,4.89,4.89,0,0,1-.66.05,3.42,3.42,0,0,1-1-.15,2,2,0,0,1-.82-.5,1.15,1.15,0,0,1-.25-.37.94.94,0,0,1-.08-.36,1.07,1.07,0,0,1,.09-.43,2.14,2.14,0,0,1,.23-.38,2.42,2.42,0,0,1,.31-.33,2.19,2.19,0,0,1,.33-.23l.48-.25.5-.22.51-.16a2.83,2.83,0,0,1,.48-.08l.26,0h.28a.24.24,0,0,1,.15,0,.1.1,0,0,1,.05.08.11.11,0,0,1-.11.07l-.17,0a.85.85,0,0,1-.22,0l-.2,0a5.69,5.69,0,0,0-1.13.39,3.55,3.55,0,0,0-.73.48,1.41,1.41,0,0,0-.37.45.43.43,0,0,0-.06.33.49.49,0,0,0,.21.24,1.4,1.4,0,0,0,.36.13,2.71,2.71,0,0,0,.41,0h.35c.22,0,.48-.05.76-.1s.56-.13.84-.22a8.71,8.71,0,0,0,.85-.32,4.85,4.85,0,0,0,.72-.4,2.36,2.36,0,0,0,.51-.48.88.88,0,0,0,.2-.54.57.57,0,0,0,0-.18c0-.06,0-.12-.07-.19a.72.72,0,0,0-.34-.29,3.08,3.08,0,0,0-.59-.21l-.74-.15-.79-.14c-.26,0-.51-.1-.74-.15a2.35,2.35,0,0,1-.59-.22,1.38,1.38,0,0,1-.4-.29.64.64,0,0,1-.14-.36l0-.08-.07-.13L28.46,29l-.05-.09a.82.82,0,0,1-.1-.37,1.14,1.14,0,0,1,.11-.46,1.24,1.24,0,0,1,.25-.4,3,3,0,0,1,.74-.6,6.74,6.74,0,0,1,1-.48,6.89,6.89,0,0,1,1.12-.33,6.32,6.32,0,0,1,1.09-.15l.48,0a2.52,2.52,0,0,1,.49.13,1,1,0,0,1,.36.24A.4.4,0,0,1,34.05,26.88Z"/><path class="cls-1" d="M38.84,32.06a3.17,3.17,0,0,1-.18,1.1,2.48,2.48,0,0,1-.49.84,2,2,0,0,1-.71.53,1.92,1.92,0,0,1-.85.19,2.12,2.12,0,0,1-.42,0,2.08,2.08,0,0,1-.44-.15,1.76,1.76,0,0,1-.43-.26,1.82,1.82,0,0,1-.38-.4,1.87,1.87,0,0,1-.26-.57,2.73,2.73,0,0,1-.09-.74,3.07,3.07,0,0,1,.12-.88A3,3,0,0,1,35,31a2.52,2.52,0,0,1,.42-.54,2.7,2.7,0,0,1,.47-.38,1.92,1.92,0,0,1,.45-.23,1.63,1.63,0,0,1,.37-.09c.06,0,.08,0,.08,0l0,.05-.06.06s0,0,0,0l.07,0s0,0,0,0l.05-.06a.13.13,0,0,1,.08,0h.11s0,0,0,0,0-.07,0-.08h.15a.76.76,0,0,1,.21,0,1,1,0,0,1,.32.14,1.58,1.58,0,0,1,.35.26,1.81,1.81,0,0,1,.33.42,2.43,2.43,0,0,1,.24.61A2.92,2.92,0,0,1,38.84,32.06Zm-2.12-1.72a1.94,1.94,0,0,0-.4.33,2.58,2.58,0,0,0-.36.49,2.39,2.39,0,0,0-.26.61,2.46,2.46,0,0,0-.1.72,3.29,3.29,0,0,0,.07.73,1.93,1.93,0,0,0,.21.56,1.1,1.1,0,0,0,.35.36.88.88,0,0,0,.46.12,1,1,0,0,0,.45-.12,1.24,1.24,0,0,0,.4-.39,2.37,2.37,0,0,0,.29-.64,3.31,3.31,0,0,0,.11-.88,2.38,2.38,0,0,0-.14-.86,2.23,2.23,0,0,0-.3-.56,1.24,1.24,0,0,0-.32-.3.68.68,0,0,0-.19-.1h-.12A.31.31,0,0,1,36.72,30.34Z"/><path class="cls-1" d="M42.75,30.71l-.3,0-.43.05-.49.06-.48.08c0,.21,0,.43,0,.67s0,.47,0,.71,0,.47,0,.69,0,.43,0,.62,0,.36,0,.51a2.55,2.55,0,0,0,0,.31,1.58,1.58,0,0,1,0,.36c0,.06,0,.09-.06.1a.08.08,0,0,1-.09,0s-.05,0-.07,0,0,0-.05,0a.19.19,0,0,0,0,.08l0,.08s0,0-.06,0a.41.41,0,0,1-.18-.1.58.58,0,0,1-.17-.21.58.58,0,0,1,0-.14,1.54,1.54,0,0,0,0-.17s0-.09,0-.17,0-.16,0-.26,0-.22,0-.34v-1c0-.2,0-.39,0-.58s0-.37,0-.54,0-.33,0-.46l-.28.07-.38.11a.1.1,0,0,1-.11,0s0-.08,0-.16a0,0,0,0,0,0-.05l-.06,0-.06,0a.07.07,0,0,1,0-.06s0-.05,0-.08a.09.09,0,0,1,0-.06l.26-.15a2.5,2.5,0,0,1,.59-.23,7.62,7.62,0,0,1,.08-1.23,5.25,5.25,0,0,1,.24-.95,3.17,3.17,0,0,1,.35-.69,2.53,2.53,0,0,1,.42-.48,2.28,2.28,0,0,1,.45-.29,1.9,1.9,0,0,1,.43-.13.76.76,0,0,1,.5.05.88.88,0,0,1,.36.3,1.27,1.27,0,0,1,.23.43,1.41,1.41,0,0,1,.07.45,3.28,3.28,0,0,1,0,.47c0,.13,0,.25-.06.34a2.07,2.07,0,0,1-.09.24.5.5,0,0,1-.07.13,1.12,1.12,0,0,1-.1.16s-.06,0-.08,0l-.08-.05-.08,0-.06,0a.12.12,0,0,1,0-.07s0,0,0,0l0,0a.05.05,0,0,1,0,0,.13.13,0,0,1,0-.06,3.11,3.11,0,0,0,.07-.67,1.86,1.86,0,0,0-.05-.48,1.14,1.14,0,0,0-.14-.37.65.65,0,0,0-.24-.23.53.53,0,0,0-.33,0c-.09,0-.17.1-.25.24a2.65,2.65,0,0,0-.22.6,7.89,7.89,0,0,0-.16.94c0,.37-.07.79-.08,1.27.32-.06.72-.11,1.19-.15h.11l.08.05.07.07.1.11a1.34,1.34,0,0,0,.11.14.55.55,0,0,1,.09.14.13.13,0,0,1,0,.1S42.8,30.72,42.75,30.71Z"/><path class="cls-1" d="M46.51,31.09a3.44,3.44,0,0,1,0,.51q0,.28-.09.63c0,.22-.07.45-.1.69a5.14,5.14,0,0,0-.05.66,2.38,2.38,0,0,0,0,.39,1,1,0,0,0,.1.32.24.24,0,0,1,0,.13.4.4,0,0,1,0,.11l0,.07a.06.06,0,0,0,0,.06.08.08,0,0,1,0,.07.13.13,0,0,1-.06.07l-.08.05a.09.09,0,0,1-.07,0l-.11-.05H46l-.05,0h0l-.21-.13a.39.39,0,0,1-.16-.15.4.4,0,0,1,0-.12c0-.05,0-.12,0-.19s0-.16,0-.24a2.29,2.29,0,0,1,0-.25,3.29,3.29,0,0,1-.41.6,2.42,2.42,0,0,1-.44.38,1.47,1.47,0,0,1-.44.21,1.43,1.43,0,0,1-.39.06,1.07,1.07,0,0,1-.32-.05.68.68,0,0,1-.21-.11,3.44,3.44,0,0,1-.41-.47.44.44,0,0,1-.1-.29,1.76,1.76,0,0,1,.18-.69,2.53,2.53,0,0,1,.38-.58,2.9,2.9,0,0,1,.51-.48,4.12,4.12,0,0,1,.58-.38,4.48,4.48,0,0,1,.58-.29l.53-.18c0-.21,0-.4,0-.55a1.78,1.78,0,0,0,0-.35A1,1,0,0,0,45.1,30a.62.62,0,0,0-.44-.18.61.61,0,0,0-.34.12,1.21,1.21,0,0,0-.3.33,2.2,2.2,0,0,0-.22.49,2.7,2.7,0,0,0-.09.58.76.76,0,0,0,0,.15.78.78,0,0,0,0,.14.06.06,0,0,1,0,.06l-.08,0h-.1l-.09,0h0s0,0,0,0l0,0-.08-.06-.09-.06-.09,0-.07,0a.08.08,0,0,1,0,0,1.91,1.91,0,0,1,.16-.75,2.69,2.69,0,0,1,.43-.71,2.29,2.29,0,0,1,.64-.52,1.48,1.48,0,0,1,.76-.21,1.61,1.61,0,0,1,.57.1,1.31,1.31,0,0,1,.41.26,1.54,1.54,0,0,1,.28.35,2.2,2.2,0,0,1,.17.39,3.28,3.28,0,0,1,.09.37C46.49,30.93,46.5,31,46.51,31.09Zm-1.06,1.05a3.09,3.09,0,0,0-.39.17,3.94,3.94,0,0,0-.43.25,3.09,3.09,0,0,0-.43.33,3.18,3.18,0,0,0-.41.41,3.59,3.59,0,0,0-.32.47,1.45,1.45,0,0,0-.12.35.43.43,0,0,0,0,.23.21.21,0,0,0,.08.1.62.62,0,0,0,.38,0,1.21,1.21,0,0,0,.39-.2,2.38,2.38,0,0,0,.38-.34c.13-.14.24-.28.35-.42s.21-.28.3-.42l.21-.36Z"/></svg>