<svg id="Layer_1" data-name="Layer 1" xmlns="http://www.w3.org/2000/svg" viewBox="0 0 37.94 30.65"><defs><style>.cls-1{fill:#fff;}.cls-2{fill:none;stroke:#fff;stroke-miterlimit:10;stroke-width:0.5px;}</style></defs><title>T1</title><path class="cls-1" d="M23.78,21.62v-.1h0l-.1,0c-5.15,0-8.6-.05-8.78,0l-.11,0v0h0v.11c0,.13,0,2.08,0,3.3,0,.84-.05,1.9,0,2.62l0,.25a1.32,1.32,0,0,0,.36.79A5.27,5.27,0,0,0,19.25,30c2.86,0,4.4-1.44,4.52-2,0-.09,0-.62,0-2.83C23.78,22.66,23.79,21.75,23.78,21.62Zm-4.53,8.09a5,5,0,0,1-3.9-1.33,1,1,0,0,1-.28-.6l0-.25v0h0V21.77c.8-.05,3.79,0,8.39,0V28C23.38,28.29,22.1,29.71,19.25,29.71Z"/><rect class="cls-2" x="11.61" y="0.8" width="15.27" height="19.03"/><path class="cls-1" d="M22.62,6.43a.35.35,0,0,1-.06.09l0,.05,0,0-.19,0a2.77,2.77,0,0,1-.38,0,3.55,3.55,0,0,0-.48,0l-.7.09-.84.11c-.31,0-.62.08-.95.1,0,.55-.05,1.11-.07,1.68l0,1.72c0,.58,0,1.15,0,1.72s0,1.14,0,1.69c0,0,0,0,0,.05l0,0a.54.54,0,0,1-.1.2.21.21,0,0,1-.16.08.81.81,0,0,1-.38-.07,1,1,0,0,1-.22-.17.35.35,0,0,1-.08-.15,1.55,1.55,0,0,1-.07-.23,1.86,1.86,0,0,1,0-.27,1.39,1.39,0,0,1,0-.27,2.29,2.29,0,0,1,0-.25c0-.09,0-.17,0-.26s0-.37,0-.55,0-.34,0-.5,0-.24,0-.42,0-.38,0-.61,0-.48.05-.74.05-.53.08-.8l.09-.77q.06-.39.12-.69a1.33,1.33,0,0,0,.05-.19,1.06,1.06,0,0,0,0-.19c-.36,0-.71,0-1,0A10.14,10.14,0,0,1,15.84,7a3.43,3.43,0,0,1-1-.28.11.11,0,0,1-.06-.11.44.44,0,0,0,0-.15.2.2,0,0,1,0-.15.62.62,0,0,0,0-.13.08.08,0,0,1,0-.07.36.36,0,0,1,.16,0h1.4l.73,0,.57-.06L18.44,6l1-.07,1.07,0,.45,0,.49.06.45.08.34.09.1.06a.06.06,0,0,1,0,0v0s0,0,0,0l.08,0,.07,0a.09.09,0,0,1,.06,0S22.62,6.4,22.62,6.43Z"/><path class="cls-1" d="M23.29,13.86a.61.61,0,0,1,0,.33c0,.05-.06.09-.1.09H23a.11.11,0,0,0-.07,0,.33.33,0,0,1-.19,0,1.61,1.61,0,0,1-.27-.1l-.13-.06-.07,0s0,0,0,0V14c0-.2,0-.46,0-.76s0-.43,0-.66,0-.47,0-.69,0-.45,0-.66,0-.4,0-.56,0-.35,0-.61,0-.54,0-.84l0-.92c0-.32,0-.6,0-.87s0-.48,0-.66,0-.28,0-.31a.28.28,0,0,1,0-.13s0,0,.06,0a.13.13,0,0,0,.1,0l0,0a.28.28,0,0,1,.13,0s.06,0,.06,0,0,0,0,0H23a.37.37,0,0,1,.26.2s0,.08,0,.18,0,.23,0,.38,0,.31,0,.49V8.91a3,3,0,0,1,0,.32v.18c0,.23,0,.46,0,.69v.7c0,.32,0,.63,0,.94s0,.6,0,.87,0,.51,0,.73A3.44,3.44,0,0,0,23.29,13.86Z"/><path class="cls-2" d="M28.83.87V19.76h6.41s2-.65,2-3.65V4.73C37.24,1,35.18.87,35.18.87,33.41.91,28.83.87,28.83.87Z"/><path class="cls-2" d="M9.33.87V19.76H2.92s-2-.65-2-3.65V4.73C.92,1,3,.87,3,.87,4.74.91,9.33.87,9.33.87Z"/></svg>