<svg id="Layer_1" data-name="Layer 1" xmlns="http://www.w3.org/2000/svg" viewBox="0 0 37.94 30.65"><defs><style>.cls-1{fill:#fff;}.cls-2{fill:none;stroke:#fff;stroke-miterlimit:10;stroke-width:0.5px;}</style></defs><title>T2</title><path class="cls-1" d="M23.78,21.62v-.1h0l-.1,0c-5.15,0-8.6-.05-8.78,0l-.11,0v0h0v.11c0,.13,0,2.08,0,3.3,0,.84-.05,1.9,0,2.62l0,.25a1.32,1.32,0,0,0,.36.79A5.27,5.27,0,0,0,19.25,30c2.86,0,4.4-1.44,4.52-2,0-.09,0-.62,0-2.83C23.78,22.66,23.79,21.75,23.78,21.62Zm-4.53,8.09a5,5,0,0,1-3.9-1.33,1,1,0,0,1-.28-.6l0-.25v0h0V21.77c.8-.05,3.79,0,8.39,0V28C23.38,28.29,22.1,29.71,19.25,29.71Z"/><rect class="cls-2" x="11.61" y="0.8" width="15.27" height="19.03"/><path class="cls-1" d="M20.55,6.43a.35.35,0,0,1-.06.09l0,.05a.05.05,0,0,1,0,0l-.19,0a2.77,2.77,0,0,1-.38,0,3.55,3.55,0,0,0-.48,0l-.69.09-.85.11c-.3,0-.62.08-.95.1,0,.55-.05,1.11-.07,1.68l0,1.72c0,.58,0,1.15,0,1.72s0,1.14,0,1.69a.06.06,0,0,1,0,.05s0,0,0,0a.56.56,0,0,1-.11.2.19.19,0,0,1-.16.08.81.81,0,0,1-.38-.07A1.28,1.28,0,0,1,15.8,14a.35.35,0,0,1-.08-.15,1.55,1.55,0,0,1-.07-.23,1.86,1.86,0,0,1-.05-.27,1.39,1.39,0,0,1,0-.27c0-.09,0-.17,0-.25v-.26c0-.18,0-.37,0-.55a4.46,4.46,0,0,0,0-.5c0-.1,0-.24,0-.42s0-.38,0-.61,0-.48,0-.74.05-.53.08-.8l.09-.77q.06-.39.12-.69a1.33,1.33,0,0,0,0-.19c0-.06,0-.12.05-.19-.36,0-.72,0-1.06,0A10.14,10.14,0,0,1,13.77,7a3.43,3.43,0,0,1-1-.28.15.15,0,0,1-.06-.11.83.83,0,0,0,0-.15.17.17,0,0,1,0-.15.62.62,0,0,0,0-.13.08.08,0,0,1,0-.07.36.36,0,0,1,.16,0h1.41l.72,0,.57-.06L16.37,6l1-.07,1.06,0,.45,0c.16,0,.33,0,.49.06l.45.08.34.09.11.06a.11.11,0,0,1,0,0,0,0,0,0,1,0,0s0,0,0,0l.08,0,.07,0a.09.09,0,0,1,.06,0S20.55,6.4,20.55,6.43Z"/><path class="cls-1" d="M25.23,14.18c-.09,0-.37,0-.84,0H22.5c-.4,0-.77,0-1.1,0l-.85.07-.58.09a.87.87,0,0,0-.25.08l-.08.07s0,0,0,0a.3.3,0,0,1-.07-.11.28.28,0,0,1,0-.19,2.08,2.08,0,0,1,.29-.31c.17-.14.37-.33.61-.56s.52-.49.82-.78.61-.62.92-1a11.76,11.76,0,0,0,.93-1.15,6.72,6.72,0,0,0,.58-1A3,3,0,0,0,24,8.56a1.64,1.64,0,0,0,0-.66,1,1,0,0,0-.21-.45,1.23,1.23,0,0,0-.4-.31A1.92,1.92,0,0,0,22.9,7a3.43,3.43,0,0,0-.56-.07,1.88,1.88,0,0,0-.83.12,2,2,0,0,0-.65.36,1.43,1.43,0,0,0-.38.45.58.58,0,0,0-.06.43.34.34,0,0,0,.19.2.73.73,0,0,0,.3.06l.27,0a1.29,1.29,0,0,0,.28-.08,1.12,1.12,0,0,0,.24-.13.78.78,0,0,0,.2-.16s.06,0,.08,0,0,0,0,0v.09A.41.41,0,0,1,22,8.3s-.06.07,0,.07l.07,0a.19.19,0,0,1,.1.1.24.24,0,0,1-.05.18s0,0,0,.05l0,0,0,.06a.46.46,0,0,1-.07.07,1.44,1.44,0,0,1-.85.31,1.33,1.33,0,0,1-.45-.08,1.28,1.28,0,0,1-.37-.23A1.14,1.14,0,0,1,20,8.6a1,1,0,0,1-.14-.35,1,1,0,0,1,0-.41A1.57,1.57,0,0,1,20,7.36a2.11,2.11,0,0,1,.33-.49,2.85,2.85,0,0,1,.49-.42,2.28,2.28,0,0,1,.65-.3,2.53,2.53,0,0,1,.8-.12,3.56,3.56,0,0,1,1.11.13,2.08,2.08,0,0,1,.72.4,1.66,1.66,0,0,1,.44.58,4.16,4.16,0,0,1,.24.73,1.43,1.43,0,0,1,0,.65,2.63,2.63,0,0,1-.22.69,4.64,4.64,0,0,1-.38.68c-.15.23-.3.44-.46.65s-.32.41-.48.6l-.41.5c-.16.2-.31.38-.45.53l-.39.4-.34.33-.28.32a5.67,5.67,0,0,1,.88-.12l.93,0h.57l.48,0,.37,0,.21.06.11.06a.19.19,0,0,1,.06.07l0,.06,0,0a.38.38,0,0,1,.09.12s0,.07-.07.09a.09.09,0,0,0-.07.06s0,.08.11.15a1.26,1.26,0,0,1,.19.24C25.37,14.16,25.33,14.19,25.23,14.18Z"/><path class="cls-2" d="M28.83.87V19.76h6.41s2-.65,2-3.65V4.73C37.24,1,35.18.87,35.18.87,33.41.91,28.83.87,28.83.87Z"/><path class="cls-2" d="M9.33.87V19.76H2.92s-2-.65-2-3.65V4.73C.92,1,3,.87,3,.87,4.74.91,9.33.87,9.33.87Z"/></svg>