<svg id="Layer_1" data-name="Layer 1" xmlns="http://www.w3.org/2000/svg" viewBox="0 0 37.94 30.65"><defs><style>.cls-1{fill:#fff;}.cls-2{fill:none;stroke:#fff;stroke-miterlimit:10;stroke-width:0.5px;}</style></defs><title>T3</title><path class="cls-1" d="M23.78,21.62v-.1h0l-.1,0c-5.15,0-8.6-.05-8.78,0l-.11,0v0h0v.11c0,.13,0,2.08,0,3.3,0,.84-.05,1.9,0,2.62l0,.25a1.32,1.32,0,0,0,.36.79A5.27,5.27,0,0,0,19.25,30c2.86,0,4.4-1.44,4.52-2,0-.09,0-.62,0-2.83C23.78,22.66,23.79,21.75,23.78,21.62Zm-4.53,8.09a5,5,0,0,1-3.9-1.33,1,1,0,0,1-.28-.6l0-.25v0h0V21.77c.8-.05,3.79,0,8.39,0V28C23.38,28.29,22.1,29.71,19.25,29.71Z"/><rect class="cls-2" x="11.61" y="0.8" width="15.27" height="19.03"/><path class="cls-1" d="M20.55,6.43a.35.35,0,0,1-.06.09l0,.05a.05.05,0,0,1,0,0l-.19,0a2.77,2.77,0,0,1-.38,0,3.55,3.55,0,0,0-.48,0l-.69.09-.85.11c-.3,0-.62.08-.95.1,0,.55-.05,1.11-.07,1.68l0,1.72c0,.58,0,1.15,0,1.72s0,1.14,0,1.69a.06.06,0,0,1,0,.05s0,0,0,0a.56.56,0,0,1-.11.2.19.19,0,0,1-.16.08.81.81,0,0,1-.38-.07A1.28,1.28,0,0,1,15.8,14a.35.35,0,0,1-.08-.15,1.55,1.55,0,0,1-.07-.23,1.86,1.86,0,0,1-.05-.27,1.39,1.39,0,0,1,0-.27c0-.09,0-.17,0-.25v-.26c0-.18,0-.37,0-.55a4.46,4.46,0,0,0,0-.5c0-.1,0-.24,0-.42s0-.38,0-.61,0-.48,0-.74.05-.53.08-.8l.09-.77q.06-.39.12-.69a1.33,1.33,0,0,0,0-.19c0-.06,0-.12.05-.19-.36,0-.72,0-1.06,0A10.14,10.14,0,0,1,13.77,7a3.43,3.43,0,0,1-1-.28.15.15,0,0,1-.06-.11.83.83,0,0,0,0-.15.17.17,0,0,1,0-.15.62.62,0,0,0,0-.13.08.08,0,0,1,0-.07.36.36,0,0,1,.16,0h1.41l.72,0,.57-.06L16.37,6l1-.07,1.06,0,.45,0c.16,0,.33,0,.49.06l.45.08.34.09.11.06a.11.11,0,0,1,0,0,0,0,0,0,1,0,0s0,0,0,0l.08,0,.07,0a.09.09,0,0,1,.06,0S20.55,6.4,20.55,6.43Z"/><path class="cls-1" d="M22.7,9.44a4.9,4.9,0,0,1,.6.12,4.57,4.57,0,0,1,.63.19,3.92,3.92,0,0,1,.58.29,2.18,2.18,0,0,1,.49.41,1.75,1.75,0,0,1,.34.51,1.67,1.67,0,0,1,.12.65,2.24,2.24,0,0,1-.38,1.21,3.5,3.5,0,0,1-1.69,1.33,4.1,4.1,0,0,1-.59.2,5.28,5.28,0,0,1-1.2.15,3.56,3.56,0,0,1-.57,0,2.45,2.45,0,0,1-.5-.11,2.22,2.22,0,0,1-.41-.19,1.08,1.08,0,0,1-.3-.26,1.78,1.78,0,0,1-.22-.4,1.24,1.24,0,0,1-.06-.37,1,1,0,0,1,.09-.43,1.36,1.36,0,0,1,.25-.39,1.53,1.53,0,0,1,.35-.32,3.26,3.26,0,0,1,.81-.45,2.15,2.15,0,0,1,.37-.11.38.38,0,0,1,.17,0s0,0,0,0a.21.21,0,0,1,0,.06l-.07.05-.49.26a2,2,0,0,0-.66.54,1,1,0,0,0-.2.54.48.48,0,0,0,.11.34.79.79,0,0,0,.27.2,1.36,1.36,0,0,0,.36.1l.37,0a3.09,3.09,0,0,0,.78-.1,3.88,3.88,0,0,0,.79-.27,5,5,0,0,0,.72-.39,3.53,3.53,0,0,0,.58-.48,2,2,0,0,0,.36-.52.89.89,0,0,0,.05-.53,1.46,1.46,0,0,0-.34-.68,2.06,2.06,0,0,0-.57-.41A2.55,2.55,0,0,0,23,10a5.6,5.6,0,0,0-.69-.05,4.38,4.38,0,0,0-.67,0l-.38,0a.22.22,0,0,1-.17,0,.17.17,0,0,1-.07-.1.4.4,0,0,1,0-.15c0-.06,0-.11,0-.16s0-.08,0-.09l0,0s0,0,0,0L21,9.35a1.29,1.29,0,0,1,.33-.13L21.9,9c.22-.07.44-.16.68-.26a3.09,3.09,0,0,0,.64-.36,2.79,2.79,0,0,0,.39-.34,2.18,2.18,0,0,0,.26-.29A1.26,1.26,0,0,0,24,7.53a.78.78,0,0,0,0-.21.34.34,0,0,0,0-.18A.57.57,0,0,0,23.92,7a.28.28,0,0,0-.1-.09l-.08,0a1.51,1.51,0,0,0-.39,0,3.08,3.08,0,0,0-.72.09,4.46,4.46,0,0,0-.73.24,4.51,4.51,0,0,0-.62.33,1.46,1.46,0,0,0-.4.37s0,.06,0,.07h.15l.24,0,.27-.08.26-.07L22,7.67h.06a.08.08,0,0,1,0,0L22,7.79l-.06.08a.22.22,0,0,0,0,.1.35.35,0,0,1-.06.09.68.68,0,0,0-.12.12l-.07.12-.06.09a.08.08,0,0,1-.05,0l-.17.07-.21.07-.22.06-.22,0a.65.65,0,0,1-.31-.08.56.56,0,0,1-.24-.28.69.69,0,0,1,0-.49,1.43,1.43,0,0,1,.3-.53,3.45,3.45,0,0,1,.6-.5,4.6,4.6,0,0,1,.86-.44,3.11,3.11,0,0,1,.65-.19,3.07,3.07,0,0,1,.57-.06,2.67,2.67,0,0,1,.42,0,2.53,2.53,0,0,1,.35.09l.25.1a.55.55,0,0,1,.16.12,1,1,0,0,1,.2.22,2.53,2.53,0,0,1,.13.22,2.29,2.29,0,0,1,.1.23c0,.07.07.14.11.2a.5.5,0,0,1,.07.39,1,1,0,0,1-.21.4,3,3,0,0,1-.4.39c-.16.13-.34.25-.52.37l-.56.32Z"/><path class="cls-2" d="M28.83.87V19.76h6.41s2-.65,2-3.65V4.73C37.24,1,35.18.87,35.18.87,33.41.91,28.83.87,28.83.87Z"/><path class="cls-2" d="M9.33.87V19.76H2.92s-2-.65-2-3.65V4.73C.92,1,3,.87,3,.87,4.74.91,9.33.87,9.33.87Z"/></svg>