<svg id="Layer_1" data-name="Layer 1" xmlns="http://www.w3.org/2000/svg" viewBox="0 0 30.24 29.47"><defs><style>.cls-1{fill:none;stroke:#fff;stroke-miterlimit:10;stroke-width:0.25px;}.cls-2,.cls-3{fill:#fff;}.cls-3{font-size:7.31px;font-family:Oregano-Regular, Oregano;}</style></defs><title>T4</title><circle class="cls-1" cx="15.16" cy="14.38" r="6.85"/><path class="cls-2" d="M11.88,24.23l.07-.07h0L11.89,24c-3.67-3.61-6-6.11-6.21-6.21l-.09-.06h0l-.08.07c-.1.09-1.49,1.45-2.34,2.33-.58.6-1.38,1.31-1.86,1.85l-.16.18A1.38,1.38,0,0,0,.82,23c-.09,1.26.56,2.59,1.92,3.95,2,2,4.13,2.09,4.61,1.78.08-.05.44-.43,2-2C11.15,25,11.8,24.33,11.88,24.23ZM3,26.75a5,5,0,0,1-1.82-3.7,1,1,0,0,1,.23-.62l.16-.19h0l4.05-4c.6.53,2.7,2.65,5.92,5.93L7.16,28.49C6.88,28.67,5,28.76,3,26.75Z"/><path class="cls-2" d="M24.8,17.89l-.07-.08h0l-.09.07c-3.61,3.66-6.11,6-6.2,6.2l-.07.1h0l.08.07c.08.11,1.44,1.5,2.32,2.34.6.58,1.31,1.39,1.85,1.86l.19.16a1.33,1.33,0,0,0,.81.31A5.26,5.26,0,0,0,27.55,27c2-2,2.09-4.14,1.78-4.61a23.25,23.25,0,0,0-2-2C25.54,18.62,24.9,18,24.8,17.89Zm2.52,8.91a5,5,0,0,1-3.7,1.82,1,1,0,0,1-.62-.23l-.19-.16h0l-4-4c.53-.61,2.66-2.71,5.94-5.93l4.37,4.38C29.24,22.88,29.33,24.79,27.32,26.8Z"/><path class="cls-2" d="M18.44,5l-.08.08h0l.06.09c3.56,3.71,5.87,6.28,6,6.37l.1.07h0l.08-.07c.1-.08,1.53-1.41,2.4-2.26.6-.59,1.42-1.27,1.9-1.8l.17-.18a1.25,1.25,0,0,0,.33-.8,5.22,5.22,0,0,0-1.8-4C25.68.43,23.58.3,23.09.6,23,.64,22.63,1,21,2.53,19.19,4.28,18.51,4.9,18.44,5Zm9-2.27a5,5,0,0,1,1.71,3.76.92.92,0,0,1-.24.61l-.17.19h0l-4.15,3.93C24,10.67,22,8.49,18.83,5.12L23.26.87c.3-.17,2.2-.21,4.16,1.85Z"/><path class="cls-2" d="M5.12,11.91,5.2,12h0l.08-.06c3.61-3.67,6.11-6,6.2-6.22l.06-.09h0l-.08-.08c-.08-.1-1.44-1.49-2.32-2.33-.58-.62-1.29-1.43-1.82-1.9l-.19-.16A1.33,1.33,0,0,0,6.32.85,5.32,5.32,0,0,0,2.37,2.77C.35,4.79.28,6.9.59,7.38c.05.08.43.45,2,2C4.38,11.18,5,11.84,5.12,11.91ZM2.59,3a5,5,0,0,1,3.7-1.83,1,1,0,0,1,.63.23l.19.16h0l4.05,4c-.53.6-2.65,2.71-5.93,5.93L.86,7.2C.68,6.91.58,5,2.59,3Z"/><text class="cls-3" transform="translate(11.03 16.55)">T4</text></svg>