<svg id="Layer_1" data-name="Layer 1" xmlns="http://www.w3.org/2000/svg" viewBox="0 0 40.29 14.06"><defs><style>.cls-1{fill:#fff;}.cls-2{fill:none;stroke:#fff;stroke-miterlimit:10;stroke-width:0.5px;}</style></defs><title>T7</title><path class="cls-1" d="M28.9,1.31h-.14v0h0l0,.14c.05,6.37-.07,10.64,0,10.87l0,.13h0v0h.13c.17,0,2.58,0,4.09,0,1,0,2.36.06,3.24,0l.31,0a1.68,1.68,0,0,0,1-.45c1.18-1,1.78-2.75,1.78-5.13,0-3.54-1.78-5.45-2.48-5.6-.11,0-.76,0-3.49,0C30.18,1.3,29.05,1.29,28.9,1.31Zm10,5.6c0,2.26-.56,3.88-1.65,4.83a1.29,1.29,0,0,1-.74.35l-.31,0h-.05v0H29.08c-.06-1,0-4.69,0-10.39h7.66C37.16,1.8,38.91,3.39,38.91,6.91Z"/><path class="cls-1" d="M11.06,12.51h.13v0h0l0-.14c-.05-6.37.06-10.64,0-10.86l0-.14h-.16c-.16,0-2.57-.05-4.08,0-1,0-2.36-.06-3.25,0l-.3,0a1.61,1.61,0,0,0-1,.44C1.25,2.81.65,4.53.65,6.91c0,3.54,1.79,5.45,2.48,5.6.11,0,.77,0,3.5,0C9.77,12.52,10.91,12.54,11.06,12.51Zm-10-5.6C1.05,4.65,1.6,3,2.7,2.08a1.26,1.26,0,0,1,.74-.35l.31,0h0v0h7.08c.06,1,0,4.69,0,10.39H3.2C2.8,12,1.05,10.44,1.05,6.91Z"/><rect class="cls-2" x="13.9" y="0.55" width="12.72" height="12.72"/><path class="cls-1" d="M21.34,3.82a.43.43,0,0,1,0,.07s0,0,0,0l0,0L21.1,4l-.29,0-.36,0-.52.07-.63.09-.71.08c0,.4,0,.82-.05,1.25s0,.85,0,1.29,0,.86,0,1.29,0,.84,0,1.26l0,0,0,0a.28.28,0,0,1-.08.15.15.15,0,0,1-.11.07A.57.57,0,0,1,18,9.59l-.17-.12a.33.33,0,0,1-.05-.12.84.84,0,0,1-.05-.17,1.18,1.18,0,0,1,0-.2,1.77,1.77,0,0,1,0-.21c0-.06,0-.12,0-.19V8.4c0-.14,0-.28,0-.42s0-.26,0-.37,0-.18,0-.32a4.21,4.21,0,0,1,0-.46c0-.17,0-.35,0-.55l.06-.59c0-.2,0-.4.07-.59s.06-.36.09-.51,0-.09,0-.14l0-.14c-.27,0-.53,0-.79,0a9.36,9.36,0,0,1-.94,0,2.61,2.61,0,0,1-.77-.21.1.1,0,0,1,0-.08l0-.12a.11.11,0,0,1,0-.11s0-.07,0-.1a0,0,0,0,1,0-.05H16.6l.54,0,.43,0,.64-.06.76,0,.8,0a1.94,1.94,0,0,1,.33,0l.37,0a1.86,1.86,0,0,1,.34.06,1.09,1.09,0,0,1,.25.07l.08,0s0,0,0,0v0l0,0h.11l0,0A.09.09,0,0,1,21.34,3.82Z"/><path class="cls-1" d="M24.8,3.67s0,.09-.11.24-.21.38-.36.69l-.58,1.15c-.22.46-.47,1-.75,1.63l-.46,1.06c-.12.28-.22.51-.31.69L22,9.56c-.05.09-.09.17-.12.21l-.08.08h-.13v0h-.13l-.11-.06a.08.08,0,0,1,0,0s0,0,0,0,0,0,0-.06l0-.07-.06-.06,0-.05a0,0,0,0,1,0-.05.23.23,0,0,1,0-.09s.06-.11.13-.25l.3-.52c.11-.21.25-.45.4-.72s.3-.54.46-.83.33-.56.49-.85.32-.55.46-.8l.4-.66c.11-.2.21-.34.28-.45l-.36.08-.49.08-.58.05c-.2,0-.41,0-.61,0l-.43,0-.41,0A2,2,0,0,1,21,4.28a1.61,1.61,0,0,1-.33-.12s-.06-.06-.06-.13a.61.61,0,0,1,.05-.18.36.36,0,0,1,0-.09.22.22,0,0,1,.05-.08l.06-.07.07,0h.21l.36,0,.5,0h.62c.28,0,.59,0,.92,0s.67,0,1-.08a.26.26,0,0,1,.21,0Z"/></svg>