<svg xmlns="http://www.w3.org/2000/svg" viewBox="0 0 205.72 63.54"><defs><style>.cls-1,.cls-5{font-size:7px;}.cls-1,.cls-3,.cls-5,.cls-7{fill:#fff;font-family:Oregano-Regular, Oregano;}.cls-1{letter-spacing:-0.02em;}.cls-2{letter-spacing:0em;}.cls-3{font-size:2.85px;}.cls-4{letter-spacing:-0.04em;}.cls-6{letter-spacing:-0.02em;}.cls-7{font-size:4.32px;}.cls-8{letter-spacing:-0.06em;}.cls-9{letter-spacing:0em;}.cls-10{letter-spacing:-0.08em;}.cls-11,.cls-12{fill:none;stroke:#fff;stroke-miterlimit:10;}.cls-11{stroke-width:0.25px;}</style></defs><title>T_background</title><g id="Layer_2" data-name="Layer 2"><rect width="205.72" height="63.54"/></g><g id="Layer_1" data-name="Layer 1"><text class="cls-1" transform="translate(181.05 56.47) scale(0.87 1)">V<tspan class="cls-2" x="4.1" y="0">CHOD</tspan></text><text class="cls-3" transform="translate(181.05 59.93) scale(1.32 1)">Z K<tspan class="cls-4" x="3.98" y="0">A</tspan><tspan x="5.44" y="0">VIARNE</tspan></text><text class="cls-5" transform="translate(3.82 39.83) scale(1.05 1)"><tspan class="cls-6">V</tspan><tspan x="4.1" y="0">CHOD</tspan></text><text class="cls-7" transform="translate(2.17 44.72) scale(1.05 1)">Z <tspan class="cls-8" x="3.35" y="0">P</tspan><tspan class="cls-9" x="5.58" y="0">AR</tspan><tspan class="cls-10" x="10.37" y="0">K</tspan><tspan class="cls-9" x="12.71" y="0">OVISKA</tspan></text><text class="cls-1" transform="translate(182.91 39.83) scale(0.87 1)">V<tspan class="cls-2" x="4.1" y="0">CHOD</tspan></text><text class="cls-7" transform="translate(181.54 44.72) scale(0.87 1)">Z PODCHODU</text><line class="cls-11" x1="202.7" y1="62.6" x2="181.69" y2="62.6"/><polyline class="cls-12" points="204.62 48.24 204.62 62.6 202.7 62.6"/><line class="cls-11" x1="204.62" y1="16.89" x2="204.62" y2="48.24"/><polyline class="cls-12" points="0.85 32.24 0.85 0.88 204.62 0.88 204.62 32.24"/><line class="cls-11" x1="0.85" y1="49.08" x2="0.85" y2="32.25"/><polyline class="cls-12" points="181.69 62.6 0.85 62.6 0.85 48.91"/></g></svg>